<?xml version="1.0" standalone="no"?>
<!DOCTYPE svg PUBLIC "-//W3C//DTD SVG 20010904//EN"
 "http://www.w3.org/TR/2001/REC-SVG-20010904/DTD/svg10.dtd">
<svg version="1.0" xmlns="http://www.w3.org/2000/svg"
 width="400.000000pt" height="331.000000pt" viewBox="0 0 400.000000 331.000000"
 preserveAspectRatio="xMidYMid meet">
<metadata>
Created by potrace 1.16, written by Peter Selinger 2001-2019
</metadata>
<g transform="translate(0.000000,331.000000) scale(0.100000,-0.100000)"
fill="#000000" stroke="none">
<path d="M2332 3270 c3 -19 9 -44 13 -55 7 -16 6 -18 -6 -7 -7 6 -19 12 -27
12 -10 0 -9 -7 5 -30 12 -21 14 -33 6 -41 -8 -8 -14 -2 -24 20 -14 31 -32 40
-44 21 -9 -14 -35 -12 -35 3 0 6 -5 19 -10 27 -15 23 -30 -6 -23 -45 l5 -30
-17 23 c-22 30 -37 19 -30 -22 5 -23 2 -36 -9 -45 -9 -8 -16 -22 -16 -33 0
-18 -2 -19 -16 -7 -11 9 -14 22 -10 43 3 17 1 38 -4 46 -7 12 -11 10 -18 -9
-5 -16 -11 -20 -16 -13 -4 6 -2 21 4 33 10 18 8 25 -14 48 -14 15 -26 34 -26
42 0 9 -8 5 -20 -11 l-19 -25 -10 28 c-8 21 -17 27 -40 27 -39 0 -32 -24 10
-39 16 -5 29 -15 29 -22 0 -8 -4 -8 -15 1 -8 7 -23 9 -32 5 -16 -6 -16 -8 4
-25 13 -10 31 -16 42 -13 10 3 22 0 25 -6 5 -7 -3 -11 -19 -11 -41 0 -24 -25
17 -26 19 -1 40 -4 47 -8 19 -12 12 -23 -12 -19 -30 6 -58 -23 -32 -33 9 -4
27 -2 40 4 23 11 27 8 51 -33 l26 -45 -23 -37 c-25 -41 -38 -29 -19 18 10 23
10 33 1 42 -9 9 -13 6 -18 -11 -4 -15 -16 -25 -34 -29 -16 -3 -29 -12 -29 -20
0 -11 7 -13 23 -9 20 5 25 0 34 -29 6 -19 10 -35 8 -35 -10 0 -95 54 -110 70
-15 16 -16 22 -5 35 10 13 10 21 1 43 l-13 27 -13 -30 c-14 -31 -18 -27 -15
16 0 14 -6 31 -14 38 -13 11 -17 10 -24 -10 -6 -15 -11 -18 -16 -11 -10 16
-59 16 -54 0 3 -7 15 -15 29 -18 16 -4 20 -8 11 -14 -22 -13 -13 -28 13 -22
14 4 31 3 38 -1 8 -5 3 -9 -12 -13 -14 -3 -27 -12 -29 -19 -4 -11 3 -13 31 -8
27 4 39 1 53 -14 16 -17 16 -22 4 -29 -21 -14 -28 -12 -50 10 -11 11 -26 17
-35 14 -21 -9 -19 -25 5 -31 23 -6 25 -14 9 -30 -7 -7 -21 -8 -40 -3 -22 7
-29 5 -29 -5 0 -8 6 -18 14 -22 11 -7 10 -11 -4 -26 -17 -18 -18 -16 -25 44
-6 52 -5 63 9 71 9 5 16 18 16 30 0 15 -3 18 -13 10 -9 -8 -12 -3 -12 21 0 22
-5 33 -17 35 -18 3 -18 -11 -2 -53 7 -19 7 -19 -13 -2 -23 20 -43 22 -44 5 -1
-23 -28 46 -29 73 0 38 8 40 37 11 32 -31 44 -15 18 24 -9 14 -14 29 -10 32 4
4 11 -1 16 -11 6 -9 19 -17 29 -17 22 0 27 15 9 26 -7 4 1 12 20 20 37 15 44
50 9 38 -13 -3 -24 -11 -26 -15 -9 -22 -18 -6 -15 24 l4 32 -20 -24 c-12 -13
-21 -29 -21 -36 0 -7 -7 -16 -16 -19 -22 -9 -22 -8 -26 16 -2 13 -11 24 -20
26 -13 2 -15 -2 -11 -20 3 -13 10 -29 16 -36 7 -9 7 -16 -1 -24 -7 -7 -12 -21
-12 -33 -1 -18 -3 -17 -24 9 -19 22 -23 37 -19 63 6 34 -12 48 -23 18 -12 -30
-24 -14 -18 24 4 23 2 41 -4 45 -13 8 -31 -24 -24 -42 3 -10 -3 -9 -22 3 -26
18 -76 14 -76 -5 0 -11 11 -13 52 -10 14 1 29 -4 34 -11 4 -8 3 -10 -5 -5 -16
10 -63 -2 -56 -14 3 -6 27 -11 53 -11 45 -2 46 -2 12 -8 -34 -6 -34 -7 -13
-19 12 -6 33 -12 46 -12 13 0 31 -8 40 -18 14 -15 15 -23 5 -44 l-12 -25 -41
17 c-41 18 -71 20 -94 6 -10 -7 -12 -3 -7 12 4 12 2 31 -5 44 l-12 22 -8 -23
c-5 -12 -6 -35 -3 -49 l7 -27 -22 23 c-12 12 -26 22 -30 22 -14 0 -1 -37 20
-56 10 -9 19 -23 19 -31 0 -16 -5 -16 -29 -1 -15 9 -23 9 -35 -1 -22 -18 -11
-31 27 -31 22 0 36 -7 45 -21 7 -12 12 -23 9 -25 -7 -7 -72 19 -93 37 -11 11
-26 19 -32 19 -18 0 -14 -20 5 -27 27 -11 -15 -22 -58 -16 -42 6 -63 -13 -25
-23 23 -5 24 -8 10 -21 -29 -30 -47 -64 -38 -73 13 -13 29 1 42 35 9 25 11 26
11 8 2 -39 19 -34 33 9 10 28 21 44 34 46 18 3 18 2 2 -8 -18 -11 -25 -40 -11
-40 4 0 17 12 28 26 21 26 22 27 76 14 30 -7 65 -18 78 -24 24 -11 24 -11 -13
-25 -23 -9 -36 -20 -36 -32 0 -26 12 -24 40 6 13 14 28 25 32 25 5 0 2 -7 -6
-16 -9 -8 -16 -23 -16 -32 0 -12 11 -6 36 21 19 20 39 37 45 37 5 0 -1 -10
-13 -22 -30 -30 -5 -37 33 -9 35 26 46 26 84 1 26 -17 27 -20 10 -20 -12 0
-26 5 -32 11 -17 17 -43 3 -43 -23 0 -17 3 -19 12 -10 17 17 33 15 18 -3 -7
-8 -18 -15 -25 -15 -17 0 -23 -17 -17 -48 4 -22 5 -22 23 -6 11 9 19 27 20 38
0 14 4 9 11 -14 9 -33 11 -34 24 -15 8 10 12 27 9 36 -8 23 10 32 35 19 12 -6
25 -30 32 -56 9 -32 21 -50 38 -59 31 -16 88 -75 73 -75 -6 0 -13 7 -17 15 -6
16 -41 20 -51 6 -3 -5 3 -12 12 -14 14 -4 13 -5 -4 -6 -13 -1 -27 7 -33 19 -6
12 -21 20 -35 20 -27 0 -32 -9 -13 -28 9 -9 6 -12 -14 -12 -14 0 -36 -9 -49
-20 l-24 -19 37 -1 c20 0 40 5 43 10 3 6 14 10 23 10 16 -1 16 -1 0 -11 -18
-10 -25 -39 -10 -39 5 0 19 11 32 25 13 14 30 25 39 25 12 0 12 -3 3 -12 -7
-7 -12 -18 -12 -25 0 -21 23 -15 45 13 30 37 54 26 95 -44 26 -45 34 -70 37
-120 1 -35 7 -72 13 -82 9 -17 7 -20 -15 -20 -32 0 -105 22 -105 32 0 5 6 8
14 8 7 0 20 7 27 17 13 15 11 16 -23 10 -25 -4 -38 -2 -38 5 0 6 3 8 6 5 4 -3
15 -2 25 4 23 12 26 44 4 35 -54 -22 -52 -23 -32 7 18 28 23 57 9 57 -15 0
-32 -24 -32 -46 0 -22 -1 -22 -31 -7 -16 8 -33 12 -36 9 -9 -8 18 -37 45 -47
13 -5 20 -14 17 -19 -4 -6 -10 -8 -15 -5 -12 8 -50 -13 -50 -27 0 -7 14 -8 39
-4 30 5 42 2 56 -14 18 -20 17 -20 -24 -20 -58 0 -76 12 -111 73 -37 64 -38
79 -6 71 40 -10 56 8 21 22 l-30 12 27 11 c40 15 44 31 8 31 -18 0 -33 -6 -36
-15 -4 -8 -10 -12 -15 -9 -5 3 -7 9 -4 13 2 5 -3 17 -11 27 -14 17 -15 15 -10
-36 5 -46 4 -52 -7 -35 -6 11 -33 40 -59 64 -50 46 -58 61 -33 61 23 0 18 15
-10 30 -25 13 -33 30 -15 30 6 0 10 -4 10 -9 0 -11 39 -25 47 -17 3 3 -5 15
-18 26 -22 20 -22 20 -2 11 26 -13 63 -14 63 -2 0 18 -30 33 -55 27 -27 -7
-30 -4 -16 23 5 9 6 23 2 30 -6 10 -12 7 -25 -10 -9 -13 -16 -31 -16 -41 0
-27 -18 -31 -42 -9 -12 12 -25 21 -30 21 -13 0 4 -34 28 -58 43 -41 24 -70
-24 -36 -28 20 -55 71 -42 79 14 8 13 55 -1 55 -6 0 -13 -9 -16 -20 -5 -19 -7
-20 -23 -5 -10 9 -16 24 -13 35 5 20 -13 60 -27 60 -14 0 -12 -34 2 -48 17
-17 2 -15 -38 4 -27 13 -37 14 -49 4 -25 -20 -17 -28 23 -24 33 3 35 3 15 -8
-36 -18 -27 -31 16 -24 29 4 42 2 52 -11 12 -14 11 -15 -7 -9 -13 4 -28 0 -42
-12 -20 -18 -20 -20 -4 -37 16 -17 15 -17 -25 -11 -23 3 -49 3 -58 -1 -15 -5
-15 -7 5 -18 l22 -12 -26 -17 c-28 -18 -35 -56 -11 -56 9 0 21 12 27 28 l11
27 7 -25 c7 -24 7 -24 23 13 9 20 21 37 28 37 8 0 8 -4 -1 -15 -21 -25 -2 -30
23 -7 25 24 33 23 131 -16 44 -17 47 -20 27 -27 -15 -4 -28 -1 -40 9 -24 21
-44 20 -66 -4 -18 -20 -18 -20 13 -14 18 4 32 3 32 -1 0 -16 -36 -34 -67 -35
-30 0 -63 -21 -63 -40 0 -5 13 -5 30 0 27 8 30 6 36 -18 11 -53 15 -59 24 -37
5 11 9 32 9 46 1 22 27 59 43 59 2 0 3 -13 0 -30 -6 -41 14 -38 28 4 12 39 25
46 63 39 28 -6 60 -34 110 -96 32 -42 33 -47 7 -47 -12 0 -34 -7 -49 -15 -27
-13 -32 -13 -70 8 -22 12 -41 27 -41 33 0 21 -39 23 -63 3 l-22 -18 35 -1 35
-1 -25 -14 c-14 -8 -34 -14 -45 -15 -26 0 -45 -18 -45 -43 0 -17 2 -17 30 3
31 22 40 16 18 -12 -24 -29 -97 -45 -185 -40 -69 4 -82 7 -86 23 -4 17 -46 42
-55 34 -2 -2 2 -13 8 -25 18 -33 -3 -47 -24 -16 -9 15 -25 26 -36 26 -21 0
-27 -15 -10 -25 21 -13 10 -35 -18 -35 -29 0 -62 -26 -62 -48 0 -15 29 -4 59
22 l24 21 -5 -27 c-7 -38 15 -36 42 2 24 34 47 42 30 11 -5 -11 -10 -28 -10
-38 0 -14 9 -9 35 20 23 24 44 37 61 37 37 0 26 -21 -24 -45 -47 -23 -95 -66
-122 -110 -11 -17 -35 -36 -54 -43 -20 -8 -36 -17 -36 -22 0 -5 -3 -15 -6 -24
-9 -23 12 -20 37 7 l22 22 -7 -30 c-8 -30 -21 -45 -42 -45 -6 0 -16 -11 -22
-25 -14 -30 1 -34 31 -7 19 17 19 16 12 -50 -8 -72 3 -90 24 -40 8 19 9 36 2
53 -13 36 2 57 17 24 12 -27 32 -34 32 -11 0 7 -9 25 -20 39 -32 40 -22 81 10
42 14 -16 45 -21 35 -5 -6 10 15 50 27 50 5 0 8 -9 8 -20 0 -26 27 -80 40 -80
18 0 10 50 -10 62 -11 7 -20 22 -20 33 1 18 1 19 11 3 5 -10 19 -18 30 -18 17
0 18 3 8 21 -6 12 -20 24 -30 26 -12 4 -19 14 -19 31 l0 26 20 -22 c21 -22 40
-29 40 -14 0 4 -14 19 -31 33 -28 22 -30 28 -20 47 6 12 20 22 30 22 10 0 35
14 56 30 46 36 57 38 49 6 -3 -13 -1 -27 5 -30 6 -4 11 0 11 8 0 15 18 32 26
23 9 -9 -16 -57 -30 -57 -19 0 -38 -26 -34 -47 3 -15 6 -15 26 7 25 27 29 13
8 -29 -8 -15 -11 -33 -7 -40 13 -20 36 17 32 53 l-3 31 22 -27 c12 -16 25 -28
30 -28 13 0 0 37 -21 56 -21 18 -25 49 -9 59 6 3 10 -1 10 -9 0 -8 9 -20 20
-26 26 -14 27 3 1 39 -22 31 -17 45 23 60 32 13 54 5 33 -12 -18 -15 -30 -47
-17 -47 5 0 15 9 23 20 16 23 27 17 27 -16 0 -25 13 -37 47 -40 32 -4 29 14
-7 34 -29 17 -46 40 -35 50 3 3 11 0 17 -6 17 -17 31 -15 24 3 -4 11 2 15 20
15 31 0 59 14 102 51 45 40 68 37 117 -16 29 -32 46 -44 58 -39 9 3 17 2 17
-4 0 -17 -26 -31 -48 -25 -24 6 -38 -16 -28 -44 6 -14 8 -14 22 3 14 18 15 18
8 -6 -4 -14 -10 -27 -14 -30 -4 -3 -10 -14 -14 -26 -5 -16 -12 -20 -39 -16
-31 4 -31 3 -12 -12 19 -15 19 -15 -8 -16 -16 0 -35 7 -43 15 -9 8 -24 15 -35
15 -17 0 -18 -3 -9 -20 6 -11 18 -20 28 -20 13 -1 10 -6 -12 -24 -37 -31 -31
-56 6 -26 25 19 27 19 37 3 5 -10 13 -14 17 -10 4 4 2 13 -4 19 -17 17 -15 28
6 28 12 0 18 -7 18 -20 -1 -10 4 -19 9 -18 6 1 9 9 7 20 -7 42 32 11 43 -35 8
-31 7 -31 -46 -15 -31 9 -51 8 -94 -2 -64 -15 -85 -6 -64 27 13 21 7 53 -10
53 -5 0 -7 -9 -4 -20 6 -23 -12 -27 -21 -5 -3 8 -13 15 -23 15 -10 0 -23 10
-28 22 -6 12 -16 23 -22 26 -16 5 -17 -30 -1 -46 8 -8 5 -14 -15 -23 -15 -7
-27 -20 -27 -30 0 -30 16 -30 31 -1 l13 27 4 -28 c3 -23 6 -26 18 -16 11 9 14
8 14 -6 0 -17 1 -17 21 1 17 16 22 16 29 4 21 -33 3 -38 -120 -27 -33 3 -38
-17 -6 -21 22 -3 24 -6 13 -23 -6 -10 -21 -19 -32 -19 -20 0 -45 -17 -45 -31
0 -4 15 -6 32 -4 21 1 38 -4 46 -14 12 -14 13 -11 8 21 -5 40 8 62 17 28 3
-11 10 -20 16 -20 14 0 14 16 1 40 -12 22 6 38 23 21 14 -14 50 -14 65 1 6 6
15 9 19 5 8 -9 -74 -80 -101 -87 -12 -3 -23 -15 -25 -25 -3 -16 -1 -17 12 -7
25 21 32 -6 8 -29 -12 -11 -21 -30 -21 -42 0 -22 1 -22 20 3 l20 25 0 -35 c0
-19 7 -44 15 -54 13 -17 15 -17 21 -2 3 9 -1 28 -11 42 -9 14 -14 28 -11 31 3
3 8 -2 12 -11 3 -9 10 -16 15 -16 16 0 10 23 -13 47 -28 30 -16 41 13 12 15
-15 24 -19 27 -10 2 6 -8 23 -23 37 l-27 25 55 55 c31 30 59 54 62 54 14 0 2
-35 -20 -62 -14 -17 -23 -33 -20 -37 4 -3 12 2 19 12 7 9 16 17 20 17 12 0 6
-34 -11 -52 -13 -14 -14 -23 -5 -40 l11 -23 0 23 c1 30 21 28 21 -2 0 -24 25
-54 36 -43 3 3 -1 20 -10 38 -21 42 -20 46 4 24 18 -16 20 -16 20 -2 0 9 -8
21 -19 26 -10 6 -21 20 -24 31 -6 24 5 26 23 5 7 -8 17 -15 23 -15 6 0 -4 15
-21 33 -37 38 -35 63 6 74 19 4 44 -3 90 -27 57 -30 68 -32 95 -22 20 8 34 8
42 2 7 -6 20 -8 28 -4 30 11 39 -8 11 -22 -20 -11 -29 -11 -34 -3 -9 14 -42 8
-48 -9 -2 -7 0 -12 5 -11 29 5 36 -2 15 -17 -15 -10 -32 -14 -48 -10 -26 7
-54 -7 -54 -26 0 -5 15 -8 33 -6 28 3 32 0 35 -24 6 -49 32 -26 32 27 0 13 5
27 11 30 6 4 9 -2 8 -17 -1 -12 -1 -32 0 -43 2 -32 21 3 21 40 0 17 5 36 12
43 13 13 48 17 48 6 0 -10 -73 -151 -127 -244 -123 -215 -199 -330 -215 -330
-10 0 -18 -4 -18 -9 0 -14 -81 -89 -132 -123 -53 -35 -100 -46 -91 -22 3 8 -1
14 -8 14 -9 1 -7 6 6 16 26 19 28 69 4 113 -12 23 -15 39 -9 45 13 13 13 29 0
21 -5 -3 -10 0 -10 8 0 16 -48 19 -101 6 -41 -10 -70 -43 -114 -131 -15 -32
-37 -60 -48 -64 -14 -4 -16 -8 -8 -14 9 -5 4 -14 -16 -28 l-28 -21 25 -1 c23
-1 24 -2 8 -14 -25 -19 -22 -24 10 -18 23 4 25 3 15 -9 -8 -10 -9 -20 -3 -29
9 -13 10 -13 10 0 0 13 1 13 10 0 6 -9 10 -10 10 -3 0 16 59 77 67 69 3 -3 9
-38 13 -78 4 -40 13 -85 19 -100 7 -19 7 -36 0 -54 -9 -26 2 -83 21 -109 4 -5
9 -18 11 -29 4 -19 118 -69 188 -82 19 -4 45 -19 58 -33 22 -24 24 -25 37 -8
14 19 51 23 61 7 9 -15 81 -50 103 -50 10 0 28 -9 40 -20 20 -19 48 -21 125
-11 17 2 5 31 -13 31 -11 0 -20 5 -20 10 0 6 5 10 11 10 5 0 7 5 3 11 -3 6
-17 8 -30 5 -14 -4 -24 -2 -24 5 0 7 -11 8 -29 4 -22 -5 -46 2 -93 25 -35 17
-71 39 -80 47 -20 17 -24 58 -8 68 22 13 8 25 -29 25 -22 0 -42 4 -46 10 -7
11 99 250 126 284 11 13 19 31 19 39 0 15 63 133 155 292 29 50 82 146 118
215 126 244 130 250 155 250 32 0 125 -47 169 -85 l37 -31 -42 -17 c-24 -9
-58 -17 -77 -17 -31 0 -34 3 -37 33 -3 37 -21 43 -26 10 -4 -28 -7 -28 -32 -3
-11 11 -25 20 -30 20 -16 0 7 -38 31 -50 16 -9 18 -14 8 -26 -19 -23 -2 -29
27 -10 28 19 40 16 31 -9 -4 -8 -15 -15 -26 -15 -32 0 -51 -28 -51 -75 0 -44
0 -44 26 -35 25 10 26 9 20 -16 -7 -28 0 -64 14 -64 15 0 21 39 10 60 -17 31
-4 37 19 9 15 -18 20 -20 21 -8 0 9 -9 24 -20 34 -11 10 -20 27 -20 37 0 17 1
18 25 2 30 -20 35 -2 8 28 -23 25 -8 49 38 63 19 5 40 14 48 19 11 7 13 5 8
-8 -4 -10 -7 -20 -7 -22 0 -3 -11 -9 -25 -14 -16 -6 -25 -17 -25 -31 0 -21 1
-22 20 -4 15 14 20 15 20 4 0 -8 -9 -20 -20 -27 -11 -7 -20 -20 -20 -29 0 -14
2 -14 20 2 20 18 20 17 20 -16 0 -34 14 -59 33 -59 4 0 7 10 5 23 -2 12 -8 21
-14 20 -5 -1 -10 7 -11 18 -2 17 0 18 23 3 30 -20 33 -1 4 23 -11 10 -20 27
-19 38 0 19 1 18 9 -2 10 -25 40 -32 40 -10 0 7 -12 23 -26 36 -20 18 -23 25
-14 37 19 21 31 17 75 -24 81 -77 165 -208 165 -256 0 -8 16 -33 35 -56 28
-33 34 -47 29 -68 -9 -36 -11 -37 -24 -13 -11 22 -30 28 -30 10 0 -6 9 -22 20
-36 11 -14 20 -30 20 -36 0 -17 -31 16 -51 55 -11 21 -24 38 -30 38 -7 0 -9
12 -5 34 5 24 2 37 -9 46 -16 13 -20 6 -15 -33 1 -16 -2 -17 -19 -7 -12 6 -21
19 -21 29 0 20 -27 48 -37 38 -3 -4 0 -13 7 -22 15 -18 9 -19 -24 -4 -30 14
-70 4 -46 -11 8 -6 29 -10 45 -10 29 -1 30 -1 6 -11 -19 -7 -22 -12 -12 -22 9
-9 16 -9 31 1 20 12 50 7 50 -9 0 -5 -6 -9 -14 -9 -7 0 -19 -6 -25 -14 -9 -11
-7 -15 11 -21 20 -6 21 -8 5 -12 -11 -3 -28 4 -41 16 -27 25 -51 28 -42 5 3
-9 6 -18 6 -20 0 -2 7 -4 17 -4 27 0 4 -14 -24 -15 -17 0 -28 -7 -34 -21 -6
-18 -4 -21 12 -17 11 3 22 9 25 14 10 17 22 9 17 -12 -8 -31 18 -20 35 14 14
29 20 31 40 18 10 -6 9 -10 -7 -14 -12 -3 -21 -10 -21 -16 0 -16 21 -13 41 5
16 14 23 15 49 4 29 -12 85 -68 77 -76 -9 -9 -35 9 -40 27 -3 10 -11 19 -17
19 -7 0 -10 -8 -7 -20 6 -24 -15 -27 -33 -5 -13 16 -40 21 -40 7 0 -4 5 -13
11 -19 7 -7 1 -12 -20 -16 -18 -4 -31 -13 -31 -22 0 -19 10 -19 37 0 20 14 21
13 16 -5 -7 -26 1 -25 27 2 l20 22 0 -24 0 -23 25 23 c29 27 51 21 70 -17 6
-12 17 -28 24 -37 14 -17 10 -19 -26 -17 -11 1 -24 -3 -28 -8 -4 -7 5 -11 21
-11 23 0 26 -2 15 -12 -6 -7 -24 -13 -38 -13 -14 0 -28 -6 -31 -14 -3 -9 1
-11 16 -7 16 5 22 0 30 -24 6 -16 15 -30 21 -30 5 0 5 12 -2 30 -9 23 -8 33 1
42 9 9 12 6 12 -16 0 -15 4 -25 10 -21 5 3 9 20 7 38 -1 23 3 32 16 35 30 6
64 -34 71 -84 3 -24 9 -65 12 -90 6 -37 2 -56 -17 -95 -23 -46 -39 -62 -39
-38 0 19 -55 79 -72 79 -10 0 -18 -4 -18 -10 0 -5 6 -10 14 -10 11 0 13 -11
10 -43 l-4 -42 15 28 c20 34 26 34 48 -4 24 -43 22 -48 -23 -42 -25 4 -40 2
-40 -5 0 -15 22 -21 42 -11 22 12 32 -5 13 -21 -17 -14 -20 -40 -5 -40 6 0 13
7 16 15 9 22 19 18 32 -11 8 -15 9 -32 3 -42 -4 -9 -11 -62 -14 -117 -6 -122
-33 -196 -69 -192 -17 1 -27 -7 -43 -38 -11 -22 -24 -43 -28 -46 -4 -3 -5 -12
-2 -21 3 -8 -1 -21 -10 -28 -18 -15 -23 -12 -28 16 -6 31 -18 54 -29 54 -5 0
-6 -4 -3 -10 3 -5 1 -10 -5 -10 -6 0 -14 -10 -19 -22 -9 -23 -9 -22 -21 7 -28
68 -33 76 -44 65 -8 -8 -7 -13 3 -19 8 -5 19 -25 26 -45 l12 -35 -36 29 c-19
17 -39 30 -44 30 -5 0 5 -12 22 -26 35 -30 42 -53 9 -30 -29 21 -48 21 -22 0
18 -15 18 -15 -9 -9 -17 3 -26 2 -23 -4 6 -10 -19 -23 -28 -14 -3 3 -1 14 5
25 12 23 2 39 -11 18 -5 -8 -12 -11 -16 -7 -4 4 3 19 17 34 13 14 18 23 12 19
-7 -4 -13 -2 -13 3 0 6 5 11 11 11 6 0 9 6 6 14 -3 8 -1 16 4 18 6 2 7 11 4
20 -4 9 -13 14 -21 11 -8 -3 -14 0 -14 6 0 18 -24 12 -38 -9 -14 -23 -8 -40
14 -40 8 0 14 -9 14 -20 0 -17 -3 -19 -19 -11 -10 6 -21 7 -25 3 -4 -3 -11 0
-16 8 -8 12 -10 11 -10 -5 0 -11 -15 -30 -33 -42 -35 -25 -59 -31 -39 -11 19
19 14 28 -18 28 -16 0 -30 -4 -30 -10 0 -5 5 -10 10 -10 6 0 10 -4 10 -10 0
-5 -8 -7 -17 -4 -12 4 -9 -1 7 -15 l25 -20 -39 6 c-28 4 -37 3 -32 -5 4 -7 2
-12 -3 -12 -6 0 -11 5 -11 11 0 5 -5 7 -10 4 -5 -3 -10 1 -10 9 0 9 -4 16 -10
16 -5 0 -10 -6 -10 -12 0 -7 -4 -20 -10 -28 -7 -12 -12 -11 -29 9 -16 18 -22
20 -26 10 -3 -8 -18 -14 -34 -15 -29 -1 -29 -1 -15 32 16 39 18 58 4 49 -5 -3
-10 -14 -10 -24 0 -10 -7 -24 -15 -31 -10 -9 -15 -9 -15 -1 0 6 -8 11 -17 11
-13 0 -14 -3 -5 -12 7 -7 12 -18 12 -26 0 -12 -3 -12 -17 -1 -15 12 -16 12
-10 -3 9 -26 0 -22 -35 12 -34 35 -43 38 -28 11 15 -29 12 -39 -5 -17 -14 19
-15 19 -15 2 0 -15 -3 -16 -15 -6 -13 11 -14 10 -9 -5 5 -13 4 -16 -4 -11 -7
4 -12 14 -12 22 0 8 -4 14 -10 14 -5 0 -10 9 -10 20 0 14 -5 18 -17 13 -12 -5
-15 -2 -11 8 3 8 9 21 13 30 4 11 0 18 -14 22 -23 6 -51 -20 -34 -31 10 -7 33
-46 33 -56 0 -3 -6 -3 -14 0 -11 4 -13 0 -9 -15 6 -22 -3 -26 -26 -12 -10 7
-11 13 -2 30 10 18 9 20 -5 14 -15 -5 -16 -1 -12 28 5 28 2 38 -13 47 -16 10
-19 9 -19 -3 0 -8 -6 -15 -12 -15 -8 -1 -6 -6 5 -14 21 -16 22 -30 2 -22 -22
8 -18 -3 8 -26 15 -13 17 -18 6 -15 -13 4 -15 1 -12 -14 4 -13 0 -19 -11 -19
-10 0 -16 9 -16 23 -1 19 -2 18 -14 -8 -12 -26 -15 -28 -21 -12 -6 15 -10 16
-17 5 -7 -10 -11 -10 -14 -1 -3 7 -12 9 -20 6 -10 -4 -14 3 -14 23 -1 27 -2
27 -14 11 -13 -16 -14 -16 -20 5 -5 14 -9 18 -13 11 -2 -7 -11 -13 -19 -13 -9
0 -12 -5 -9 -10 3 -6 -1 -18 -10 -27 -14 -14 -18 -14 -26 -2 -6 10 -9 10 -9 2
0 -7 -5 -13 -11 -13 -6 0 -8 9 -4 21 5 15 4 19 -4 15 -7 -5 -11 2 -11 17 0 16
-7 26 -20 30 -24 6 -27 -17 -5 -39 29 -29 5 -50 -24 -21 -11 10 -12 7 -6 -13
l6 -25 -21 25 c-15 17 -20 19 -16 8 3 -10 1 -18 -5 -18 -6 0 -8 -4 -5 -9 4 -5
-3 -7 -14 -4 -11 3 -20 13 -20 23 0 18 -19 30 -46 30 -7 0 -17 -12 -20 -26 -5
-19 -9 -22 -15 -12 -5 7 -9 8 -9 2 0 -6 -7 -11 -15 -11 -8 0 -15 4 -15 9 0 4
-7 8 -15 8 -8 0 -15 -4 -15 -10 0 -20 -41 -3 -70 30 -27 30 -30 41 -30 97 0
35 0 66 -1 71 0 4 8 8 18 10 20 3 61 21 79 34 9 6 4 32 -18 94 -26 74 -28 89
-18 109 7 13 13 42 14 64 1 44 9 49 40 26 11 -8 28 -15 38 -15 43 0 143 95
145 138 2 30 -11 28 -37 -5 l-21 -28 7 25 c3 14 13 33 21 42 11 13 13 24 6 45
-13 37 -26 36 -34 -3 -3 -17 -21 -52 -39 -77 -32 -46 -33 -46 -61 -31 -17 8
-29 23 -29 34 0 11 -3 20 -7 20 -5 0 -19 10 -33 21 l-25 20 30 -6 c26 -4 33
-1 53 28 12 18 22 42 22 53 0 11 7 29 15 40 8 10 15 25 15 32 0 21 -54 73 -78
75 -15 1 -23 10 -28 30 -5 25 -9 28 -32 22 -15 -4 -30 -11 -33 -17 -4 -7 -9
-6 -13 1 -10 16 -36 13 -36 -4 0 -8 -4 -15 -10 -15 -5 0 -10 -7 -10 -16 0 -11
6 -15 20 -11 23 6 28 -11 5 -19 -14 -6 -28 -35 -29 -62 -1 -7 -7 -16 -15 -21
-9 -6 -10 -11 -2 -15 6 -4 11 -18 11 -32 0 -14 7 -27 15 -30 20 -8 19 -23 -2
-31 -29 -11 -55 -44 -50 -64 3 -10 -4 -35 -14 -56 -10 -20 -19 -43 -19 -49 0
-7 -8 -10 -19 -7 -14 3 -22 -4 -32 -27 -14 -31 -15 -32 -66 -26 -40 5 -55 2
-67 -10 -9 -8 -14 -20 -11 -25 10 -15 25 -10 25 7 0 12 6 15 22 10 13 -3 30
-6 37 -6 26 0 -5 -23 -35 -26 -30 -3 -62 -29 -51 -41 4 -3 13 -1 19 5 7 7 22
12 34 12 13 0 26 5 29 10 3 6 11 10 17 10 7 0 -1 -13 -17 -30 -16 -16 -37 -30
-47 -30 -37 0 -11 -69 43 -115 32 -26 32 -27 15 -56 -9 -16 -23 -51 -31 -77
-8 -27 -24 -57 -35 -67 -24 -22 -25 -38 -5 -55 8 -7 15 -18 15 -24 0 -7 -3 -6
-9 2 -8 13 -32 13 -42 -1 -8 -11 -59 10 -59 25 0 9 -3 8 -10 -2 -7 -12 -10 -8
-10 15 0 40 -43 83 -65 65 -8 -7 -15 -8 -15 -3 0 5 -6 17 -13 27 -12 16 -13
13 -9 -20 3 -32 2 -37 -9 -27 -20 20 -31 15 -19 -8 13 -22 4 -42 -9 -21 -4 7
-14 12 -22 10 -8 -2 -15 7 -17 20 -2 12 -8 20 -13 17 -5 -4 -9 3 -9 13 0 21
-26 49 -36 39 -4 -3 -3 -14 1 -24 5 -10 8 -21 7 -25 -1 -4 7 -12 18 -18 26
-14 26 -34 0 -27 -25 6 -25 0 -3 -26 10 -11 12 -17 6 -13 -7 4 -13 2 -13 -3 0
-6 -7 -11 -15 -11 -11 0 -13 7 -9 29 4 17 1 32 -6 36 -7 4 -11 1 -9 -6 3 -26
-1 -39 -12 -39 -6 0 -10 15 -9 33 3 51 0 65 -10 42 -7 -19 -8 -19 -15 -2 -5
12 1 25 19 42 32 30 40 72 13 67 -15 -3 -17 1 -12 17 7 24 -4 32 -34 24 -16
-4 -21 -11 -18 -24 3 -11 -2 -19 -15 -22 -16 -5 -18 -9 -8 -27 6 -11 15 -18
21 -15 5 4 9 -6 9 -20 0 -15 -4 -24 -10 -20 -18 11 -11 -8 13 -33 l22 -24 -22
6 c-33 10 -28 -6 7 -26 17 -9 30 -22 30 -29 0 -7 -9 -6 -25 5 -28 18 -39 21
-30 6 3 -5 2 -10 -4 -10 -5 0 -13 4 -16 10 -3 5 -14 10 -23 10 -16 -1 -16 -1
1 -11 10 -6 17 -22 17 -39 l0 -30 453 0 c248 0 673 4 942 10 487 9 1443 21
1730 20 83 0 254 -4 380 -10 336 -14 435 -13 435 4 0 17 -49 58 -60 51 -4 -3
-10 5 -13 16 -3 12 -10 18 -16 14 -7 -4 -11 5 -11 24 0 22 -7 35 -26 47 -17
11 -21 19 -14 24 9 6 9 13 -1 31 -7 13 -12 30 -11 36 2 7 -4 13 -13 13 -8 0
-15 8 -15 18 0 9 -9 31 -19 49 -18 28 -18 33 -5 44 13 11 9 15 -27 32 -41 18
-42 20 -23 33 10 8 28 22 39 31 18 16 19 18 3 21 -28 5 -22 32 7 32 36 0 31
26 -10 52 -20 13 -38 33 -41 45 -3 12 -13 28 -22 37 -20 17 -128 30 -137 16
-4 -6 -12 -7 -18 -3 -7 4 -6 0 2 -10 14 -18 10 -20 -26 -17 -31 2 -30 -25 2
-46 22 -14 24 -22 19 -50 -5 -30 -4 -33 12 -27 14 5 16 3 11 -10 -8 -22 22
-87 40 -87 7 0 13 -4 13 -10 0 -5 -4 -10 -9 -10 -12 0 -41 -29 -41 -40 0 -5 7
-7 15 -4 11 5 13 2 9 -10 -8 -21 -11 -20 -51 7 -27 18 -33 28 -33 60 0 27 -4
36 -12 31 -7 -5 -9 -2 -5 9 7 18 -23 34 -33 17 -4 -6 -14 -8 -22 -5 -10 4 -17
-1 -22 -17 -9 -34 -8 -38 9 -38 8 0 14 -6 13 -12 -2 -7 7 -14 20 -16 13 -2 22
2 22 10 0 8 4 7 11 -4 6 -12 7 -24 0 -36 -7 -13 -7 -22 1 -30 8 -8 7 -20 -5
-44 -17 -36 -15 -47 7 -29 11 9 15 9 19 -1 2 -7 7 -10 11 -7 4 3 2 18 -3 32
-13 34 2 43 33 20 20 -15 25 -26 23 -60 -1 -37 -4 -42 -31 -47 -16 -3 -35 -1
-43 5 -21 18 -63 19 -70 3 -3 -8 -11 -14 -18 -14 -7 0 -16 -7 -19 -16 -9 -24
-7 -29 6 -16 22 22 32 12 10 -11 -11 -12 -23 -33 -27 -47 -5 -20 -12 -25 -36
-24 -17 0 -34 7 -39 14 -6 10 -9 9 -13 -1 -4 -12 -6 -12 -6 0 -1 11 -6 10 -21
-4 -20 -18 -21 -18 -35 1 -13 18 -14 18 -15 1 0 -15 -3 -16 -22 -5 -13 7 -26
11 -30 10 -12 -3 -10 6 8 34 9 13 14 27 10 31 -3 3 0 13 7 21 10 13 9 15 -5 9
-10 -3 -18 -2 -18 4 0 6 9 13 20 16 24 6 24 12 5 37 -15 20 -15 19 -35 -2 -12
-12 -16 -23 -10 -27 15 -9 1 -27 -16 -21 -20 7 -17 -4 4 -20 16 -13 16 -13 -1
-14 -16 0 -17 -2 -3 -21 14 -21 12 -49 -5 -49 -5 0 -9 7 -9 15 0 9 -6 12 -15
9 -10 -4 -15 0 -15 14 0 11 -3 28 -7 38 -6 16 -7 16 -14 -2 -7 -18 -8 -18 -8
1 -1 18 51 75 68 75 12 0 5 54 -7 58 -7 2 -12 -2 -12 -9 0 -10 -3 -10 -12 -1
-18 18 -28 15 -28 -8 0 -11 -4 -20 -10 -20 -5 0 -10 10 -10 21 0 18 -2 19 -15
9 -13 -10 -15 -9 -15 9 0 11 3 20 8 20 23 -4 29 4 28 34 -1 28 -5 32 -31 32
-23 -1 -31 -7 -38 -30 -7 -21 -7 -30 2 -33 19 -6 12 -20 -11 -24 -14 -2 -24
-12 -28 -28 -14 -57 -21 57 -19 318 1 169 -3 279 -9 301 -9 26 -8 39 3 61 19
37 39 43 67 20 22 -17 22 -19 5 -37 -9 -11 -17 -27 -17 -37 0 -14 4 -15 20 -6
11 6 20 18 20 27 0 13 3 14 11 6 12 -12 9 -25 -17 -61 -15 -20 -15 -22 0 -22
9 0 16 8 16 17 0 13 3 14 12 5 9 -9 9 -18 0 -37 -12 -25 -7 -55 8 -55 14 0 22
39 15 72 -7 30 -6 31 9 15 10 -9 22 -17 27 -17 18 0 8 20 -26 51 -41 38 -43
46 -12 51 33 5 22 23 -17 26 -34 3 -65 26 -52 39 4 4 27 2 51 -5 25 -7 54 -12
65 -12 26 0 33 -15 20 -41 -9 -16 -9 -24 -1 -32 9 -9 13 -6 17 11 8 29 26 29
24 0 -3 -36 -1 -48 9 -48 5 0 11 10 13 23 2 14 11 23 26 25 29 4 18 22 -14 22
-13 0 -24 4 -24 10 0 5 6 7 14 4 19 -7 32 16 15 26 -7 5 -25 6 -40 3 -35 -7
-45 11 -13 26 21 9 29 8 54 -11 38 -27 51 -16 20 17 -22 23 -22 25 -4 25 10 0
25 -9 32 -20 13 -21 32 -27 32 -11 0 5 -7 17 -16 26 -15 14 -13 15 25 9 27 -4
41 -3 41 4 0 19 -34 31 -54 20 -9 -5 -21 -7 -24 -3 -4 4 1 11 11 16 17 10 24
39 9 39 -12 0 -42 -34 -42 -47 0 -6 -7 -14 -16 -17 -27 -10 -5 35 39 82 34 35
48 42 78 42 47 0 58 -15 30 -41 -24 -22 -29 -51 -7 -43 7 3 18 15 24 27 l11
22 0 -23 c1 -13 -8 -36 -20 -50 -13 -17 -16 -28 -9 -30 6 -2 18 4 25 14 12 16
14 16 15 3 0 -8 -5 -20 -11 -26 -7 -7 -9 -23 -5 -38 7 -26 8 -27 21 -9 8 11
15 32 15 48 0 23 3 27 12 18 17 -17 38 -15 38 4 0 9 -13 21 -30 27 -18 7 -30
19 -30 29 0 21 11 23 28 6 7 -7 12 -8 12 -2 -1 14 -26 44 -37 44 -6 0 -16 7
-23 15 -11 13 -7 15 23 15 24 0 46 -9 67 -26 17 -15 34 -23 38 -19 4 3 -2 13
-12 21 -24 17 -15 28 13 19 12 -3 21 -15 21 -25 0 -10 5 -22 10 -25 6 -3 10 3
10 14 0 25 13 27 30 6 7 -8 19 -15 27 -15 24 0 -4 39 -34 46 -21 6 -23 8 -9
16 17 10 22 38 6 38 -6 0 -19 -9 -30 -20 -11 -11 -29 -20 -41 -20 -19 0 -19 1
-5 16 20 20 20 34 1 34 -8 0 -24 9 -35 20 l-20 20 22 9 c14 5 28 5 35 -1 7 -6
25 -7 40 -3 27 6 27 7 9 20 -10 8 -22 13 -25 11 -12 -7 -29 21 -21 34 11 18 1
40 -17 40 -12 0 -15 -8 -10 -39 4 -36 -4 -51 -27 -51 -1 0 -1 13 2 30 2 16 0
30 -5 30 -16 0 -33 -24 -33 -47 0 -14 -7 -26 -17 -29 -10 -3 -26 -10 -35 -15
-14 -7 -18 -5 -18 11 0 13 10 24 25 30 33 12 32 24 -1 17 -24 -4 -26 -3 -20
25 9 46 36 95 60 111 12 8 39 17 61 20 22 3 52 9 68 12 39 10 60 -10 52 -52
-7 -37 11 -46 23 -12 7 18 10 19 21 6 8 -10 9 -17 1 -22 -13 -8 -13 -45 0 -45
6 0 10 6 10 14 0 16 21 26 56 26 14 0 22 4 19 10 -3 6 -19 10 -34 10 -16 0
-34 7 -42 16 -11 13 -9 14 14 9 15 -4 27 -3 27 2 0 12 -49 35 -59 28 -5 -2
-17 2 -27 10 -17 12 -18 14 -2 20 10 4 27 0 40 -9 29 -20 62 -22 36 -2 -10 7
-18 16 -18 20 0 14 35 5 57 -16 28 -26 43 -16 18 12 -19 21 -19 21 26 14 l44
-7 -19 22 c-15 17 -26 20 -49 15 -27 -5 -28 -5 -16 15 7 11 10 23 6 27 -10 10
-37 -16 -37 -36 0 -10 -7 -21 -16 -24 -12 -5 -15 -2 -9 11 3 10 7 20 8 23 1 3
-2 7 -8 10 -5 2 -16 -8 -23 -22 -14 -30 -53 -45 -138 -55 l-51 -5 -1 37 c-1
20 -6 43 -12 50 -8 9 -6 14 5 19 18 7 20 46 2 46 -7 0 -18 -5 -25 -12 -9 -9
-15 -9 -23 -1 -8 8 -3 22 22 52 34 43 58 51 78 27 16 -19 51 -27 51 -12 0 18
-22 36 -44 36 -20 1 -20 1 -2 12 16 9 23 6 45 -21 14 -17 29 -31 34 -31 13 0
8 23 -10 42 -9 11 -11 18 -5 18 7 0 12 -4 12 -10 0 -5 11 -10 25 -10 14 0 25
4 25 10 0 13 -36 31 -52 25 -10 -4 -12 5 -10 40 4 50 -7 71 -41 78 -22 4 -22
4 1 6 28 1 29 18 0 27 -16 5 -27 1 -39 -15 -9 -11 -23 -21 -30 -21 -10 0 -10
3 -1 12 16 16 15 28 -3 28 -8 0 -22 -14 -31 -31 -11 -23 -19 -28 -27 -20 -17
17 -27 13 -27 -8 0 -19 -43 -61 -61 -61 -19 0 -7 36 19 57 l27 22 -25 1 -25 1
24 20 c13 11 21 22 18 26 -4 3 -13 1 -20 -5 -18 -16 -27 -5 -27 32 1 35 15 57
47 74 30 16 29 17 57 -24 22 -33 46 -36 25 -4 -12 21 -11 32 4 28 6 -3 14 -18
17 -34 6 -34 25 -30 25 4 -1 25 3 22 31 -25 7 -10 15 -15 19 -11 13 13 -5 57
-26 63 -16 5 -18 10 -8 21 26 31 74 14 89 -32 13 -37 26 -44 34 -16 3 9 4 0 3
-20 -2 -21 1 -38 5 -38 4 0 8 5 8 10 0 6 5 10 10 10 6 0 8 -10 5 -22 -3 -13
-1 -30 5 -38 9 -13 11 -13 20 0 10 15 9 28 -5 64 -8 18 -7 18 17 2 13 -9 28
-13 31 -9 10 9 -23 43 -43 43 -9 0 -24 6 -35 14 -17 12 -16 13 10 20 l28 7
-22 15 c-13 10 -32 13 -46 10 -13 -3 -31 -3 -40 0 -13 5 -10 10 15 25 37 23
54 24 86 3 33 -22 46 -8 15 17 l-23 19 26 0 c14 0 26 -4 26 -9 0 -10 31 -24
38 -16 3 2 -1 12 -9 21 -12 15 -11 16 18 10 33 -8 73 7 73 26 0 7 -18 9 -51 6
-35 -4 -47 -2 -40 5 17 17 13 27 -9 27 -12 0 -25 -10 -32 -25 -6 -14 -15 -25
-19 -25 -4 0 -14 -3 -22 -6 -12 -4 -14 0 -10 14 2 11 0 23 -7 27 -15 9 -19 4
-23 -26 -2 -16 -16 -30 -40 -42 -31 -16 -42 -17 -72 -7 -43 14 -61 36 -21 26
38 -9 54 4 25 20 l-24 12 26 11 c16 6 28 19 31 35 3 14 2 26 -1 26 -12 -1 -48
-36 -56 -55 -7 -18 -9 -17 -14 9 -7 35 -31 47 -31 16 0 -12 5 -30 10 -40 6
-11 6 -21 1 -24 -5 -3 -11 3 -14 14 -6 24 -27 27 -27 4 0 -8 5 -24 11 -35 14
-27 0 -42 -49 -57 -21 -6 -53 -27 -72 -47 -19 -19 -37 -35 -41 -35 -12 0 1 70
22 119 11 24 19 52 19 63 0 15 5 18 20 13 25 -8 27 10 3 24 -10 5 -15 13 -11
17 4 4 14 1 22 -5 11 -9 20 -10 33 -2 17 9 17 10 1 16 -26 10 -22 23 6 18 27
-6 44 13 27 30 -9 9 -16 8 -31 -1 -26 -16 -27 -16 -33 9 -7 27 -29 15 -26 -14
2 -38 0 -41 -21 -22 -26 23 -37 13 -22 -20 13 -28 16 -84 6 -109 -9 -23 -27
-20 -21 3 2 10 1 25 -4 32 -7 11 -9 11 -9 1 0 -7 -5 -10 -11 -6 -6 3 -8 16 -5
29 6 25 -17 54 -29 35 -3 -5 -3 -16 0 -22 4 -7 -2 -3 -13 10 -26 28 -52 30
-45 2 3 -11 14 -20 24 -20 11 0 19 -4 19 -10 0 -5 -4 -10 -10 -10 -5 0 -10 -7
-10 -15 0 -13 4 -14 20 -5 21 11 40 6 40 -11 0 -6 -4 -7 -10 -4 -5 3 -18 2
-27 -4 -17 -9 -17 -10 0 -16 9 -4 24 -4 32 -1 19 7 28 -13 23 -46 -4 -22 -5
-22 -13 -3 -9 21 -24 35 -38 35 -4 0 -3 -9 3 -19 14 -27 13 -29 -17 -25 -15 1
-36 -4 -45 -13 -17 -15 -18 -15 -18 1 0 9 11 21 25 26 14 5 25 17 25 25 0 13
-4 14 -20 5 -11 -6 -20 -7 -20 -1 0 5 7 11 15 15 17 6 20 32 5 41 -5 3 -17
-10 -26 -29 -16 -32 -18 -33 -33 -18 -15 14 -16 14 -19 -2 -2 -10 6 -28 17
-40 22 -23 30 -49 9 -28 -29 29 -39 1 -11 -30 15 -17 15 -19 -3 -33 -25 -19
-32 -19 -30 1 0 9 -5 19 -13 22 -11 4 -12 -3 -7 -34 7 -34 6 -36 -8 -24 -9 7
-19 11 -21 8 -10 -9 7 -38 22 -38 21 0 12 -34 -10 -38 -50 -10 -60 47 -20 115
34 58 41 97 53 266 10 167 17 180 89 170 42 -6 45 -5 32 10 -7 10 -20 17 -27
17 -22 0 -16 18 11 36 15 10 25 26 25 41 0 33 -19 25 -41 -16 -20 -37 -33 -53
-24 -29 4 9 2 19 -4 22 -6 4 -13 -9 -17 -29 -6 -34 -20 -53 -30 -42 -3 3 -1
22 5 43 15 54 123 164 161 164 30 0 44 -12 55 -48 5 -18 2 -27 -14 -38 -12 -9
-21 -22 -21 -30 0 -12 4 -12 25 2 16 10 25 12 25 5 0 -6 -11 -16 -24 -23 -28
-12 -43 -38 -23 -38 7 0 19 6 26 13 11 10 12 6 7 -18 -4 -19 -1 -37 7 -49 14
-19 15 -19 25 0 7 13 7 26 1 35 -17 27 -9 39 12 18 32 -32 35 -14 5 26 -15 19
-23 35 -17 35 5 0 13 -4 16 -10 7 -12 45 -13 45 -2 0 5 -17 17 -37 28 -45 23
-67 77 -30 72 12 -2 22 -10 23 -18 2 -32 5 -34 19 -10 l14 25 1 -26 c0 -15 6
-32 14 -38 12 -10 15 -7 18 21 l4 33 12 -28 c11 -27 37 -45 48 -34 12 12 -9
49 -34 60 l-27 11 27 4 c14 2 29 10 32 18 7 18 -8 18 -45 -2 -17 -8 -34 -12
-37 -8 -4 4 -1 9 6 11 16 6 36 43 23 43 -5 0 -24 -12 -41 -26 -29 -25 -34 -26
-71 -15 -42 13 -53 31 -18 31 11 0 34 10 51 21 16 12 56 30 89 40 67 21 109
13 109 -20 0 -24 35 -68 43 -54 4 6 -3 22 -14 37 -11 14 -16 26 -10 26 16 0
41 -42 41 -68 0 -13 -7 -30 -15 -39 -19 -18 -9 -39 11 -22 8 7 14 7 14 1 0 -5
-7 -15 -15 -22 -17 -14 -20 -50 -5 -50 6 0 10 5 10 10 0 6 4 10 9 10 5 0 7 -9
4 -19 -3 -13 2 -23 15 -30 28 -15 39 4 18 28 -18 20 -22 41 -4 23 7 -7 19 -12
27 -12 10 0 3 12 -19 35 -19 19 -29 35 -23 35 7 0 15 -4 18 -10 8 -13 35 -13
35 0 0 5 -13 16 -29 24 -16 9 -32 27 -35 42 -9 33 -8 33 27 27 22 -4 26 -9 21
-25 -5 -18 10 -48 26 -48 5 0 7 11 5 25 -1 15 2 24 8 22 6 -2 11 -13 12 -25 1
-13 7 -28 13 -34 9 -9 12 -6 12 15 0 15 5 27 10 27 6 0 10 -13 10 -29 0 -16 6
-34 14 -40 17 -14 29 0 20 23 -11 28 10 17 28 -14 14 -25 23 -30 54 -30 l38 0
-29 30 c-16 17 -37 30 -46 30 -26 0 -32 17 -8 23 35 9 11 27 -39 28 -26 1 -37
4 -24 6 12 2 27 13 32 24 9 16 7 19 -13 19 -14 0 -30 -7 -37 -15 -7 -8 -20
-15 -28 -15 -12 0 -11 4 6 16 21 14 31 44 15 44 -5 0 -21 -11 -38 -24 -34 -27
-60 -23 -121 18 -21 14 -47 26 -56 26 -25 0 -22 12 7 40 24 23 25 23 25 3 0
-12 7 -24 16 -27 23 -9 28 -1 15 22 -14 26 -14 42 -1 42 6 0 10 -9 10 -20 0
-11 5 -20 10 -20 6 0 10 9 10 20 0 11 5 20 11 20 6 0 9 -6 6 -12 -6 -17 10
-48 24 -48 7 0 9 10 5 28 l-7 27 16 -22 c15 -22 65 -33 65 -15 0 15 -36 42
-56 42 -17 0 -16 1 4 16 45 31 17 36 -51 9 -17 -7 -18 -6 -6 13 22 36 -1 39
-30 5 -34 -41 -49 -42 -43 -4 2 16 -1 32 -7 35 -13 8 -25 -36 -17 -62 5 -14
-4 -29 -33 -55 -49 -44 -103 -57 -131 -32 -11 10 -20 23 -19 29 3 23 -1 36
-11 36 -5 0 -10 -9 -10 -20 0 -21 -15 -27 -25 -10 -8 13 -35 13 -35 1 0 -5 9
-13 21 -16 l21 -7 -21 -15 c-12 -8 -21 -18 -21 -24 0 -14 26 -11 40 6 16 19
50 20 50 1 0 -19 -38 -42 -91 -56 -24 -7 -50 -17 -56 -22 -21 -17 -16 4 21 82
31 67 37 74 78 90 40 15 46 15 55 2 6 -10 16 -13 27 -9 18 7 18 8 0 28 -10 11
-18 31 -19 45 0 35 -18 31 -31 -6 -10 -31 -40 -58 -51 -46 -10 9 7 50 32 78
20 24 28 26 49 18 27 -10 34 -34 15 -46 -7 -4 1 -14 20 -27 35 -21 52 -17 31
8 -12 14 -10 15 11 10 31 -8 63 20 35 31 -9 3 -27 3 -41 0 -23 -6 -24 -4 -20
28 4 29 1 36 -16 41 -12 4 -26 2 -32 -4 -17 -17 -25 -13 -20 12 3 14 16 27 34
34 28 11 48 38 36 50 -4 3 -18 -2 -32 -11 -19 -13 -25 -13 -25 -3 0 7 5 18 11
24 8 8 7 17 -1 34 -12 22 -13 22 -27 3 -9 -12 -12 -31 -8 -54 4 -25 3 -31 -4
-20 -11 16 -51 23 -51 8 0 -4 11 -14 25 -20 18 -8 25 -19 24 -37 -1 -21 -2
-22 -6 -6 -8 31 -43 48 -43 21 0 -7 7 -19 15 -26 17 -14 20 -56 5 -65 -6 -3
-19 -23 -29 -43 l-19 -37 -8 29 c-4 17 -2 36 5 47 14 23 15 59 1 59 -5 0 -10
-7 -10 -16 0 -8 -4 -12 -10 -9 -5 3 -10 21 -10 39 0 31 -15 56 -33 56 -5 0 -7
-11 -4 -25 4 -25 4 -25 -20 -9 -16 10 -34 13 -51 9 -26 -6 -27 -7 -7 -21 11
-8 28 -13 38 -10 9 2 17 0 17 -5 0 -5 -4 -9 -10 -9 -5 0 -10 -6 -10 -13 0 -9
11 -12 34 -9 24 3 35 -1 39 -12 6 -14 3 -15 -14 -5 -23 12 -58 4 -43 -11 5 -4
23 -10 39 -12 29 -3 30 -5 33 -58 2 -53 -10 -92 -24 -77 -4 3 -2 12 4 20 7 8
7 18 2 27 -7 12 -11 10 -18 -9 -5 -15 -11 -20 -16 -13 -4 6 -1 20 6 31 9 15 9
23 -1 35 -18 22 -31 20 -31 -4 0 -17 -3 -19 -19 -10 -11 5 -32 10 -48 10 l-28
0 23 -18 c14 -11 21 -24 17 -34 -4 -10 -1 -16 7 -15 7 0 24 -1 38 -3 24 -2 24
-3 -4 -9 -35 -7 -47 -31 -16 -31 12 0 30 4 40 10 28 15 47 -13 27 -43 -8 -12
-18 -38 -22 -57 -10 -48 -24 -72 -36 -64 -7 4 -7 10 0 17 14 14 14 47 1 47 -5
0 -10 -10 -10 -22 -1 -22 -1 -22 -15 -4 -7 10 -19 16 -26 14 -9 -3 -8 -8 3
-18 13 -13 13 -16 -5 -25 -35 -17 -33 -35 2 -25 43 12 45 0 8 -46 -30 -37 -34
-39 -64 -29 -30 10 -31 11 -11 20 32 15 34 33 3 27 -14 -2 -28 -8 -31 -13 -3
-5 -19 -9 -36 -9 l-30 0 33 38 c24 27 41 37 62 37 32 0 51 24 20 26 -10 1 -21
1 -25 0 -11 -1 -10 7 2 28 6 13 17 17 34 14 18 -4 27 1 36 17 12 22 11 23 -18
17 l-31 -6 17 44 c17 48 12 66 -13 45 -11 -9 -14 -22 -10 -42 4 -17 2 -28 -4
-28 -6 0 -11 7 -11 15 0 10 -10 15 -26 15 l-26 0 25 -33 c19 -26 23 -37 15
-51 -9 -17 -11 -16 -22 5 -6 13 -20 25 -29 27 -17 3 -17 1 2 -36 22 -42 19
-52 -13 -52 -15 0 -17 3 -8 12 17 17 15 48 -3 48 -8 0 -16 -4 -16 -10 -1 -5
-3 -14 -4 -20 -1 -5 -3 -16 -4 -22 -1 -7 -6 -3 -11 10 -5 12 -16 22 -25 22
-14 0 -14 -3 -1 -28 11 -21 12 -39 6 -65 -7 -33 -21 -54 -95 -139 -8 -10 -19
-18 -23 -18 -14 0 12 127 31 147 9 11 17 27 17 37 0 9 7 19 15 22 8 4 15 15
15 26 0 16 -3 18 -13 9 -21 -16 -29 0 -11 20 12 13 13 22 5 36 -10 17 -11 17
-17 -4 -7 -25 -24 -31 -24 -9 0 17 -26 39 -40 34 -6 -2 -2 -13 10 -25 25 -28
25 -32 0 -26 -11 3 -20 0 -20 -6 0 -6 11 -11 24 -11 14 0 28 -4 31 -10 3 -5
-1 -10 -9 -10 -22 0 -20 -9 5 -29 19 -15 20 -18 5 -30 -13 -11 -16 -11 -16 1
0 9 -14 33 -31 54 -25 32 -30 45 -25 72 8 53 23 65 49 39 24 -24 35 -10 17 22
-6 12 -7 21 -2 21 5 0 14 -11 20 -25 15 -33 46 -35 37 -2 -6 17 -5 20 5 10 10
-9 18 -9 33 -1 20 10 20 11 2 24 -10 8 -32 14 -48 14 -28 0 -29 1 -14 18 10
11 13 22 7 32 -7 11 -13 7 -27 -18 -22 -39 -29 -40 -37 -7 -9 36 -28 20 -24
-21 1 -18 -3 -39 -10 -46 -11 -11 -12 -4 -6 32 4 25 13 56 20 70 22 45 80 91
124 101 49 11 88 3 71 -14 -6 -6 -11 -20 -11 -32 1 -19 1 -19 20 4 15 17 20
19 20 8 0 -9 -4 -19 -10 -22 -13 -8 -13 -42 0 -50 6 -3 14 4 19 17 6 13 10 18
10 11 1 -14 29 -43 42 -43 17 0 9 29 -11 40 -11 6 -20 15 -20 21 0 6 7 6 19
-1 14 -7 22 -7 26 0 4 6 -7 16 -24 23 -30 11 -43 29 -18 26 26 -3 38 2 35 14
-3 7 -24 12 -56 12 -31 0 -56 6 -64 14 -11 11 -9 13 10 8 14 -3 30 2 45 14
l22 19 -29 -6 c-22 -5 -28 -4 -24 7 3 8 19 16 37 19 31 5 45 26 15 24 -19 -2
-18 6 7 32 13 14 19 30 15 39 -8 22 -25 9 -43 -34 -15 -35 -16 -35 -24 -13
-14 36 -32 16 -24 -27 6 -36 6 -36 -11 -13 -21 30 -39 16 -25 -20 11 -29 -5
-50 -47 -63 -12 -3 -36 -18 -52 -32 -17 -13 -30 -20 -30 -15 0 5 6 15 14 21
16 14 28 51 16 51 -5 0 -13 -7 -18 -16 -7 -13 -11 -14 -17 -4 -5 8 -2 18 8 25
10 7 17 20 17 29 0 19 -16 22 -23 4 -2 -7 -8 -10 -12 -5 -5 4 1 16 13 27 21
20 30 50 15 50 -3 0 -15 -7 -25 -17 -14 -13 -18 -13 -19 -2 -1 8 -2 20 -3 28
0 7 -11 20 -23 28 -21 14 -23 14 -23 -2 0 -10 8 -27 18 -38 16 -19 16 -19 -5
-13 -31 10 -29 0 10 -35 l32 -30 -27 6 c-37 9 -35 -1 5 -26 l32 -20 -29 7
c-26 6 -27 5 -17 -15 7 -11 16 -21 20 -21 5 0 11 -6 14 -14 6 -15 1 -37 -26
-110 l-15 -40 -21 43 c-17 33 -20 46 -11 56 13 15 5 55 -11 55 -5 0 -9 -8 -9
-17 0 -15 -2 -15 -9 -4 -6 9 -5 24 2 38 7 17 7 27 -1 35 -8 8 -13 3 -18 -17
l-7 -29 -22 28 c-15 18 -27 25 -39 20 -22 -8 -15 -28 12 -32 11 -2 25 -9 31
-16 8 -10 3 -12 -22 -9 -32 3 -31 3 9 -16 52 -24 68 -45 27 -35 -15 4 -36 11
-45 15 -23 12 -28 11 -28 -6 0 -8 5 -15 10 -15 6 0 10 -4 10 -10 0 -15 -41
-12 -60 5 -10 9 -25 13 -34 9 -20 -8 -21 -24 -1 -24 8 0 15 -4 15 -10 0 -5 -7
-10 -15 -10 -8 0 -19 -9 -25 -20 -8 -15 -8 -20 3 -20 7 0 18 5 25 12 9 9 12 8
12 -7 1 -17 5 -15 29 13 15 17 33 32 40 32 8 0 7 -6 -5 -17 -22 -23 0 -31 25
-9 27 24 46 20 91 -22 27 -26 40 -47 40 -65 0 -19 -4 -25 -15 -21 -8 4 -15 16
-15 28 0 23 -17 46 -33 46 -5 0 -7 -14 -3 -30 5 -26 3 -29 -10 -22 -8 5 -21
20 -27 33 -7 13 -23 25 -35 27 -28 4 -28 -12 0 -32 22 -16 22 -16 -8 -16 -34
0 -54 -16 -54 -42 0 -24 17 -23 32 2 17 27 28 25 20 -2 l-5 -22 36 22 c20 12
37 17 37 12 0 -5 -4 -12 -10 -15 -5 -3 -10 -13 -10 -21 0 -20 17 -17 41 7 24
24 43 14 54 -28 3 -15 20 -42 36 -60 29 -34 37 -75 20 -117 -7 -19 -8 -19 -13
1 -3 12 -15 26 -27 32 -18 10 -21 9 -21 -8 0 -11 5 -23 10 -26 16 -10 11 -22
-11 -28 -30 -8 -14 -27 22 -27 37 0 45 -19 25 -59 -9 -16 -16 -43 -16 -59 l0
-30 -57 24 c-58 23 -73 37 -54 49 6 3 11 18 11 33 l-1 27 -20 -25 -21 -24 7
35 c5 26 2 39 -10 49 -25 20 -37 0 -20 -34 20 -38 19 -49 -2 -38 -10 5 -24 7
-31 5 -10 -4 -9 -9 4 -24 9 -10 23 -19 29 -19 7 0 15 -7 19 -15 9 -24 -22 -18
-49 10 -29 28 -31 47 -10 65 17 14 19 38 5 60 -7 12 -12 8 -23 -19 -9 -22 -17
-29 -22 -21 -4 6 -2 22 5 35 9 16 9 28 2 41 -9 17 -12 16 -23 -11 -7 -17 -14
-31 -15 -33 -1 -2 -12 2 -24 8 -22 12 -22 12 15 50 l37 38 21 -21 c20 -20 22
-20 25 -4 4 18 4 18 24 0 21 -18 21 -18 14 12 l-7 30 26 -27 c26 -28 49 -35
59 -19 7 11 -22 37 -52 46 l-22 6 22 19 c22 18 22 19 4 26 -12 5 -23 2 -30 -8
-13 -17 -56 -31 -56 -18 0 5 4 11 9 14 5 3 7 15 4 26 -4 16 -8 18 -19 9 -8 -7
-12 -20 -9 -29 3 -9 -3 -28 -13 -40 l-19 -24 -7 47 c-6 36 -4 51 8 63 20 19
20 28 1 44 -13 10 -15 9 -15 -11 0 -18 -3 -20 -12 -11 -9 9 -9 17 2 36 7 14
10 32 7 40 -9 22 -37 9 -37 -17 0 -20 0 -20 -23 1 -13 12 -34 22 -47 22 l-23
0 23 -25 c13 -14 18 -25 12 -25 -7 0 -12 -4 -12 -9 0 -6 17 -11 37 -13 20 -2
38 -8 40 -14 2 -7 -6 -10 -22 -7 -14 3 -32 0 -40 -7 -12 -10 -19 -10 -28 -1
-8 8 -14 6 -24 -11 -11 -20 -12 -16 -7 31 6 43 4 53 -7 49 -7 -2 -16 -15 -20
-29 l-7 -24 -1 26 c-1 33 -51 73 -51 41 0 -9 7 -27 15 -39 14 -20 13 -22 -2
-26 -14 -3 -10 -7 15 -17 38 -14 41 -24 7 -26 -20 -2 -30 6 -45 37 -11 21 -20
45 -20 53 0 8 -11 27 -25 42 -14 15 -25 28 -25 29 0 1 5 16 11 33 15 43 109
105 109 72 0 -5 -4 -10 -10 -10 -5 0 -10 -9 -10 -21 0 -12 4 -17 11 -13 8 5 8
1 0 -14 -16 -29 -14 -34 9 -27 15 5 18 3 14 -9 -3 -9 -3 -23 0 -32 10 -27 39
4 31 33 -5 21 -4 22 14 11 32 -20 39 2 9 26 -31 24 -37 42 -12 32 8 -3 25 -1
36 5 17 9 18 13 7 20 -8 5 -27 9 -44 9 -16 0 -38 7 -48 14 -17 13 -16 15 16
25 19 7 45 23 57 36 13 14 31 25 40 25 20 0 60 28 60 42 0 6 -10 8 -27 3 -23
-5 -25 -4 -14 9 8 9 19 16 27 16 13 0 34 30 34 49 0 18 -28 13 -39 -6 -8 -14
-9 -10 -5 17 5 28 1 39 -16 55 l-23 20 5 -35z m-338 -374 c50 -21 103 -73 117
-114 6 -20 22 -52 36 -70 32 -42 53 -95 53 -129 l-1 -28 -19 24 c-16 19 -23
21 -34 12 -12 -10 -15 -7 -18 20 -2 18 -8 34 -15 36 -18 6 -21 -29 -4 -59 14
-26 14 -29 -3 -41 -10 -7 -16 -22 -14 -33 3 -15 12 -19 48 -20 67 -1 66 -1 91
-41 35 -56 35 -57 -7 -50 -22 4 -43 2 -51 -5 -19 -15 -16 -31 4 -24 13 5 11 0
-7 -19 -19 -20 -22 -30 -14 -42 18 -29 34 -27 34 6 0 16 4 33 10 36 6 4 9 -3
7 -17 -1 -15 4 -23 16 -26 16 -3 18 2 15 30 -2 24 1 33 12 33 25 0 43 -52 35
-101 l-6 -44 -74 5 c-105 6 -153 28 -176 79 -10 23 -19 60 -19 84 0 27 -11 64
-30 102 -31 61 -41 115 -18 92 21 -21 30 -13 24 21 -5 27 -4 28 4 10 10 -23
30 -32 30 -13 0 7 6 7 19 0 26 -14 31 -13 31 5 0 9 -11 21 -25 27 -23 10 -24
13 -9 29 12 13 12 19 3 25 -7 4 -19 -1 -28 -13 -24 -29 -44 -33 -56 -10 -11
23 -38 36 -30 15 7 -20 12 -108 6 -108 -12 1 -62 82 -67 109 -5 25 -3 29 26
34 18 4 29 11 25 17 -4 6 -15 8 -26 5 -11 -4 -19 -2 -19 4 0 6 8 11 18 11 9 0
24 5 32 10 13 9 13 11 0 19 -8 5 -19 7 -25 4 -5 -3 -4 0 3 8 15 16 16 49 1 49
-6 0 -17 6 -25 14 -22 22 3 32 27 10 24 -21 35 -13 19 15 -10 19 -8 21 15 21
14 0 40 -6 59 -14z m956 -323 c0 -16 5 -35 10 -43 9 -13 12 -13 25 3 7 11 11
26 8 35 -3 10 6 4 21 -13 20 -23 24 -37 20 -60 -4 -16 -9 -72 -13 -125 -6 -95
-23 -129 -29 -57 -2 20 -7 37 -13 37 -15 0 -10 36 6 50 16 14 21 60 6 60 -5 0
-13 -9 -16 -20 -15 -46 -45 3 -37 63 2 20 0 37 -5 37 -13 0 -34 -40 -27 -52 8
-13 -12 -3 -38 20 -10 8 -24 12 -33 9 -23 -10 -18 7 13 35 59 55 102 64 102
21z m-571 -63 l-24 -19 27 -1 c15 0 30 5 34 11 4 8 9 8 17 0 8 -8 5 -15 -11
-27 -23 -16 -30 -44 -10 -44 6 0 20 7 30 17 15 13 18 14 18 1 0 -8 11 -25 25
-38 19 -18 22 -26 14 -36 -8 -9 -17 -11 -27 -5 -11 6 -27 4 -47 -7 l-30 -17
39 -5 c38 -5 38 -5 19 -23 -11 -9 -27 -15 -36 -11 -19 7 -62 -15 -51 -26 5 -5
20 -10 34 -12 25 -4 25 -4 -7 -21 -18 -10 -33 -24 -33 -32 0 -22 -18 -18 -25
4 -3 11 -5 44 -4 73 1 29 -1 74 -6 100 -11 67 16 138 52 138 l25 0 -23 -20z
m493 -32 c9 2 19 -2 23 -8 3 -5 -2 -10 -14 -10 -11 0 -23 -5 -26 -10 -9 -15
21 -23 43 -11 13 7 22 7 30 -1 19 -19 14 -26 -13 -20 -35 6 -31 -14 5 -30 25
-11 30 -19 30 -47 0 -37 -12 -34 -34 10 -15 30 -36 36 -36 11 0 -11 6 -23 13
-25 8 -4 7 -6 -3 -6 -9 -1 -21 4 -28 11 -10 10 -17 7 -35 -11 l-22 -23 50 6
c37 4 45 3 33 -5 -10 -5 -18 -17 -18 -26 0 -15 2 -15 18 0 20 19 52 23 52 7 0
-5 -6 -7 -13 -4 -7 2 -22 -4 -32 -16 -18 -20 -18 -20 11 -20 17 0 35 5 41 11
8 8 18 6 37 -7 26 -16 27 -20 20 -73 -8 -69 -21 -104 -34 -96 -5 3 -10 19 -10
34 0 29 -16 51 -36 51 -10 0 -9 -6 1 -27 17 -32 9 -46 -10 -19 -10 13 -21 17
-39 12 -31 -8 -34 -22 -6 -31 20 -6 25 -16 13 -28 -3 -4 -12 -2 -20 5 -10 8
-19 6 -38 -12 -26 -24 -47 -21 -26 3 6 8 8 22 5 31 -9 23 -36 0 -29 -25 4 -11
-1 -21 -13 -28 -16 -9 -21 -7 -26 11 -3 12 0 25 6 29 9 6 8 12 -2 24 -17 20 0
60 29 70 12 3 21 12 21 18 0 7 6 1 13 -12 18 -37 39 -40 32 -4 -6 25 -5 26 6
8 23 -38 49 -46 49 -15 0 13 -10 24 -25 30 -22 8 -24 12 -13 29 19 30 1 37
-27 11 -23 -22 -25 -22 -32 -4 -3 10 -11 22 -17 26 -23 16 -26 7 -9 -22 16
-27 16 -32 3 -40 -25 -16 -30 -12 -30 28 0 20 -4 63 -10 95 -11 72 -1 104 48
138 30 21 41 24 57 16 11 -6 27 -10 37 -9z m-180 -168 c23 -44 25 -148 3 -156
-8 -4 -15 -12 -15 -20 0 -8 -8 -14 -18 -14 -13 0 -18 7 -18 21 1 12 -5 24 -11
26 -9 3 -13 -6 -13 -25 0 -17 -9 -37 -21 -48 -22 -19 -22 -19 -14 6 4 14 8 36
7 50 0 18 8 30 29 42 16 10 29 22 29 28 0 14 -33 13 -49 -2 -10 -11 -12 -9 -9
7 2 12 13 21 26 23 12 2 27 13 33 24 10 19 9 20 -17 15 -16 -4 -23 -4 -16 -1
13 6 17 74 4 74 -14 0 -35 -48 -29 -64 7 -19 -4 -21 -21 -4 -20 20 -26 0 -8
-26 18 -28 21 -56 7 -56 -5 0 -11 5 -13 12 -5 13 -38 4 -38 -11 0 -6 12 -16
28 -23 30 -15 39 -46 22 -77 -16 -31 -34 -26 -27 8 3 15 1 33 -6 40 -18 18
-29 13 -22 -11 6 -19 5 -21 -6 -10 -15 14 -59 16 -59 3 0 -6 10 -17 22 -25 12
-9 17 -16 10 -16 -6 0 -12 -5 -12 -10 0 -6 14 -9 32 -8 39 4 48 -18 20 -52
l-19 -23 -32 56 c-18 31 -45 69 -62 84 -27 26 -38 53 -21 53 4 0 15 14 25 32
l18 32 19 -29 19 -29 7 29 c5 20 3 31 -9 39 -11 9 -12 17 -6 29 14 23 25 21
33 -5 6 -21 7 -22 17 -5 6 10 8 31 4 47 -7 31 -7 30 60 43 31 6 96 -34 117
-73z m-703 -95 c46 -8 86 -17 89 -20 3 -3 -9 -19 -27 -36 -24 -22 -36 -27 -46
-19 -16 14 -65 -4 -65 -24 0 -10 10 -14 34 -11 30 2 34 0 32 -21 0 -13 -6 -24
-12 -24 -18 0 -36 -27 -32 -47 3 -16 6 -15 27 6 37 37 44 8 14 -54 l-26 -53
-36 10 c-46 13 -71 26 -71 38 0 6 6 10 14 10 19 0 27 13 31 51 4 27 2 30 -16
26 -20 -5 -20 -4 -4 13 11 12 14 26 9 46 l-7 27 -18 -21 c-9 -12 -15 -30 -12
-41 3 -10 0 -22 -6 -25 -7 -4 -11 1 -11 12 0 22 -23 46 -34 34 -4 -4 -12 1
-17 11 -6 9 -17 17 -24 17 -8 0 -15 7 -15 15 0 21 16 19 33 -5 8 -11 17 -17
20 -13 12 11 7 40 -8 53 -14 12 -14 15 1 31 28 31 70 34 183 14z m283 -55 c53
-15 70 -35 56 -65 -6 -14 -16 -21 -24 -18 -8 3 -22 2 -31 -1 -15 -6 -15 -8 -3
-16 8 -6 27 -10 41 -10 14 0 34 -9 44 -20 12 -14 14 -20 5 -20 -17 0 -39 -30
-40 -54 0 -15 -3 -16 -14 -7 -10 8 -12 24 -9 51 6 43 -10 56 -22 19 -7 -21 -7
-21 -19 2 -11 24 -56 40 -56 20 0 -10 8 -19 45 -47 20 -15 20 -15 -2 -9 -29 8
-51 -4 -32 -16 8 -5 26 -9 40 -9 14 0 34 -10 45 -22 10 -12 13 -18 6 -14 -7 4
-21 4 -33 1 -19 -6 -19 -8 -3 -19 9 -7 27 -11 40 -8 17 3 26 -3 39 -29 14 -27
15 -39 6 -71 -7 -21 -15 -38 -19 -38 -14 0 -36 46 -33 70 1 16 -6 33 -20 45
l-22 20 6 -34 c6 -28 5 -32 -7 -22 -8 7 -12 19 -10 29 2 9 0 24 -6 32 -9 13
-11 13 -20 0 -6 -9 -6 -18 0 -24 17 -17 11 -21 -28 -20 -31 0 -122 22 -122 29
0 5 93 211 111 247 21 41 32 44 91 28z m425 -90 c14 -27 16 -74 4 -104 -6 -15
-11 -12 -34 23 -17 25 -35 41 -47 41 -26 0 -26 -20 0 -27 11 -3 20 -10 20 -15
0 -6 -11 -7 -25 -4 -20 5 -27 2 -37 -19 -15 -34 -3 -43 25 -17 25 23 47 29 47
12 0 -5 -6 -10 -14 -10 -13 0 -26 -20 -26 -41 0 -15 19 -10 41 12 39 39 42 6
7 -71 l-34 -73 -49 98 -48 97 18 32 c10 17 27 41 38 54 21 22 47 30 47 13 0
-10 41 -23 49 -16 2 3 -4 14 -15 26 -19 21 -19 21 1 18 11 -2 25 -15 32 -29z
m263 -10 c0 -11 -7 -23 -15 -26 -8 -4 -15 -15 -15 -27 0 -20 0 -20 -23 1 -24
23 -52 29 -61 13 -4 -5 7 -12 24 -16 45 -10 46 -24 0 -19 -36 4 -40 2 -46 -21
-7 -28 -23 -34 -20 -8 0 10 -7 19 -16 21 -15 3 -16 0 -7 -27 6 -17 9 -36 6
-43 -3 -8 -6 -6 -6 5 -1 23 -31 22 -31 -1 0 -10 6 -24 13 -31 10 -10 8 -15 -7
-27 -33 -23 -49 -18 -41 14 4 15 11 51 16 81 5 30 15 62 24 70 13 13 17 12 40
-9 28 -26 42 -22 26 8 -13 25 -5 32 36 32 18 0 33 4 33 9 0 10 21 18 53 20 11
1 17 -6 17 -19z m340 -95 c0 -3 -9 -4 -19 0 -11 3 -22 1 -26 -4 -3 -6 6 -13
20 -17 14 -3 25 -10 25 -16 0 -5 -8 -7 -17 -4 -10 2 -28 7 -39 10 -18 5 -22 1
-27 -24 -5 -20 -11 -28 -21 -24 -8 3 -17 1 -21 -5 -4 -7 6 -11 27 -11 28 -1
30 -2 15 -11 -10 -6 -25 -8 -34 -5 -8 4 -22 1 -30 -6 -12 -10 -14 -9 -11 3 1
8 -1 16 -7 17 -5 1 -11 -9 -13 -23 -2 -14 -8 -25 -13 -25 -5 0 -9 -8 -9 -17 0
-15 -2 -14 -15 3 -14 19 -14 19 -15 -3 0 -12 4 -24 9 -28 12 -7 -7 -65 -20
-65 -9 0 -12 19 -9 58 1 12 -3 22 -8 22 -10 0 -26 -29 -24 -42 1 -5 -7 -8 -19
-8 -12 0 -19 -5 -16 -12 2 -7 10 -12 16 -10 6 1 16 3 22 5 21 4 21 -21 0 -42
-20 -20 -66 -29 -74 -13 -2 4 1 39 7 79 12 78 45 137 71 127 12 -5 10 -10 -8
-25 l-22 -19 38 6 c22 4 43 2 51 -5 11 -9 13 -4 11 29 -3 48 -13 63 -22 32 -6
-23 -24 -25 -30 -5 -5 15 109 90 149 98 18 4 42 13 52 21 17 11 21 10 37 -11
11 -13 19 -26 19 -30z m79 -101 l-24 -26 28 7 c16 4 27 3 27 -3 0 -6 -10 -12
-22 -15 -22 -3 -22 -4 5 -15 28 -12 31 -19 21 -47 -5 -13 -8 -14 -15 -3 -6 10
-11 9 -22 -6 -13 -18 -14 -18 -21 7 -3 15 -13 27 -21 27 -21 0 -19 -24 5 -45
23 -21 26 -37 7 -29 -8 3 -35 -2 -61 -11 -45 -15 -49 -15 -67 1 -10 9 -19 23
-19 31 0 21 26 15 38 -9 6 -13 11 -17 11 -10 1 6 8 12 17 12 23 0 11 24 -14
28 -35 5 -26 18 47 66 38 24 72 49 75 55 4 6 12 11 18 11 6 0 1 -12 -13 -26z
m-1349 -27 c0 -8 -23 -52 -51 -98 -28 -46 -62 -109 -76 -139 -14 -30 -85 -158
-156 -284 -96 -167 -139 -233 -161 -247 -16 -10 -32 -16 -34 -14 -6 6 48 136
65 156 7 8 13 25 13 36 0 11 42 89 93 174 51 85 127 216 168 291 72 134 75
138 107 138 20 0 32 -5 32 -13z m534 -66 l37 -80 -20 -69 c-20 -67 -40 -98
-59 -90 -5 1 -43 40 -85 85 -65 69 -77 88 -77 117 0 41 23 65 45 46 8 -7 15
-21 15 -31 0 -28 19 -23 26 7 5 18 1 29 -11 38 -16 11 -16 13 -2 19 8 3 21 -1
27 -9 7 -8 22 -14 33 -14 20 0 20 1 -2 24 l-23 24 24 5 c12 2 26 5 29 6 3 0
23 -35 43 -78z m250 53 c11 -4 13 -14 10 -34 -7 -35 13 -50 25 -18 11 29 21 8
18 -37 -2 -36 15 -46 25 -13 5 18 6 16 7 -13 1 -20 -6 -53 -14 -72 -8 -20 -15
-47 -15 -59 0 -35 -16 -56 -32 -40 -19 19 -31 14 -26 -13 5 -25 -5 -34 -17
-14 -4 5 -18 9 -32 7 -23 -3 -29 6 -69 93 -37 82 -43 101 -34 123 9 26 35 44
46 33 3 -3 1 -21 -4 -41 -9 -29 -8 -36 4 -36 8 0 18 10 23 22 7 19 8 19 14 4
4 -10 3 -25 -2 -35 -6 -10 -6 -23 0 -32 7 -11 9 -11 9 4 0 10 5 15 10 12 6 -4
8 -15 5 -25 -7 -22 14 -38 25 -19 5 7 4 21 -1 30 -7 14 -4 18 14 21 20 3 18 5
-15 25 -45 26 -49 42 -10 35 25 -4 26 -3 11 12 -9 10 -22 19 -30 20 -24 5 -49
18 -49 26 0 4 17 14 38 23 45 18 46 19 66 11z m586 -160 c12 -12 12 -14 -2
-14 -8 0 -21 -7 -28 -15 -10 -13 -9 -15 12 -15 13 0 29 5 35 11 9 9 13 6 18
-14 8 -29 -5 -57 -46 -105 l-28 -32 -16 30 c-9 17 -13 35 -10 40 8 13 -4 50
-15 50 -5 0 -12 -9 -15 -21 -10 -32 -27 -18 -42 36 -14 45 -13 50 4 63 22 17
111 8 133 -14z m-316 7 c3 -5 -3 -20 -14 -34 -11 -14 -20 -28 -20 -31 0 -13
30 -5 38 10 6 11 12 13 16 6 4 -6 1 -20 -6 -31 -7 -11 -9 -24 -5 -28 5 -4 12
-1 17 7 10 16 13 8 10 -27 -1 -13 2 -28 6 -34 10 -17 24 12 18 38 -6 22 -5 22
25 7 37 -18 37 -21 9 -43 -14 -12 -19 -24 -15 -35 8 -21 25 -12 37 20 11 29
30 32 23 4 -4 -16 -2 -19 11 -14 14 5 16 2 11 -19 -4 -15 0 -37 9 -55 19 -36
20 -46 5 -37 -5 4 -14 18 -19 31 -11 29 -34 33 -25 4 8 -25 -9 -26 -27 -2 -7
10 -19 22 -27 27 -11 6 -13 3 -8 -14 4 -18 2 -21 -10 -17 -19 7 -53 -2 -53
-14 0 -15 31 -20 53 -9 22 12 22 12 3 -10 -19 -21 -19 -21 1 -21 11 0 26 7 33
15 7 8 17 15 22 15 6 0 5 -7 -2 -15 -19 -23 -4 -30 24 -11 24 15 26 15 40 -6
34 -54 24 -94 -40 -161 -30 -31 -59 -57 -65 -57 -10 0 -12 50 -3 74 4 11 14
14 33 10 l26 -5 -24 21 c-24 21 -23 42 2 22 7 -6 18 -7 26 -3 11 7 11 10 0 17
-10 6 -8 10 10 14 14 3 27 12 29 19 3 10 -5 12 -37 6 -30 -5 -41 -4 -39 5 2 7
-3 15 -9 17 -9 3 -13 -6 -13 -26 0 -33 -15 -49 -24 -26 -6 17 -36 21 -36 5 0
-6 11 -20 25 -32 20 -17 22 -24 13 -41 -5 -11 -8 -35 -5 -54 11 -66 -29 -110
-82 -92 -16 6 -31 16 -34 22 -10 27 14 147 41 208 20 44 27 71 21 80 -7 11
-10 9 -15 -8 -5 -18 -12 -21 -37 -18 -36 5 -63 33 -47 49 6 6 18 2 35 -14 14
-13 28 -20 32 -16 5 4 -2 16 -14 26 -13 10 -23 21 -23 24 0 2 19 6 43 8 42 4
42 4 15 16 -18 7 -28 19 -28 32 0 11 -4 20 -10 20 -5 0 -10 -11 -10 -24 0 -32
-17 -43 -23 -14 -3 22 -4 22 -11 3 -4 -11 -10 -27 -13 -35 -4 -13 -6 -13 -14
2 -12 21 -2 46 21 53 10 3 24 13 32 22 12 14 10 16 -15 11 -18 -4 -26 -1 -24
6 6 19 40 19 55 0 13 -17 14 -17 7 11 l-7 30 31 -29 31 -30 0 26 c0 26 -16 38
-52 38 -17 0 -18 3 -8 15 7 8 9 22 6 31 -5 13 -9 14 -21 4 -8 -7 -15 -18 -15
-26 0 -7 -11 -26 -25 -41 -22 -25 -24 -26 -25 -8 -1 19 -2 19 -21 -4 -25 -30
-32 -23 -24 23 9 44 46 86 77 86 13 0 37 9 53 20 34 22 41 24 49 11z m-444
-72 c30 -56 48 -188 34 -241 -8 -26 -47 -22 -75 8 -19 20 -24 36 -24 77 0 29
8 67 17 84 9 18 19 46 23 63 8 36 11 37 25 9z m226 -178 c-21 -23 -20 -31 2
-31 11 0 23 10 29 22 9 22 11 21 38 -22 15 -25 38 -57 52 -71 13 -14 24 -35
24 -45 -1 -33 -13 -84 -20 -84 -15 0 -20 13 -11 29 5 10 5 23 1 30 -6 10 -12
7 -24 -10 -15 -21 -17 -21 -23 -4 -5 11 -1 22 9 30 19 14 23 55 6 55 -6 0 -13
-9 -16 -20 -3 -11 -10 -20 -15 -20 -5 0 -7 8 -4 18 4 11 -1 25 -13 36 -16 15
-19 15 -24 1 -7 -18 1 -45 14 -45 5 0 9 -4 9 -9 0 -4 -11 -6 -25 -3 -36 6 -32
-17 5 -31 35 -13 48 -37 20 -37 -22 0 -27 -18 -7 -25 6 -2 33 -6 60 -10 37 -5
47 -10 47 -25 0 -50 -41 -80 -110 -80 -38 0 -42 3 -56 37 -23 55 -15 265 11
310 11 17 23 29 28 26 5 -3 1 -13 -7 -22z m-2119 -1148 c30 -5 31 -7 35 -56 3
-29 11 -73 18 -99 8 -26 10 -51 6 -55 -5 -4 -11 -2 -14 6 -4 11 -6 11 -13 0
-6 -10 -9 -5 -9 16 0 22 -3 26 -10 15 -5 -8 -12 -11 -16 -7 -4 4 -13 -1 -20
-11 -12 -15 -12 -14 -8 8 4 19 3 22 -5 10 -12 -18 -19 -12 -24 20 -2 13 -9 26
-15 28 -16 5 -15 -21 1 -37 10 -10 8 -11 -8 -5 -16 6 -18 5 -7 -7 15 -17 16
-37 1 -22 -9 9 -16 6 -30 -10 -11 -13 -18 -17 -19 -9 0 7 -4 11 -9 8 -5 -3
-14 1 -21 9 -9 10 -9 15 -1 15 6 0 10 10 9 23 -1 12 18 57 42 100 37 68 45 78
64 72 11 -4 35 -9 53 -12z"/>
</g>
</svg>
