<?xml version="1.0" standalone="no"?>
<!DOCTYPE svg PUBLIC "-//W3C//DTD SVG 20010904//EN"
 "http://www.w3.org/TR/2001/REC-SVG-20010904/DTD/svg10.dtd">
<svg version="1.0" xmlns="http://www.w3.org/2000/svg"
 width="300.000000pt" height="300.000000pt" viewBox="0 0 300.000000 300.000000"
 preserveAspectRatio="xMidYMid meet">
<metadata>
Created by potrace 1.16, written by Peter Selinger 2001-2019
</metadata>
<g transform="translate(0.000000,300.000000) scale(0.100000,-0.100000)"
fill="#000000" stroke="none">
<path d="M2597 2360 c-13 -34 -23 -38 -30 -12 -4 15 -5 15 -6 1 -1 -20 63 -79
86 -79 14 0 14 -2 -3 -15 -19 -14 -19 -14 1 -15 11 0 26 -9 33 -21 34 -54 -33
-85 -114 -54 -28 10 -57 15 -76 11 -24 -5 -29 -3 -24 9 3 8 1 15 -4 15 -6 0
-11 -6 -11 -12 -1 -7 -2 -19 -3 -27 0 -8 -21 -20 -46 -27 -29 -8 -75 -37 -124
-78 l-78 -65 -24 29 c-21 25 -23 32 -12 49 16 27 9 31 -33 22 -41 -9 -74 0
-83 24 -4 12 0 18 14 22 11 3 20 12 20 20 0 13 -3 13 -17 2 -10 -7 -24 -20
-30 -28 -11 -13 -13 -13 -13 2 0 9 10 23 22 31 12 9 19 18 16 21 -3 3 -20 -8
-38 -25 l-33 -31 6 36 c3 21 2 33 -4 30 -5 -4 -9 -23 -9 -43 -1 -35 -2 -36
-15 -18 -8 11 -15 15 -15 8 0 -17 71 -62 100 -63 17 -1 19 -3 8 -6 -10 -2 -18
-8 -18 -13 0 -5 7 -7 15 -3 19 7 55 -24 55 -47 0 -32 -45 -51 -113 -49 -34 2
-72 -1 -84 -5 -18 -6 -23 -4 -23 10 0 14 -3 15 -11 7 -9 -9 -32 -2 -90 28 -44
21 -79 40 -79 42 0 2 9 20 20 41 18 37 18 40 3 67 -16 27 -16 29 2 43 25 18
20 22 -37 28 -31 4 -54 1 -65 -8 -16 -12 -16 -13 -2 -14 9 0 24 -9 33 -19 42
-46 -32 -84 -104 -55 -22 9 -54 14 -71 12 -26 -4 -30 -2 -26 14 5 16 3 17 -9
7 -8 -6 -12 -19 -9 -28 8 -28 -10 -41 -69 -51 -32 -5 -82 -20 -112 -34 l-54
-25 4 25 c3 16 -3 33 -20 51 -23 24 -24 29 -9 39 9 7 13 18 9 28 -4 11 -10 13
-18 7 -17 -14 -58 -15 -86 -3 -14 6 -20 11 -15 12 6 0 -1 7 -14 14 l-23 13 28
28 29 27 -32 -18 c-18 -10 -34 -25 -36 -33 -3 -9 -6 2 -7 24 -2 38 -2 39 -10
12 -5 -16 -6 -36 -4 -45 5 -13 2 -13 -10 2 -13 17 -16 17 -16 4 0 -18 52 -48
82 -48 21 0 23 -11 5 -29 -10 -10 -9 -11 5 -6 9 4 28 -1 41 -10 32 -20 25 -50
-15 -71 -25 -13 -38 -14 -79 -4 -26 7 -62 9 -79 5 -24 -5 -30 -3 -30 10 0 14
-3 15 -15 5 -11 -9 -20 -8 -42 8 -75 52 -233 111 -301 112 -12 0 -46 -14 -76
-30 l-53 -30 -37 40 c-20 22 -41 40 -46 40 -17 0 -50 -39 -50 -59 0 -21 -22
-33 -45 -25 -18 7 -46 -13 -43 -30 1 -6 -3 -20 -9 -31 -23 -42 26 -98 53 -60
12 16 13 11 7 -32 -5 -45 -3 -53 23 -81 23 -25 38 -32 75 -34 41 -3 45 -5 41
-26 -6 -30 -47 -51 -65 -32 -10 10 -8 12 10 7 16 -3 20 -1 16 9 -4 10 0 12 11
8 9 -3 16 -2 16 4 0 11 -78 13 -85 2 -3 -4 3 -18 13 -29 17 -21 16 -23 -44
-84 -98 -101 -141 -218 -131 -357 9 -144 101 -282 225 -339 l51 -24 -18 -26
c-82 -118 -35 -272 101 -331 73 -31 195 -26 259 12 87 51 129 118 130 205 l0
48 20 -52 c29 -74 76 -113 138 -113 59 0 91 22 120 83 26 54 26 67 2 67 -13 0
-23 -11 -31 -34 -19 -58 -47 -86 -85 -86 -47 0 -64 34 -67 142 l-3 83 105 0
105 0 -1 41 c-2 116 -61 204 -136 204 -56 0 -101 -32 -135 -96 -16 -32 -43
-63 -71 -82 l-44 -30 -36 21 c-32 19 -33 22 -17 31 124 74 146 222 43 299 -81
61 -242 77 -354 36 -81 -29 -158 -107 -172 -173 -21 -102 27 -176 120 -184 44
-3 58 0 81 18 36 29 36 83 -1 88 -39 6 -54 -4 -41 -26 35 -55 -42 -73 -93 -22
-28 29 -30 35 -26 89 6 84 39 130 122 171 53 26 76 32 134 32 125 1 192 -54
192 -159 0 -88 -34 -145 -96 -162 -34 -9 -34 -23 0 -32 33 -9 77 -40 71 -50
-3 -4 -22 3 -42 16 -20 14 -44 25 -55 25 -18 0 -19 7 -16 155 3 165 -1 178
-40 125 -14 -18 -35 -31 -57 -36 -36 -6 -47 -27 -20 -38 12 -4 15 -25 15 -103
l-1 -98 -46 -22 -47 -22 -59 31 c-223 119 -270 437 -93 626 81 86 218 141 353
142 67 0 183 -23 256 -50 l58 -22 -39 -37 c-116 -113 -46 -295 134 -351 36
-11 94 -23 130 -26 l66 -7 -3 -241 c-3 -260 -4 -276 -25 -276 -8 0 -14 -7 -14
-15 0 -12 16 -15 80 -15 81 0 95 7 62 31 -17 13 -18 31 -14 269 l4 256 77 17
c42 9 112 33 156 53 125 56 118 57 160 -27 57 -113 102 -239 155 -429 30 -109
53 -176 61 -178 10 -2 33 58 79 200 66 206 165 433 195 444 8 3 15 12 15 20 0
10 -15 14 -59 14 -56 0 -84 -11 -62 -24 12 -8 4 -39 -70 -274 -43 -136 -66
-197 -71 -185 -3 10 -25 77 -47 150 -23 73 -65 179 -94 237 l-53 105 39 17
c49 22 94 69 102 105 11 48 277 198 445 250 60 19 98 24 190 24 111 0 118 -1
182 -33 115 -56 167 -150 154 -276 -17 -167 -165 -267 -312 -211 -60 23 -94
68 -94 127 0 65 39 98 74 62 12 -12 13 -20 6 -35 -12 -22 0 -25 31 -9 26 15
26 71 -1 95 -40 36 -120 13 -140 -41 -47 -122 54 -234 211 -234 268 0 369 370
140 514 -126 80 -349 82 -528 5 -42 -18 -42 -18 -33 1 6 11 14 28 19 39 12 23
-12 61 -39 61 -53 0 -24 58 67 136 64 54 132 93 162 94 11 0 11 -3 1 -15 -7
-8 -20 -15 -29 -15 -9 0 -23 -15 -31 -32 -12 -26 -29 -41 -58 -54 -10 -5 13
-54 25 -54 11 0 13 7 9 23 -10 42 80 89 169 87 52 0 125 -13 125 -21 0 -5 17
-9 38 -9 46 0 87 -34 62 -50 -8 -6 -25 -10 -37 -10 -14 0 -23 -6 -23 -15 0
-19 4 -19 43 1 l32 17 -19 -22 c-11 -11 -25 -21 -32 -21 -14 0 -29 -18 -21
-26 10 -10 45 16 77 55 26 34 29 44 20 61 -6 12 -22 25 -36 30 -23 9 -34 30
-15 30 5 0 16 15 24 32 15 30 14 35 -4 65 -20 32 -20 32 0 43 32 17 16 36 -27
32 -27 -3 -43 2 -60 18 -25 23 -21 40 9 40 10 0 19 7 19 15 0 14 -3 14 -30 0
-18 -9 -30 -11 -30 -5 0 6 11 15 25 20 14 5 25 12 25 15 0 10 -44 -6 -62 -23
-21 -17 -22 -14 -8 22 5 14 7 26 4 26 -3 0 -11 -13 -17 -30z m-1970 -205 c77
-18 173 -62 231 -104 33 -25 42 -37 42 -61 0 -23 -6 -33 -25 -42 -18 -8 -25
-19 -25 -40 0 -15 -10 -38 -21 -49 -22 -22 -46 -22 -157 -2 l-33 5 29 18 c66
40 83 112 36 149 -32 25 -35 25 -60 7 -15 -12 -17 -18 -8 -33 16 -27 44 -29
51 -4 7 29 21 26 29 -5 7 -26 -15 -89 -23 -66 -7 17 -43 15 -43 -3 0 -8 5 -15
11 -15 5 0 7 5 4 10 -3 6 -1 10 4 10 23 0 10 -30 -15 -36 -19 -5 -31 -1 -47
15 -18 18 -18 21 -4 15 9 -3 17 -2 17 4 0 5 3 23 6 39 4 23 0 37 -22 62 -21
25 -24 35 -15 44 9 9 11 8 6 -5 -5 -13 -2 -18 9 -18 20 0 21 33 1 50 -12 10
-20 9 -40 -4 -20 -13 -25 -25 -25 -59 0 -24 -6 -52 -14 -62 -12 -17 -14 -14
-27 34 -13 51 -38 79 -59 66 -6 -3 -10 -2 -10 3 0 6 8 13 17 16 12 5 24 -3 41
-24 13 -16 28 -30 34 -30 5 0 -2 14 -16 31 -28 33 -31 44 -16 54 6 4 8 11 5
16 -6 9 28 27 55 28 8 0 43 -6 77 -14z m759 -100 c-8 -8 -17 -24 -21 -35 -3
-10 -15 -22 -26 -25 -24 -8 -27 -55 -3 -55 10 0 13 6 9 19 -7 24 59 71 101 71
17 0 35 5 41 11 8 8 23 7 57 -6 25 -10 52 -15 60 -12 9 4 18 2 21 -3 4 -6 23
-10 43 -10 27 0 41 -6 51 -21 11 -18 11 -23 -1 -30 -7 -5 -20 -9 -29 -9 -9 0
-19 -7 -23 -15 -7 -19 -2 -19 36 1 16 9 27 11 23 4 -4 -6 -18 -15 -31 -20 -13
-5 -24 -17 -24 -25 0 -13 5 -12 29 6 39 29 74 77 65 91 -8 13 -6 12 64 -25 49
-26 53 -30 50 -60 -2 -22 -10 -35 -25 -42 -14 -6 -23 -18 -23 -33 0 -13 -12
-34 -26 -49 -14 -14 -23 -30 -21 -37 3 -7 -19 -11 -72 -11 -65 -1 -85 -5 -135
-31 l-58 -30 -63 33 c-123 65 -286 89 -410 59 -48 -11 -53 -10 -122 21 -39 18
-76 33 -82 33 -17 0 -13 8 20 49 19 24 45 43 70 50 21 6 39 15 39 20 0 6 124
6 150 0 3 0 22 0 42 1 21 1 47 -5 58 -13 l21 -15 -23 -16 c-12 -9 -28 -16 -35
-16 -7 0 -13 -7 -13 -15 0 -17 16 -20 25 -5 3 5 15 15 26 21 18 9 19 9 7 -10
-7 -12 -18 -21 -25 -21 -7 0 -13 -10 -13 -22 1 -21 3 -20 30 12 17 19 30 41
30 50 0 9 5 21 11 27 16 16 -10 51 -40 55 -44 5 -34 27 26 54 72 32 101 42
131 43 21 1 22 -1 8 -14z m815 -202 c16 -16 -5 -43 -32 -43 -13 0 -19 -7 -19
-22 0 -21 1 -21 30 7 17 16 30 23 30 17 0 -15 -41 -43 -190 -132 l-115 -68
-17 36 c-9 21 -30 50 -47 65 -17 16 -31 34 -31 41 0 19 62 74 92 81 15 4 32
12 37 19 13 16 246 15 262 -1z m-866 -124 c59 -22 145 -69 145 -79 0 -3 -26
-31 -58 -63 l-58 -57 -104 63 c-190 115 -235 146 -220 151 39 13 62 15 145 11
61 -2 109 -10 150 -26z m459 -23 c41 -17 76 -61 76 -95 0 -22 -13 -34 -75 -72
l-76 -46 -62 64 c-34 36 -74 72 -89 81 -16 9 -28 19 -28 23 0 3 26 18 58 32
65 30 143 35 196 13z m-636 -93 c103 -53 189 -98 192 -100 2 -2 -14 -22 -36
-44 -31 -30 -51 -42 -83 -46 -47 -6 -63 -22 -32 -30 15 -4 21 -13 21 -34 0
-26 -3 -29 -35 -29 -53 0 -135 20 -186 46 -110 55 -153 147 -113 242 15 38 61
92 77 92 5 0 93 -43 195 -97z m398 -35 c50 -52 94 -109 94 -123 0 -15 -191 29
-244 57 -17 9 -13 15 35 64 29 30 56 54 59 54 3 0 28 -24 56 -52z m-117 -99
c30 -11 82 -26 115 -33 l61 -12 -50 -23 c-74 -33 -160 -61 -211 -68 l-45 -6 6
39 c7 35 53 124 65 124 3 0 29 -9 59 -21z m-359 -317 c5 -21 10 -61 10 -89 l0
-53 -55 0 c-52 0 -55 1 -55 25 0 47 21 123 41 143 25 28 46 18 59 -26z m-319
-219 c7 -21 13 -68 13 -104 0 -119 -71 -198 -180 -199 -119 0 -204 77 -204
187 0 66 36 137 70 141 47 5 53 -7 45 -102 -7 -80 -9 -87 -31 -92 -42 -11 -26
-24 30 -24 29 0 74 -3 100 -6 37 -6 46 -4 46 8 0 9 -9 18 -20 21 -18 5 -20 14
-20 96 0 84 1 91 20 91 26 0 27 -45 3 -72 -15 -17 -15 -20 -3 -28 24 -15 56
-11 81 9 20 16 24 28 22 65 -2 56 11 60 28 9z"/>
<path d="M583 1698 c1 -27 0 -48 -2 -48 -3 0 -20 15 -39 33 -24 22 -31 26 -24
11 6 -11 18 -26 26 -34 28 -23 17 -31 -31 -26 l-48 6 39 -15 c22 -8 42 -17 44
-20 3 -2 -15 -13 -39 -24 -47 -21 -36 -27 19 -12 39 12 39 7 6 -44 l-27 -40
42 40 41 39 1 -49 1 -50 10 48 10 49 29 -44 c32 -48 36 -45 14 9 -8 19 -15 37
-15 39 0 2 21 -6 48 -17 l47 -20 -30 25 c-16 14 -33 25 -37 26 -5 0 -8 5 -8
10 0 6 18 10 41 10 24 0 38 4 34 10 -3 6 -23 10 -43 10 l-36 0 35 36 34 36
-35 -21 c-54 -33 -57 -29 -34 46 3 10 -4 2 -14 -17 -11 -19 -23 -35 -28 -35
-4 0 -13 18 -20 40 l-13 40 2 -47z"/>
<path d="M2175 1186 c-128 -56 -156 -310 -45 -410 33 -30 48 -36 83 -36 48 0
75 18 106 70 26 43 27 70 3 70 -12 0 -23 -14 -32 -42 -27 -76 -93 -98 -120
-40 -7 15 -15 59 -18 99 l-5 72 99 3 99 3 -2 52 c-5 119 -86 195 -168 159z"/>
<path d="M1592 1150 c-81 -50 -115 -236 -63 -342 45 -93 138 -123 199 -65 32
30 66 104 52 112 -18 11 -38 -8 -49 -46 -21 -70 -92 -92 -119 -36 -8 15 -16
62 -19 103 l-6 74 103 0 103 0 -7 56 c-16 137 -101 200 -194 144z"/>
<path d="M1340 1141 c0 -5 9 -11 20 -14 19 -5 20 -14 20 -119 0 -171 -10 -278
-26 -278 -8 0 -14 -4 -14 -10 0 -22 150 -26 157 -4 2 6 -5 14 -16 17 -19 5
-19 12 -14 211 l6 206 -66 0 c-37 0 -67 -4 -67 -9z"/>
</g>
</svg>
