<?xml version="1.0" standalone="no"?>
<!DOCTYPE svg PUBLIC "-//W3C//DTD SVG 20010904//EN"
 "http://www.w3.org/TR/2001/REC-SVG-20010904/DTD/svg10.dtd">
<svg version="1.0" xmlns="http://www.w3.org/2000/svg"
 width="340.000000pt" height="270.000000pt" viewBox="0 0 340.000000 270.000000"
 preserveAspectRatio="xMidYMid meet">
<metadata>
Created by potrace 1.16, written by Peter Selinger 2001-2019
</metadata>
<g transform="translate(0.000000,270.000000) scale(0.100000,-0.100000)"
fill="#000000" stroke="none">
<path d="M560 1835 c0 -18 -4 -23 -15 -19 -11 5 -14 2 -8 -12 6 -18 6 -18 -14
-1 -30 26 -39 20 -12 -9 l24 -27 -35 18 c-32 17 -34 17 -21 1 13 -16 12 -17
-15 -12 l-29 6 30 -14 c17 -9 43 -15 58 -16 22 0 28 -4 25 -17 -2 -10 -11 -17
-21 -17 -9 1 -19 -7 -22 -17 -9 -28 -20 -23 -44 17 -12 20 -25 34 -28 30 -4
-3 -1 -12 5 -18 17 -17 15 -33 -3 -18 -9 8 -15 9 -15 2 0 -6 10 -18 22 -26 12
-9 18 -16 12 -16 -5 0 -20 7 -32 16 -12 8 -22 11 -22 6 0 -5 10 -17 23 -25 18
-13 19 -16 5 -16 -10 -1 -17 -7 -15 -13 1 -7 -4 -12 -10 -11 -23 5 -14 -14 10
-21 18 -5 20 -8 7 -16 -8 -5 -10 -10 -4 -10 23 0 24 -32 2 -51 -13 -10 -18
-18 -12 -19 5 0 16 6 24 13 8 6 4 0 -9 -15 -14 -16 -20 -28 -14 -28 12 0 58
51 65 71 8 24 30 -2 24 -27 -4 -16 -2 -26 8 -30 8 -3 12 -13 9 -25 -4 -15 -14
-19 -49 -19 -23 0 -46 -5 -49 -10 -4 -7 2 -9 19 -4 21 5 25 3 21 -9 -5 -11 0
-14 19 -12 23 3 25 1 20 -28 -4 -23 -3 -28 4 -18 8 11 11 8 15 -15 3 -16 5 -4
4 26 0 30 1 57 4 59 2 2 14 1 25 -3 31 -10 38 -46 14 -71 -23 -25 -26 -37 -7
-29 10 4 9 -14 -5 -83 -43 -214 -51 -450 -18 -577 21 -83 47 -146 86 -214 37
-63 40 -46 4 21 -42 77 -77 184 -89 272 -23 164 32 605 75 605 4 0 3 -11 0
-25 -8 -33 0 -32 18 3 13 23 15 24 16 7 1 -18 2 -17 11 4 6 16 6 28 -2 37 -11
13 -4 105 10 131 4 7 17 -14 30 -49 22 -56 23 -64 9 -87 -8 -14 -20 -25 -26
-23 -16 3 -15 -10 3 -34 14 -19 14 -19 15 3 0 25 16 39 23 21 3 -8 6 -5 6 6 1
16 3 16 21 -5 23 -29 26 -18 4 16 -20 31 -12 32 17 3 17 -18 21 -19 16 -5 -7
18 8 24 18 7 3 -5 11 -10 16 -10 20 0 -4 22 -48 43 -38 19 -48 30 -64 72 -25
66 -24 73 6 45 18 -17 25 -35 26 -64 1 -23 3 -33 6 -24 2 9 17 21 34 27 31 11
42 24 12 15 -15 -5 -16 -4 -3 5 22 16 40 13 46 -6 16 -50 27 -73 36 -73 5 0 4
9 -2 19 -14 27 -13 31 8 24 15 -6 16 -5 2 12 -14 17 -13 18 13 11 33 -8 36 1
5 14 l-23 9 23 0 c12 1 22 6 22 12 0 6 -7 8 -16 5 -8 -3 -12 -2 -9 4 3 6 18
11 33 11 26 2 26 2 3 6 -13 3 -41 -3 -61 -12 -37 -17 -38 -16 -96 14 l-59 30
37 1 c29 0 41 -6 54 -25 18 -28 37 -34 27 -10 -3 9 2 22 13 30 15 11 16 14 4
15 -13 0 -13 1 0 10 13 9 13 10 0 10 -13 0 -13 1 0 10 13 8 13 10 -1 10 -9 0
-24 -9 -34 -20 -28 -31 -91 -27 -123 7 -22 24 -24 33 -19 90 4 58 8 67 46 104
41 41 59 78 21 44 -11 -10 -20 -14 -20 -10 0 4 -8 0 -19 -9 -18 -16 -18 -16
-13 10 3 19 1 25 -7 20 -6 -4 -11 -19 -11 -34 l-1 -27 -15 25 c-11 17 -13 19
-9 5 5 -17 3 -17 -21 5 -22 21 -25 22 -16 5 5 -11 20 -29 31 -39 17 -16 21
-31 21 -83 0 -34 -3 -63 -7 -62 -5 0 -25 26 -45 58 -34 53 -37 62 -31 109 3
29 3 52 -1 52 -3 0 -6 -11 -6 -25z"/>
<path d="M2338 1315 c-9 -21 -18 -25 -55 -25 -27 0 -42 -4 -38 -10 3 -5 17
-10 31 -10 55 0 11 -93 -64 -133 l-53 -29 -39 27 c-21 15 -41 34 -45 43 -9 24
30 52 74 52 34 1 35 1 16 16 -25 20 -91 14 -129 -11 -25 -17 -28 -23 -23 -59
5 -33 0 -47 -25 -85 -40 -60 -89 -111 -105 -111 -17 0 -16 58 2 135 40 165 2
167 -87 6 -20 -37 -46 -50 -59 -30 -5 8 -6 44 -3 82 5 55 4 67 -8 67 -21 0
-45 -29 -55 -66 -7 -28 -94 -114 -114 -114 -3 0 -12 35 -19 78 -16 105 -16
105 -39 93 -36 -20 -43 -67 -25 -154 l17 -77 -70 -73 c-127 -131 -138 -197
-32 -197 64 0 106 31 144 105 25 49 30 71 31 133 l0 75 49 42 49 43 15 -32
c21 -40 72 -48 106 -16 l22 21 -5 -49 c-6 -66 9 -92 53 -92 41 0 94 43 146
119 l34 48 32 -21 c18 -12 33 -24 33 -27 0 -4 -18 -18 -39 -32 -86 -57 -60
-101 56 -95 110 5 145 52 85 116 l-28 29 47 26 46 27 -9 -53 c-11 -59 -6 -121
12 -142 35 -43 92 -2 159 114 45 79 53 99 41 106 -5 3 -28 -31 -51 -75 -24
-44 -55 -92 -71 -107 l-28 -27 0 40 c0 21 9 77 20 124 11 47 20 97 20 111 0
22 6 27 48 36 l47 10 -42 2 c-39 1 -43 3 -43 26 0 14 -5 25 -10 25 -6 0 -16
-11 -22 -25z m-858 -456 c-14 -49 -68 -109 -99 -109 -13 0 -25 9 -30 23 -12
29 17 79 84 148 l50 52 3 -36 c2 -20 -2 -55 -8 -78z"/>
<path d="M1124 771 c-18 -11 -44 -35 -59 -55 -52 -68 -100 -275 -81 -351 5
-20 12 -26 28 -23 15 2 25 15 34 48 19 66 71 113 126 114 41 1 43 0 46 -31 3
-29 -2 -35 -67 -76 -70 -46 -95 -74 -83 -94 28 -44 128 -7 173 65 16 25 29 53
29 62 0 9 13 23 29 33 16 9 41 31 55 47 28 34 42 36 91 16 42 -18 43 -31 10
-96 -14 -27 -25 -58 -25 -69 0 -28 41 -54 74 -45 31 7 84 67 112 123 15 32 22
37 36 30 31 -17 98 -10 149 17 l51 25 15 -20 c16 -24 71 -29 91 -9 9 9 12 6
12 -13 0 -72 73 -92 135 -38 l35 31 0 -42 c0 -94 51 -109 119 -35 22 24 41 49
41 55 0 5 3 10 8 10 4 0 5 -23 4 -50 -4 -57 10 -83 42 -78 15 2 22 13 27 41 9
58 101 157 145 157 22 0 17 -58 -11 -138 -31 -90 -32 -117 -1 -137 49 -32 114
27 165 149 l29 69 64 1 c57 1 71 5 121 39 32 20 57 43 57 49 0 6 -12 0 -27
-14 -31 -29 -74 -52 -115 -62 -32 -7 -58 14 -58 49 0 19 7 24 44 29 53 8 81
27 73 50 -8 21 -87 22 -127 1 -39 -20 -53 -49 -55 -110 -1 -55 -39 -144 -82
-195 -47 -56 -54 -32 -27 87 15 60 15 76 4 102 -26 64 -106 45 -164 -38 -29
-41 -31 -42 -34 -18 -2 14 4 62 12 107 27 138 73 220 126 220 34 0 50 -17 50
-52 0 -61 -51 -120 -121 -144 l-44 -14 38 4 c111 14 191 144 125 206 -69 64
-207 -48 -238 -194 -14 -68 -94 -196 -122 -196 -13 0 -10 28 18 156 l27 122
41 10 41 10 -43 1 c-40 1 -42 2 -36 26 4 15 2 25 -5 25 -6 0 -18 -11 -27 -25
-13 -20 -25 -25 -56 -25 -23 0 -37 -4 -33 -10 3 -5 18 -10 31 -10 17 0 24 -4
20 -12 -2 -7 -15 -44 -26 -83 -22 -71 -77 -141 -103 -132 -8 2 -13 33 -15 84
l-3 81 -36 17 c-48 23 -106 7 -128 -35 -30 -58 -127 -110 -165 -90 -19 10 -31
42 -21 58 3 6 23 13 44 17 44 9 83 37 73 53 -4 7 -31 12 -63 12 -49 0 -59 -4
-89 -34 -26 -26 -34 -42 -34 -70 0 -53 -82 -176 -117 -176 -20 0 -16 25 17 90
17 33 30 66 30 74 0 25 -28 44 -101 67 -75 24 -85 34 -75 74 5 18 13 25 31 25
28 0 34 -25 15 -61 -6 -10 -7 -19 -2 -19 14 0 33 51 27 70 -14 45 -113 27
-137 -25 -9 -19 -7 -29 6 -50 9 -14 23 -25 31 -25 21 0 19 -11 -8 -40 -46 -52
-52 -53 -85 -20 -49 48 -120 34 -182 -36 l-30 -35 0 51 c0 64 41 188 81 247
25 36 36 44 57 41 24 -3 27 -7 26 -41 -2 -48 -37 -98 -100 -143 -58 -42 -45
-45 19 -5 79 51 123 139 93 186 -20 30 -50 32 -92 6z"/>
</g>
</svg>
