<?xml version="1.0" standalone="no"?>
<!DOCTYPE svg PUBLIC "-//W3C//DTD SVG 20010904//EN"
 "http://www.w3.org/TR/2001/REC-SVG-20010904/DTD/svg10.dtd">
<svg version="1.0" xmlns="http://www.w3.org/2000/svg"
 width="300.000000pt" height="300.000000pt" viewBox="0 0 300.000000 300.000000"
 preserveAspectRatio="xMidYMid meet">
<metadata>
Created by potrace 1.10, written by Peter Selinger 2001-2011
</metadata>
<g transform="translate(0.000000,300.000000) scale(0.100000,-0.100000)"
fill="#000000" stroke="none">
<path d="M1425 2696 c-29 -29 -57 -85 -124 -245 -81 -193 -134 -261 -201 -261
-12 0 -35 13 -51 29 -25 26 -29 37 -29 88 0 73 28 136 71 162 34 21 52 19 85
-11 20 -18 21 -18 39 2 15 17 16 22 4 36 -44 54 -130 50 -186 -8 -62 -64 -83
-199 -44 -277 24 -45 39 -59 82 -71 81 -23 161 34 214 152 30 65 46 78 99 78
4 0 9 -35 10 -78 1 -72 2 -77 24 -80 13 -2 34 4 47 12 13 9 33 16 45 16 11 0
20 4 20 10 0 5 7 7 16 3 8 -3 25 3 37 14 26 24 57 36 57 23 0 -16 46 -12 60 5
9 11 16 12 25 5 9 -7 20 -4 40 11 21 17 29 19 35 9 13 -20 40 -4 56 35 8 19
19 35 24 35 13 0 13 -16 -1 -42 -8 -15 -8 -19 1 -16 6 2 20 28 31 58 26 74 25
72 13 77 -6 2 -15 -11 -20 -28 -10 -36 -34 -51 -34 -22 0 54 -54 46 -64 -10
-3 -18 -13 -42 -21 -53 -13 -17 -14 -15 -15 29 0 26 -4 47 -9 47 -15 0 -19
-22 -13 -74 4 -39 2 -48 -9 -44 -8 3 -12 12 -10 19 12 45 10 50 -8 18 -26 -47
-49 -65 -63 -51 -12 12 -2 32 17 32 17 0 35 31 35 60 0 16 -5 21 -22 18 -16
-2 -27 -15 -38 -45 -9 -24 -22 -48 -29 -55 -11 -11 -12 -7 -6 22 3 19 9 43 11
53 3 9 1 17 -4 17 -5 0 -13 -20 -16 -45 -4 -25 -11 -45 -17 -45 -5 0 -9 -9 -9
-19 0 -11 -4 -23 -10 -26 -14 -9 -12 14 5 70 8 27 13 51 11 52 -7 7 -24 -25
-36 -69 -7 -26 -19 -53 -26 -59 -19 -16 -18 5 2 65 9 26 14 50 10 53 -7 7 -36
-59 -36 -81 0 -21 -42 -48 -54 -36 -8 8 -1 108 31 413 5 39 3 47 -11 47 -9 0
-28 -11 -41 -24z m25 -33 c0 -14 -19 -38 -25 -32 -8 8 5 39 16 39 5 0 9 -3 9
-7z m-37 -145 c-7 -56 -15 -103 -17 -105 -2 -2 -18 -8 -36 -13 -24 -7 -31 -6
-27 3 37 103 83 217 87 217 3 0 0 -46 -7 -102z m439 -90 c7 -18 -2 -39 -13
-32 -12 7 -12 44 0 44 5 0 11 -6 13 -12z m-161 -67 c-7 -12 -16 -21 -21 -21
-12 0 -12 2 0 36 8 19 14 24 21 17 8 -8 7 -17 0 -32z m147 -3 c-4 -27 -28 -36
-28 -10 0 20 8 32 22 32 5 0 8 -10 6 -22z"/>
<path d="M2080 2500 c-11 -11 -22 -32 -26 -47 -8 -34 -31 -73 -43 -73 -5 0 -2
22 7 50 17 54 12 71 -17 53 -10 -7 -28 -9 -40 -6 -20 5 -31 -12 -11 -19 6 -2
4 -22 -5 -52 -27 -90 -13 -89 20 1 11 31 26 59 34 61 10 3 12 0 8 -13 -4 -9
-10 -34 -13 -56 -5 -31 -3 -39 8 -39 9 0 21 6 27 13 6 8 23 12 39 9 23 -3 34
2 51 23 32 42 25 54 -8 15 -23 -27 -32 -32 -41 -23 -14 13 -5 33 15 33 18 0
35 31 35 64 0 31 -13 33 -40 6z m21 -39 c-10 -18 -31 -29 -31 -16 0 18 25 54
33 46 5 -5 4 -17 -2 -30z"/>
<path d="M2095 2305 c-23 -22 -25 -31 -25 -124 l0 -100 38 -28 c20 -15 40 -32
45 -38 4 -5 6 -61 5 -124 -3 -95 -6 -116 -20 -125 -25 -15 -50 13 -59 66 l-6
43 -2 -40 c-1 -48 21 -85 53 -85 41 0 46 17 46 147 0 113 -2 124 -22 143 -12
11 -28 20 -35 20 -23 0 -33 38 -33 127 0 100 11 127 51 121 20 -2 25 -10 30
-48 l6 -45 1 42 c2 40 -16 73 -39 73 -6 0 -21 -11 -34 -25z"/>
<path d="M887 2289 c-27 -38 -22 -127 13 -232 l31 -90 -42 -40 -42 -41 -108
37 c-118 40 -173 46 -220 21 -37 -19 -63 -75 -55 -119 9 -44 78 -105 118 -105
7 0 -5 9 -27 19 -59 27 -80 55 -80 108 0 38 5 49 34 75 32 28 38 30 90 25 31
-3 119 -26 196 -52 77 -25 152 -47 167 -48 22 -2 31 -12 53 -58 21 -42 32 -55
48 -55 16 1 22 -6 23 -24 l2 -25 -141 12 c-213 17 -360 24 -312 13 22 -5 59
-9 83 -9 l42 -1 0 -98 c0 -80 4 -109 24 -160 43 -108 98 -171 196 -223 63 -33
183 -34 255 -1 28 13 52 23 54 23 2 0 17 -30 32 -67 42 -99 84 -135 117 -102
23 23 13 88 -26 172 l-39 82 28 49 c32 56 59 161 59 228 0 44 -1 45 -37 50
-21 3 -78 9 -127 13 -95 7 -129 25 -120 61 3 11 -2 25 -10 32 -32 27 -14 28
62 5 42 -13 81 -24 85 -24 5 0 -6 20 -23 44 -36 50 -112 96 -159 96 -17 0 -31
5 -31 10 0 15 65 2 111 -21 39 -19 103 -86 113 -117 4 -13 21 -24 50 -31 24
-6 51 -14 60 -17 14 -6 16 -2 10 22 -21 86 -114 217 -176 250 -31 17 -12 52
31 57 l36 4 -37 1 -38 2 0 45 c0 45 0 45 40 51 22 4 40 10 40 14 0 4 -21 2
-47 -4 l-48 -12 -1 -60 c-1 -32 -2 -64 -3 -71 -1 -8 -14 -7 -48 4 -27 8 -71
13 -100 10 l-51 -4 -58 126 c-31 69 -62 137 -69 150 l-12 24 -16 -24z m48 -67
c16 -37 59 -130 96 -207 36 -77 78 -168 94 -202 15 -35 32 -63 37 -63 6 0 7
-7 4 -16 -4 -10 46 -119 130 -283 141 -276 164 -342 131 -369 -8 -7 -22 -10
-31 -6 -30 12 -44 42 -157 334 -52 137 -125 290 -134 282 -5 -4 -6 0 -2 10 6
18 -21 48 -44 48 -16 0 -108 191 -146 304 -35 102 -44 237 -15 236 4 0 20 -31
37 -68z m265 -251 c69 -18 190 -138 190 -187 0 -10 -19 9 -41 42 -39 55 -60
77 -84 85 -5 2 -17 10 -27 18 -23 20 -87 41 -125 41 -18 0 -33 5 -33 11 0 12
50 8 120 -10z m35 -65 c48 -28 96 -82 121 -134 23 -48 9 -52 -15 -4 -45 89
-123 147 -209 155 -23 2 -45 7 -49 12 -19 19 111 -5 152 -29z m-310 -5 c-3 -6
-11 -11 -17 -11 -6 0 -6 6 2 15 14 17 26 13 15 -4z m35 -26 c-7 -8 -17 -15
-22 -15 -6 0 -5 7 2 15 7 8 17 15 22 15 6 0 5 -7 -2 -15z m251 -45 c22 -12 37
-25 34 -29 -8 -14 -85 10 -96 30 -13 26 10 25 62 -1z m-338 -387 c31 -60 83
-114 135 -139 54 -27 155 -25 210 4 23 12 42 18 42 13 0 -19 -99 -51 -157 -51
-72 0 -128 25 -182 80 -74 76 -113 202 -95 305 8 48 9 45 14 -55 5 -87 11
-114 33 -157z m5 167 c0 -70 3 -89 31 -144 63 -128 191 -177 300 -114 44 25
53 15 10 -11 -141 -86 -323 26 -354 217 -6 39 1 132 10 132 2 0 3 -36 3 -80z
m165 46 c32 -1 61 -7 66 -12 4 -5 25 -52 46 -104 21 -52 42 -99 46 -104 5 -6
9 -22 9 -36 0 -20 -7 -29 -33 -38 -80 -29 -153 -7 -216 64 -50 57 -79 153 -66
215 6 27 9 28 48 24 23 -3 68 -7 100 -9z m314 -75 c-3 -43 -14 -84 -27 -108
-12 -21 -18 -29 -14 -18 19 56 34 123 34 157 0 21 3 38 6 38 4 0 4 -31 1 -69z
m34 -32 c-10 -59 -47 -156 -56 -147 -3 3 4 27 16 54 11 27 23 82 26 123 5 57
8 69 15 52 4 -13 4 -49 -1 -82z m-71 74 c9 -9 3 -89 -7 -108 -10 -16 -15 -11
-42 43 -40 80 -40 86 7 77 20 -4 39 -9 42 -12z m-463 -233 c31 -50 95 -107
145 -130 53 -24 153 -26 205 -5 53 22 64 17 18 -8 -31 -17 -57 -22 -115 -22
-90 0 -149 24 -211 86 -45 45 -99 150 -98 189 0 18 5 10 18 -25 9 -28 27 -66
38 -85z m550 73 c-3 -10 -5 -4 -5 12 0 17 2 24 5 18 2 -7 2 -21 0 -30z m-27
-63 c-16 -31 -23 -19 -9 16 6 16 13 24 16 17 2 -7 -1 -22 -7 -33z"/>
<path d="M1933 2283 c-10 -4 -12 -62 -11 -251 1 -136 4 -190 5 -119 4 125 4
127 27 127 45 0 55 -26 59 -155 l3 -120 2 120 c2 93 -1 125 -13 142 -13 18
-13 22 0 33 19 16 22 199 3 218 -12 12 -52 15 -75 5z m65 -15 c15 -15 16 -171
2 -199 -7 -12 -21 -19 -40 -19 l-30 0 0 109 c0 78 4 111 13 114 22 9 43 7 55
-5z"/>
<path d="M1790 2240 c-19 -19 -20 -31 -18 -207 l3 -186 26 -19 c22 -16 30 -18
48 -9 20 11 21 18 21 214 0 145 -3 206 -12 215 -18 18 -45 15 -68 -8z m68
-196 c2 -170 0 -203 -13 -214 -12 -10 -20 -9 -40 4 l-25 16 0 182 c0 156 2
184 17 200 9 10 26 18 37 16 20 -3 21 -10 24 -204z"/>
<path d="M1726 2219 c-3 -13 -12 -87 -21 -163 -8 -77 -17 -141 -18 -143 -2 -1
-12 67 -22 152 -10 85 -22 155 -27 155 -4 0 -6 -10 -3 -22 2 -13 12 -77 20
-143 9 -66 19 -142 23 -170 l8 -50 12 75 c19 119 42 323 37 328 -2 2 -6 -6 -9
-19z"/>
<path d="M1549 2173 c-2 -42 -8 -87 -24 -191 -9 -52 -14 -97 -11 -99 6 -6 13
22 21 79 4 32 11 48 23 51 16 4 16 5 0 6 -18 1 -17 33 3 111 12 46 11 70 -1
70 -5 0 -11 -12 -11 -27z"/>
<path d="M1380 2080 c-3 -84 -1 -162 5 -168 7 -7 88 -23 92 -18 3 2 -15 8 -39
13 l-43 9 -5 124 c-6 123 -6 124 -10 40z"/>
<path d="M1570 2126 c0 -40 34 -269 38 -257 2 7 -3 70 -13 140 -16 118 -25
158 -25 117z"/>
<path d="M1635 1748 c-11 -6 -33 -22 -49 -36 -26 -21 -37 -23 -80 -19 -34 4
-43 3 -26 -3 48 -16 76 -10 126 26 51 37 63 38 179 19 17 -3 8 2 -20 10 -60
17 -103 19 -130 3z"/>
<path d="M1982 1686 c150 -37 207 -56 167 -56 -8 0 -77 11 -154 25 -77 14
-153 23 -170 20 -23 -5 -26 -4 -15 4 12 8 7 11 -19 11 -66 0 -17 -18 169 -65
101 -26 188 -52 193 -58 6 -8 7 -7 5 3 -3 10 -49 26 -138 49 -74 19 -129 36
-123 38 7 3 62 -5 124 -16 63 -12 121 -21 131 -21 23 0 23 27 1 34 -45 13
-316 76 -326 75 -7 -1 63 -20 155 -43z m-109 -23 c-7 -2 -19 -2 -25 0 -7 3 -2
5 12 5 14 0 19 -2 13 -5z"/>
<path d="M1508 1633 c30 -10 50 -26 66 -52 33 -52 55 -68 106 -80 64 -15 339
-53 352 -49 6 2 -73 16 -175 31 -103 14 -200 33 -215 41 -16 8 -41 33 -56 56
-25 38 -77 71 -108 69 -7 0 6 -7 30 -16z"/>
<path d="M1750 1615 c0 -8 5 -15 11 -15 5 0 7 5 3 12 -5 8 5 9 37 5 106 -16
122 -16 64 -2 -80 19 -115 19 -115 0z"/>
<path d="M1781 1596 c8 -8 362 -76 367 -71 3 3 3 5 0 5 -2 0 -83 16 -178 35
-171 35 -197 39 -189 31z"/>
<path d="M1990 1584 c36 -7 74 -13 85 -12 11 0 -9 6 -45 14 -36 7 -74 13 -85
12 -11 0 9 -6 45 -14z"/>
<path d="M2108 1563 c6 -2 18 -2 25 0 6 3 1 5 -13 5 -14 0 -19 -2 -12 -5z"/>
<path d="M1746 1552 c-9 -15 27 -24 71 -17 28 4 33 3 18 -4 -11 -5 -15 -10
-10 -10 6 -1 77 -15 159 -31 82 -17 150 -30 153 -30 2 0 2 -4 -1 -9 -3 -5 -25
-7 -49 -5 l-42 3 40 -8 c41 -9 65 -5 65 10 0 14 -33 24 -168 49 -92 18 -122
27 -118 37 4 9 -5 13 -32 13 -20 0 -47 3 -58 6 -12 3 -25 1 -28 -4z"/>
<path d="M1915 1529 c22 -4 54 -8 70 -7 22 0 19 3 -15 9 -60 10 -108 9 -55 -2z"/>
<path d="M1488 1443 c-4 -93 11 -145 55 -191 44 -46 137 -97 243 -133 82 -27
418 -109 450 -109 20 0 18 13 -11 72 l-25 52 52 53 c28 29 50 54 47 56 -2 2
-29 9 -59 15 -92 21 -401 105 -397 109 3 2 179 -40 441 -108 l39 -11 -54 -54
c-53 -53 -53 -54 -40 -87 7 -17 18 -46 23 -64 6 -17 22 -36 35 -42 23 -10 24
-10 17 11 -3 13 -17 43 -30 68 -13 25 -24 50 -24 57 0 7 25 42 55 78 55 65 55
65 28 66 -16 0 -35 2 -43 4 -8 1 -44 8 -80 15 -76 13 -166 33 -304 67 -54 13
-101 21 -104 18 -3 -3 3 -5 13 -5 10 0 16 -2 13 -5 -3 -4 -18 -3 -33 1 -20 5
-24 9 -13 16 9 7 4 8 -14 4 -18 -4 -28 -2 -28 5 0 6 -7 9 -15 5 -8 -3 -15 -1
-15 4 0 6 -9 10 -20 10 -35 0 -131 41 -165 71 l-33 30 -4 -78z m151 -46 c31
-5 35 -14 18 -41 -21 -32 -65 -76 -77 -76 -4 0 -20 14 -34 31 -21 25 -26 41
-26 85 l0 54 50 -25 c27 -14 58 -26 69 -28z m149 -54 c45 -5 59 -23 18 -23
-13 0 -46 -17 -73 -38 -67 -53 -70 -54 -93 -42 -24 13 -26 33 -4 51 15 12 16
11 10 -8 -11 -36 12 -36 57 -2 23 18 44 34 47 36 7 6 -23 23 -42 23 -10 0 -18
-7 -18 -17 0 -13 -3 -14 -12 -5 -19 19 10 45 41 37 14 -4 45 -9 69 -12z m114
-17 c7 4 5 -2 -5 -13 -10 -11 -29 -20 -42 -20 -21 0 -22 1 -9 14 7 8 14 19 14
25 0 7 5 6 15 -2 8 -6 20 -8 27 -4z m-207 -138 c75 -35 207 -78 385 -127 41
-12 57 -18 35 -15 -81 12 -347 94 -428 133 -48 23 -105 60 -133 86 l-49 46 55
-43 c30 -24 91 -60 135 -80z m311 103 l42 -11 -26 -29 -27 -28 -16 21 c-19 24
-35 71 -23 63 5 -3 28 -10 50 -16z m-203 -13 c2 -7 -5 -23 -16 -35 -32 -36
-13 -37 27 -2 41 36 51 34 36 -6 -15 -39 -6 -42 20 -6 12 17 18 31 14 31 -14
0 31 29 45 30 10 0 11 -3 2 -13 -6 -8 -8 -17 -4 -20 3 -4 0 -7 -8 -7 -16 0
-64 -58 -56 -66 3 -3 22 11 42 32 27 27 40 33 48 25 16 -16 -3 -45 -32 -49
-11 -2 -21 -8 -21 -13 0 -12 17 -11 41 1 11 6 19 7 19 1 0 -5 -7 -12 -16 -15
-25 -10 -54 -7 -54 5 0 6 -8 8 -19 4 -11 -3 -22 -1 -25 4 -4 6 -14 7 -23 4 -9
-3 -21 0 -27 8 -6 8 -24 15 -40 16 -47 4 -54 19 -21 53 30 31 60 39 68 18z
m264 -44 c5 -15 7 -15 15 0 5 9 14 16 19 16 17 0 0 -37 -32 -71 -30 -32 -33
-53 -4 -29 13 11 14 10 9 -4 -4 -9 -3 -16 2 -14 5 2 10 -1 12 -7 2 -5 -1 -11
-7 -13 -6 -2 -11 2 -11 8 0 7 -8 9 -19 5 -11 -3 -22 -1 -25 4 -4 6 -13 8 -20
5 -25 -10 -27 15 -4 50 13 20 29 36 37 36 9 0 4 -12 -13 -35 -31 -40 -21 -47
14 -10 21 22 22 29 12 45 -15 24 -15 30 -2 30 6 0 13 -7 17 -16z m164 1 c19
-8 28 -14 22 -15 -7 0 -13 -4 -13 -10 0 -5 -14 -23 -31 -40 -31 -29 -31 -30
-15 -64 9 -19 16 -38 16 -43 0 -5 -29 -2 -65 6 l-64 15 27 25 c38 35 69 81 77
114 8 32 4 31 46 12z m-61 -1 c0 -3 -14 -25 -32 -48 -17 -22 -33 -43 -35 -45
-2 -2 -6 -2 -9 2 -8 7 54 97 66 97 6 0 10 -3 10 -6z m-210 -104 c0 -5 -5 -10
-11 -10 -5 0 -7 5 -4 10 3 6 8 10 11 10 2 0 4 -4 4 -10z m227 -96 c-3 -3 -12
-4 -19 -1 -8 3 -5 6 6 6 11 1 17 -2 13 -5z m40 -10 c-3 -3 -12 -4 -19 -1 -8 3
-5 6 6 6 11 1 17 -2 13 -5z"/>
<path d="M1758 1263 c-30 -35 -33 -46 -9 -33 22 11 38 37 29 45 -3 3 -12 -3
-20 -12z"/>
<path d="M1811 1226 c-7 -8 -8 -17 -3 -20 6 -3 13 1 16 10 9 23 2 28 -13 10z"/>
<path d="M1927 1223 c-10 -9 -9 -23 2 -23 5 0 11 7 15 15 5 15 -5 20 -17 8z"/>
<path d="M2033 1513 c9 -2 25 -2 35 0 9 3 1 5 -18 5 -19 0 -27 -2 -17 -5z"/>
<path d="M2103 1503 c9 -2 25 -2 35 0 9 3 1 5 -18 5 -19 0 -27 -2 -17 -5z"/>
<path d="M2521 1495 c1 -19 18 -51 18 -35 0 8 -4 22 -9 30 -5 8 -9 11 -9 5z"/>
<path d="M2438 1463 c7 -3 16 -2 19 1 4 3 -2 6 -13 5 -11 0 -14 -3 -6 -6z"/>
<path d="M2411 1344 c0 -11 3 -14 6 -6 3 7 2 16 -1 19 -3 4 -6 -2 -5 -13z"/>
</g>
</svg>
