<?xml version="1.0" encoding="utf-8"?>
<!-- Designed by Vexels.com - 2019 All Rights Reserved - https://vexels.com/terms-and-conditions/  -->
<svg version="1.1" id="Layer_1" xmlns="http://www.w3.org/2000/svg" xmlns:xlink="http://www.w3.org/1999/xlink" x="0px" y="0px"
	 viewBox="0 0 1200 1200" enable-background="new 0 0 1200 1200" xml:space="preserve">
<g>
	<path fill="#2F201C" d="M492.849,285.23c-66.202-18.48-93.499,30.344-105.186,77.986c-11.687,47.642-33.414,59.93-20.19,80.243
		c24.671,37.898,86.402,9.228,128.552-23.677S555.795,302.8,492.849,285.23z M466.295,399.911c-17.106,0-30.973-14.29-30.973-31.92
		c0-17.63,13.867-31.92,30.973-31.92c17.106,0,30.972,14.29,30.972,31.92C497.268,385.621,483.401,399.911,466.295,399.911z"/>
	<path fill="#2F201C" d="M701.994,285.23c-62.947,17.571-45.326,101.647-3.176,134.552c42.15,32.905,103.881,61.575,128.552,23.677
		c13.223-20.313-8.503-32.602-20.19-80.243C795.492,315.574,768.195,266.75,701.994,285.23z M736.65,398.58
		c-16.392,0-29.68-13.695-29.68-30.589s13.288-30.589,29.68-30.589s29.68,13.695,29.68,30.589S753.041,398.58,736.65,398.58z"/>
	<path fill="#2F201C" d="M466.295,347.651c-10.9,0-19.737,9.106-19.737,20.341c0,11.234,8.837,20.341,19.737,20.341
		s19.737-9.106,19.737-20.341C486.032,356.757,477.196,347.651,466.295,347.651z"/>
	<path fill="#2F201C" d="M653.922,516.227c-0.175,0.174-17.692,17.381-32.7,6.657c-16.475-11.767-11.58-42.817-11.531-43.112
		c0.116-0.683,0.129-1.356,0.088-2.019c6.847-0.999,15.434-3.564,21.069-10.003c0,0,21.282-1.901,21.282-17.102
		s-10.641-19.381-10.641-19.381h-42.373h-0.19h-42.373c0,0-10.641,4.181-10.641,19.381s21.282,17.102,21.282,17.102
		c6.18,7.063,15.908,9.467,22.996,10.252c-0.019,0.581,0.018,1.173,0.119,1.77c0.052,0.311,4.798,31.45-11.531,43.113
		c-14.821,10.59-31.938-5.911-32.72-6.679c-3.454-3.431-9.031-3.426-12.474,0.02c-3.451,3.45-3.451,9.044,0,12.494
		c6.624,6.625,19.929,15.375,34.589,15.375c6.845,0,13.987-1.908,20.878-6.831c4.635-3.31,8.2-7.365,10.948-11.784
		c2.748,4.418,6.314,8.472,10.948,11.782c6.894,4.924,14.033,6.832,20.878,6.832c14.657,0,27.965-8.751,34.589-15.375
		c3.451-3.45,3.451-9.044,0-12.494C662.965,512.775,657.373,512.775,653.922,516.227z M599.591,455.589
		c-12.593,0-22.802-2.553-22.802-5.701c0-3.149,10.209-5.701,22.802-5.701c12.593,0,22.802,2.551,22.802,5.701
		C622.393,453.036,612.184,455.589,599.591,455.589z"/>
	<path fill="#2F201C" d="M955.645,192.752c2.511-18.753-3.006-36.994-16.4-54.214c-13.881-17.847-30.496-27.929-49.385-29.967
		c-32.567-3.512-59.405,18.542-60.536,19.483c-0.431,0.36-0.808,0.758-1.153,1.175c-0.824-0.677-1.652-1.372-2.471-2.031
		C764.736,78.138,683.348,50,602.403,50c-0.839,0-1.634,0.154-2.403,0.372c-0.769-0.219-1.564-0.372-2.403-0.372
		c-80.945,0-162.333,28.138-223.298,77.199c-0.819,0.659-1.648,1.353-2.472,2.031c-0.345-0.417-0.722-0.815-1.152-1.175
		c-1.13-0.939-28.017-22.99-60.536-19.483c-18.888,2.038-35.504,12.12-49.385,29.967c-13.395,17.22-18.911,35.461-16.4,54.214
		c4.616,34.479,35.024,57.638,36.315,58.607c0.592,0.444,1.23,0.775,1.883,1.05c-13.51,34.989-22.14,76.549-22.14,125.653
		c0,103.38,39.689,187.059,114.778,241.99c13.971,10.221,29.221,19.37,45.404,27.439c-2.091,2.297-4.56,5.157-7.403,8.462
		c-19.987,23.223-57.185,66.443-105.98,75.201c-31.247,5.609-51.628,23.45-54.519,47.731c-2.531,21.255,10.024,41.806,31.239,51.142
		c12.552,5.522,25.713,7.947,38.426,7.947c20.284-0.001,39.379-6.201,52.973-15.838c-0.944,16.811-0.851,34.293,0.642,52.219
		c1.117,13.4,3.512,26.027,7.07,37.887c-0.445,0.857-0.788,1.782-0.933,2.791c-5.053,35.392,15.02,151.271,77.804,179.99
		c-0.797,7.846-0.227,20.05,7.889,31.207c11.473,15.77,33.663,23.769,65.946,23.769c36.516,0,56.25-6.587,62.109-20.732
		c4.59-11.082-0.394-24.014-14.818-38.438c-2.166-2.166-4.992-4.183-8.215-6.033c-0.105-0.551-0.255-1.099-0.471-1.638
		c-0.078-0.197-7.518-19.416-3.053-49.57c8.679,0.567,17.587,0.882,26.773,0.882c1.417,0,2.737-0.365,3.925-0.958
		c1.187,0.593,2.507,0.958,3.925,0.958c9.186,0,18.094-0.315,26.773-0.882c4.374,29.67-2.911,49.198-3.067,49.602
		c-0.209,0.529-0.354,1.068-0.456,1.608c-3.224,1.851-6.05,3.868-8.216,6.034c-14.424,14.421-19.409,27.353-14.821,38.435
		c5.859,14.145,25.595,20.732,62.112,20.732c32.283,0,54.473-7.999,65.946-23.769c8.117-11.157,8.686-23.361,7.889-31.207
		c62.791-28.722,82.858-144.599,77.802-179.993c-0.144-1.01-0.486-1.934-0.93-2.793c3.557-11.86,5.952-24.484,7.068-37.883
		c1.495-17.926,1.587-35.408,0.645-52.216c13.595,9.637,32.688,15.835,52.974,15.835c12.707,0,25.877-2.428,38.423-7.947
		c21.215-9.336,33.77-29.887,31.239-51.142c-2.891-24.281-23.271-42.122-54.516-47.731c-48.795-8.758-85.993-51.979-105.98-75.201
		c-2.843-3.305-5.312-6.165-7.403-8.462c16.183-8.069,31.433-17.218,45.404-27.439c75.089-54.931,114.778-138.61,114.778-241.99
		c0-49.104-8.629-90.664-22.14-125.653c0.653-0.275,1.291-0.605,1.882-1.05C920.621,250.39,951.029,227.231,955.645,192.752z
		 M603.925,1016.8c-1.417,0-2.737,0.364-3.925,0.958c-1.187-0.594-2.507-0.958-3.925-0.958
		c-71.146,0-192.056-18.695-202.494-143.911c-3.468-41.629,0.97-80.744,8.317-114.258c15.82-21.527,39.245-37.57,67.057-41.961
		c44.179-2.945,95.198-1.14,129.591,41.233c47.124-50.069,126.645-55.96,182.605-17.671c5.984,3.871,11.127,8.098,15.637,12.592
		c8.118,34.762,13.3,76.001,9.627,120.065C795.981,998.104,675.071,1016.8,603.925,1016.8z M921.916,378.062
		c0,230.618-200.84,292.148-319.513,292.148c-0.839,0-1.634,0.154-2.403,0.372c-0.769-0.219-1.564-0.372-2.403-0.372
		c-118.672,0-319.513-61.531-319.513-292.148c0-227.728,191.078-310.391,319.513-310.391c0.839,0,1.634-0.155,2.403-0.372
		c0.769,0.218,1.564,0.372,2.403,0.372C730.837,67.671,921.916,150.334,921.916,378.062z"/>
	<ellipse fill="#2F201C" cx="736.65" cy="367.991" rx="19.737" ry="20.341"/>
</g>
</svg>
