<?xml version="1.0" standalone="no"?>
<!DOCTYPE svg PUBLIC "-//W3C//DTD SVG 20010904//EN"
 "http://www.w3.org/TR/2001/REC-SVG-20010904/DTD/svg10.dtd">
<svg version="1.0" xmlns="http://www.w3.org/2000/svg"
 width="735.000000pt" height="490.000000pt" viewBox="0 0 735.000000 490.000000"
 preserveAspectRatio="xMidYMid meet">
<metadata>
Created by potrace 1.16, written by Peter Selinger 2001-2019
</metadata>
<g transform="translate(0.000000,490.000000) scale(0.100000,-0.100000)"
fill="#000000" stroke="none">
<path d="M1820 4425 c-20 -24 -2 -35 56 -35 l54 0 0 -430 0 -430 -60 0 c-53 0
-60 -2 -60 -20 0 -14 9 -21 33 -25 17 -3 204 -5 415 -3 370 3 384 4 399 23 12
16 14 40 9 129 -6 110 -13 129 -46 123 -8 -1 -24 -31 -36 -67 -38 -110 -95
-140 -269 -140 l-85 0 0 420 0 420 56 0 c47 0 55 3 52 18 -3 15 -20 18 -118
23 -229 13 -386 10 -400 -6z"/>
<path d="M3450 4421 c0 -23 19 -31 76 -31 l44 0 0 -425 0 -425 -43 0 c-47 0
-89 -22 -72 -38 8 -8 458 -20 513 -13 8 0 12 9 10 19 -2 13 -16 18 -53 22
l-50 5 -2 191 -2 191 141 7 c78 4 145 9 150 12 15 9 9 72 -8 78 -9 3 -76 6
-150 6 l-134 0 0 176 0 177 113 -5 c156 -7 201 -34 235 -139 14 -44 22 -55 41
-57 41 -6 51 21 51 130 0 151 41 138 -450 138 -396 0 -410 -1 -410 -19z"/>
<path d="M4452 4427 c-17 -21 -4 -27 55 -27 l53 0 0 -435 0 -435 -60 0 c-53 0
-60 -2 -60 -20 0 -20 7 -20 413 -20 388 0 415 1 430 18 22 24 25 208 4 236
-24 33 -50 15 -73 -52 -12 -34 -29 -71 -39 -82 -27 -30 -112 -51 -217 -53
l-93 -2 0 180 0 180 97 3 c85 2 99 5 108 22 6 11 8 31 4 44 -6 25 -9 25 -107
28 l-102 3 0 175 0 175 106 0 c96 -1 109 -3 151 -28 51 -30 85 -70 104 -126
15 -45 36 -60 59 -41 25 21 18 221 -8 247 -16 17 -50 18 -416 21 -328 2 -400
0 -409 -11z"/>
<path d="M2815 4420 c-12 -20 17 -40 56 -40 l39 0 0 -425 0 -425 -50 0 c-37 0
-52 -4 -57 -16 -3 -9 0 -20 8 -25 18 -11 470 -11 488 0 28 18 4 41 -44 41
l-45 0 0 425 0 425 38 0 c50 0 70 13 53 34 -12 14 -47 16 -247 16 -151 0 -235
-4 -239 -10z"/>
<path d="M2265 3386 c-5 -3 -27 -7 -48 -11 -21 -3 -53 -20 -72 -37 -29 -25
-35 -37 -35 -70 0 -49 31 -80 103 -104 83 -27 156 -64 168 -85 27 -51 -26 -89
-125 -89 -85 0 -95 5 -102 51 -6 33 -10 39 -30 39 -22 0 -24 -4 -24 -55 0 -54
0 -54 38 -64 53 -15 160 -13 218 4 83 25 127 90 98 146 -17 33 -50 52 -148 85
-93 32 -116 48 -116 82 0 51 33 72 112 72 61 0 85 -13 90 -50 2 -17 10 -26 26
-28 20 -3 22 0 22 46 0 43 -3 51 -22 55 -34 8 -141 17 -153 13z"/>
<path d="M1810 3365 c0 -10 10 -15 30 -15 l30 0 0 -180 0 -180 -30 0 c-20 0
-30 -5 -30 -15 0 -12 18 -15 106 -15 80 0 105 3 102 13 -3 6 -19 13 -36 15
l-32 3 2 177 3 177 33 3 c20 2 32 9 32 18 0 11 -20 14 -105 14 -87 0 -105 -3
-105 -15z"/>
<path d="M3055 3373 c-209 -26 -376 -104 -363 -169 2 -9 16 -26 31 -38 23 -17
42 -21 100 -20 83 0 135 15 177 51 59 49 22 54 -51 6 -71 -47 -204 -39 -197
11 4 25 65 58 158 83 103 28 371 23 629 -11 272 -36 574 -80 803 -116 504 -81
734 -83 937 -8 62 23 141 93 141 125 0 68 -182 101 -264 48 -50 -33 -21 -48
36 -19 36 18 123 21 144 3 8 -6 14 -22 14 -34 0 -51 -108 -99 -260 -116 -126
-15 -298 -1 -595 46 -200 32 -512 80 -785 119 -236 35 -361 46 -490 45 -74 -1
-148 -4 -165 -6z"/>
<path d="M2582 3008 c3 -7 17 -14 31 -16 l27 -3 0 -169 0 -168 -30 -7 c-68
-15 -22 -25 113 -25 157 0 202 8 247 46 61 52 30 144 -55 160 l-37 7 38 21
c66 37 70 102 7 143 -22 15 -54 19 -186 21 -130 3 -158 1 -155 -10z m287 -42
c26 -24 27 -70 2 -95 -23 -23 -71 -34 -122 -29 l-34 3 -3 74 -3 73 70 -4 c50
-2 75 -9 90 -22z m19 -176 c25 -15 32 -26 32 -51 0 -66 -38 -89 -146 -89 l-64
0 0 73 c0 41 3 77 7 80 3 4 36 7 72 7 48 0 75 -5 99 -20z"/>
<path d="M3072 3008 c3 -7 14 -14 26 -16 23 -4 25 -14 24 -197 0 -144 0 -142
-27 -149 -14 -4 -25 -11 -25 -16 0 -6 78 -10 205 -10 l205 0 0 51 c0 47 -2 50
-22 47 -17 -2 -24 -12 -28 -33 l-5 -30 -113 -3 -112 -3 0 81 0 80 69 0 c65 0
69 -1 75 -25 4 -16 13 -25 26 -25 18 0 20 7 20 65 0 59 -2 65 -20 65 -13 0
-24 -10 -30 -25 -9 -23 -14 -25 -75 -25 l-65 0 0 75 0 76 97 -3 c94 -3 97 -4
103 -28 4 -16 14 -26 28 -28 20 -3 22 1 22 42 l0 46 -191 0 c-148 0 -190 -3
-187 -12z"/>
<path d="M3510 2975 c0 -41 2 -45 25 -45 20 0 27 6 32 30 5 30 6 30 69 30 l64
0 0 -169 0 -169 -30 -7 c-61 -13 -27 -25 75 -25 104 0 138 12 70 24 l-35 7 0
169 0 170 65 0 c65 0 66 0 72 -30 4 -23 11 -30 29 -30 22 0 24 4 24 45 l0 45
-230 0 -230 0 0 -45z"/>
<path d="M4010 2974 c0 -41 2 -45 22 -42 14 2 24 12 28 28 5 23 11 25 73 28
l67 3 -2 -168 -3 -167 -32 -10 c-60 -17 -34 -26 72 -26 106 0 136 12 73 28
l-33 8 -3 168 -2 167 67 -3 c66 -3 68 -4 71 -30 3 -22 9 -28 28 -28 22 0 24 4
24 45 l0 45 -225 0 -225 0 0 -46z"/>
<path d="M4500 3010 c0 -6 14 -13 30 -16 l30 -6 0 -168 0 -168 -30 -7 c-75
-17 -16 -25 175 -25 l205 0 0 50 c0 43 -3 50 -20 50 -14 0 -21 -9 -26 -35 l-6
-35 -114 0 -114 0 0 80 0 81 73 -3 c66 -3 72 -5 75 -25 2 -15 10 -23 23 -23
17 0 19 7 19 65 0 57 -2 65 -19 65 -12 0 -21 -9 -25 -25 -6 -25 -9 -26 -74
-23 l-67 3 -3 73 -3 72 100 0 99 0 7 -31 c5 -24 11 -29 28 -27 18 2 22 10 22
43 l0 40 -192 3 c-130 2 -193 -1 -193 -8z"/>
<path d="M4960 3010 c0 -6 14 -13 30 -16 l30 -6 0 -168 0 -168 -30 -7 c-59
-13 -28 -25 65 -25 97 0 119 10 65 29 -31 10 -31 11 -28 78 l3 68 51 -1 c72
-2 91 -16 125 -90 23 -53 35 -68 63 -79 37 -16 83 -19 110 -9 22 8 20 24 -3
24 -49 0 -80 21 -97 68 -21 57 -31 70 -67 93 l-29 17 30 7 c111 24 108 153 -4
184 -51 14 -314 15 -314 1z m275 -34 c37 -16 52 -48 41 -91 -9 -35 -55 -55
-125 -55 l-59 0 -1 80 -1 80 55 0 c31 0 71 -6 90 -14z"/>
<path d="M4552 2510 c-95 -20 -152 -80 -152 -161 l0 -46 -57 20 c-115 39 -241
8 -277 -67 -23 -48 -20 -84 10 -144 35 -70 87 -109 259 -192 145 -70 181 -97
194 -146 5 -21 14 -30 33 -32 24 -3 25 0 32 60 8 81 41 146 115 227 l58 64 55
-36 c63 -40 70 -48 77 -96 8 -46 27 -50 44 -8 17 41 61 69 154 101 150 51 235
106 249 162 28 111 -134 191 -257 128 -26 -13 -27 -12 -33 17 -16 80 -116 126
-206 95 -42 -14 -46 -14 -65 4 -46 43 -153 66 -233 50z m153 -54 c21 -16 46
-49 57 -74 39 -87 10 -165 -120 -326 -55 -69 -85 -116 -97 -152 l-16 -53 -142
71 c-176 88 -221 118 -258 176 -76 121 3 242 139 211 55 -12 92 -31 137 -70
29 -26 36 -28 41 -15 3 9 -1 27 -10 41 -21 33 -21 113 1 145 40 59 90 81 169
77 49 -2 69 -8 99 -31z m251 -41 c44 -47 54 -97 25 -135 -26 -36 -26 -40 0
-40 12 0 37 16 55 35 90 95 223 81 240 -26 9 -57 -41 -106 -164 -159 -53 -23
-117 -53 -140 -67 -43 -25 -44 -25 -58 -5 -7 11 -39 36 -69 57 -31 20 -55 40
-53 43 75 144 85 203 49 275 l-19 38 21 9 c46 18 78 11 113 -25z"/>
<path d="M2060 2496 c0 -8 10 -16 21 -18 19 -3 28 -24 65 -148 24 -80 49 -162
54 -182 9 -30 16 -38 35 -38 21 0 28 13 76 157 60 182 52 184 120 -25 41 -125
45 -133 68 -130 22 3 28 17 75 183 46 160 54 180 74 183 12 2 22 10 22 18 0
11 -16 14 -71 14 -52 0 -70 -3 -67 -12 3 -7 14 -14 26 -16 12 -2 22 -9 22 -16
0 -13 -70 -259 -75 -264 -2 -2 -26 67 -55 152 -47 142 -54 156 -75 156 -21 0
-28 -13 -70 -142 -26 -79 -51 -147 -55 -151 -4 -4 -25 52 -47 125 l-41 133 24
3 c13 2 24 10 24 18 0 11 -17 14 -75 14 -58 0 -75 -3 -75 -14z"/>
<path d="M2690 2495 c0 -9 9 -15 25 -15 l25 0 0 -169 c0 -166 0 -170 -22 -173
-12 -2 -23 -9 -26 -15 -3 -10 17 -13 77 -13 65 0 81 3 81 15 0 9 -9 15 -25 15
-25 0 -25 1 -25 80 l0 80 110 0 110 0 0 -79 c0 -74 -2 -80 -22 -83 -12 -2 -23
-9 -26 -15 -3 -10 17 -13 77 -13 82 0 104 12 56 30 l-25 10 2 162 c3 160 3
163 26 166 12 2 22 10 22 18 0 11 -17 14 -81 14 -60 0 -80 -3 -77 -12 3 -7 14
-14 26 -16 20 -3 22 -9 22 -78 l0 -74 -110 0 -110 0 0 75 c0 73 1 75 25 75 16
0 25 6 25 15 0 12 -16 15 -80 15 -64 0 -80 -3 -80 -15z"/>
<path d="M3177 2504 c-10 -11 3 -24 24 -24 18 0 19 -8 19 -169 0 -166 0 -170
-22 -173 -12 -2 -23 -9 -26 -15 -3 -10 35 -13 167 -13 l171 0 0 50 c0 59 -24
70 -38 18 l-8 -33 -92 -3 -92 -3 0 81 0 80 59 0 c54 0 60 -2 63 -22 2 -13 11
-24 21 -26 15 -3 17 5 17 62 0 59 -2 66 -19 66 -13 0 -21 -8 -23 -22 -3 -20
-10 -23 -60 -26 l-58 -3 0 76 0 75 80 0 81 0 6 -30 c4 -21 11 -30 24 -30 16 0
19 8 19 45 l0 45 -153 0 c-85 0 -157 -3 -160 -6z"/>
<path d="M3550 2495 c0 -9 9 -15 25 -15 l25 0 0 -165 0 -165 -25 -10 c-46 -18
-27 -30 46 -30 52 0 70 3 67 13 -3 6 -14 13 -26 15 -21 3 -22 7 -22 153 l0
150 123 -165 c93 -126 127 -165 144 -166 22 0 23 1 25 183 3 180 3 182 26 185
12 2 22 10 22 18 0 11 -16 14 -71 14 -52 0 -70 -3 -67 -12 3 -7 14 -14 26 -16
21 -3 22 -7 22 -144 l0 -141 -80 109 c-44 60 -95 130 -113 156 -32 47 -32 47
-89 48 -45 0 -58 -3 -58 -15z"/>
<path d="M1961 2018 c-92 -94 -157 -431 -149 -766 6 -229 25 -282 102 -282 30
0 78 39 107 88 12 20 24 39 26 42 3 3 12 -5 21 -18 9 -12 31 -26 48 -31 73
-21 157 58 246 232 l37 72 -6 -155 c-6 -169 3 -232 38 -250 31 -17 74 15 110
83 26 49 33 56 42 43 20 -26 78 -44 114 -35 38 11 149 127 184 193 13 25 27
46 30 46 4 0 1 -28 -7 -62 -7 -35 -18 -117 -25 -183 -14 -148 -7 -175 46 -175
45 0 97 50 144 140 19 36 35 67 37 68 1 2 12 -6 23 -17 25 -25 88 -28 130 -7
34 18 82 72 113 126 13 22 26 40 31 40 4 0 7 -46 7 -103 l0 -102 -75 -59
c-120 -94 -267 -253 -305 -329 -84 -171 -29 -307 124 -307 77 0 129 24 179 79
75 84 103 186 116 435 l9 165 53 50 54 49 5 -46 c8 -77 28 -60 101 88 69 138
128 219 182 247 29 14 31 14 44 -3 17 -22 12 -76 -18 -223 -37 -180 -23 -251
51 -251 32 0 43 6 69 36 16 20 44 71 62 113 42 98 49 105 49 48 0 -87 47 -135
105 -109 32 15 72 76 101 154 l23 63 0 -82 c1 -89 11 -127 36 -136 22 -9 45
32 101 186 74 207 148 357 174 357 20 0 22 -84 5 -324 -24 -336 -13 -406 60
-406 32 0 60 44 111 173 l38 97 21 -20 c25 -24 84 -26 124 -6 33 18 104 93
125 135 9 17 19 31 21 31 3 0 5 -47 5 -103 l0 -104 -101 -84 c-111 -91 -221
-209 -265 -285 -51 -86 -61 -189 -27 -257 48 -96 242 -87 327 14 69 81 101
209 112 453 l7 146 59 51 c58 50 118 137 118 172 0 10 -8 17 -19 17 -13 0 -27
-15 -42 -47 -23 -48 -94 -133 -110 -133 -5 0 -10 64 -11 143 -3 133 -4 142
-23 145 -16 2 -29 -15 -64 -83 -81 -160 -175 -231 -210 -160 -13 27 -13 39 2
107 29 143 87 238 158 259 51 16 85 1 105 -47 10 -24 20 -34 32 -32 28 6 18
59 -19 92 -29 26 -37 28 -95 24 -118 -7 -160 -63 -249 -331 -64 -197 -124
-332 -138 -318 -18 18 -19 154 -3 377 16 211 14 287 -6 327 -12 24 -59 22 -92
-4 -31 -24 -108 -180 -161 -324 -20 -55 -41 -107 -46 -115 -5 -9 -6 51 -3 151
5 127 4 168 -6 174 -21 13 -35 -16 -89 -181 -51 -159 -88 -234 -116 -234 -29
0 -37 100 -22 288 8 90 7 103 -8 108 -9 4 -18 4 -21 1 -3 -3 -23 -65 -45 -139
-50 -171 -93 -276 -129 -319 -58 -69 -69 7 -30 206 27 139 29 209 5 235 -22
24 -74 26 -114 6 -32 -17 -98 -87 -130 -138 -12 -21 -24 -38 -25 -38 -1 0 26
84 60 188 147 440 161 592 52 592 -91 0 -149 -188 -184 -599 -22 -259 -18
-242 -77 -307 l-52 -57 -7 54 c-3 30 -6 96 -7 147 -1 84 -3 92 -21 92 -14 0
-31 -23 -65 -89 -75 -145 -166 -224 -202 -176 -27 38 -11 154 36 260 58 132
174 176 221 85 21 -42 37 -50 46 -25 20 52 -40 105 -119 105 -109 0 -173 -74
-238 -273 -56 -172 -153 -348 -181 -331 -21 13 14 299 61 503 11 50 8 61 -18
61 -10 0 -24 -15 -35 -37 -60 -129 -176 -293 -233 -333 -87 -60 -121 67 -57
209 24 54 22 77 -8 66 -18 -7 -34 -42 -83 -179 -36 -100 -82 -196 -95 -196
-23 0 -26 192 -6 395 7 72 11 133 9 138 -11 19 -42 5 -52 -25 -11 -30 -12 -30
-30 -14 -48 44 -152 36 -214 -15 -42 -34 -88 -124 -112 -218 -21 -81 -63 -165
-109 -216 -34 -38 -36 -39 -50 -21 -22 27 -38 119 -33 179 2 32 32 125 75 237
135 352 180 552 137 600 -28 31 -77 26 -114 -12z m76 -87 c-3 -42 -20 -123
-37 -180 -38 -127 -133 -391 -140 -391 -9 0 8 194 25 294 29 172 66 281 111
335 38 45 48 31 41 -58z m1761 -25 c4 -70 -28 -201 -100 -418 -76 -230 -75
-231 -43 52 30 256 81 436 122 428 14 -3 19 -15 21 -62z m-1454 -447 c14 -11
26 -29 26 -40 0 -50 -139 -283 -191 -319 -83 -60 -110 60 -50 220 31 81 56
117 98 139 49 26 84 26 117 0z m2807 -719 c-13 -146 -28 -209 -66 -279 -35
-63 -79 -98 -143 -113 -44 -10 -55 -9 -89 9 -70 36 -79 133 -23 248 29 60 124
167 232 262 l93 81 3 -41 c2 -23 -1 -98 -7 -167z m-1746 148 c-2 -29 -7 -96
-10 -148 -11 -173 -50 -287 -119 -348 -66 -58 -161 -65 -208 -15 -20 21 -23
35 -23 96 0 96 33 160 138 273 83 89 201 194 218 194 5 0 7 -23 4 -52z"/>
<path d="M2484 1976 c-17 -7 -41 -27 -53 -42 -20 -25 -22 -38 -19 -93 4 -56 8
-67 36 -92 81 -73 205 -24 218 87 12 99 -93 180 -182 140z m117 -45 c17 -21
20 -37 17 -88 -6 -89 -42 -122 -111 -100 -34 11 -57 53 -57 106 0 54 19 91 53
106 39 16 73 8 98 -24z"/>
<path d="M2150 1971 c0 -5 6 -11 13 -14 8 -3 30 -33 50 -67 28 -46 37 -73 37
-106 0 -32 -4 -44 -15 -44 -8 0 -15 -4 -15 -10 0 -5 23 -10 50 -10 28 0 50 5
50 10 0 6 -7 10 -15 10 -11 0 -15 12 -15 45 0 36 8 58 43 110 23 35 48 65 55
65 6 0 12 5 12 10 0 6 -21 10 -47 10 -43 -1 -46 -2 -30 -15 18 -13 18 -16 -13
-59 -17 -25 -33 -46 -35 -46 -1 0 -15 21 -31 47 -17 30 -23 48 -16 51 28 9 8
22 -33 22 -25 0 -45 -4 -45 -9z"/>
<path d="M2701 1967 c13 -10 18 -34 20 -110 3 -72 8 -100 20 -112 35 -35 133
-36 168 -1 12 13 17 41 19 116 3 78 7 100 18 100 8 0 14 5 14 10 0 6 -20 10
-45 10 -25 0 -45 -4 -45 -10 0 -5 7 -10 15 -10 12 0 15 -17 15 -93 0 -106 -11
-127 -68 -127 -57 0 -72 27 -72 130 0 73 3 90 15 90 8 0 15 5 15 10 0 6 -24
10 -52 10 -45 -1 -50 -3 -37 -13z"/>
<path d="M3050 1971 c0 -5 4 -11 9 -13 6 -1 12 -47 14 -102 4 -89 2 -100 -16
-117 -21 -19 -20 -19 31 -19 29 0 52 5 52 10 0 6 -7 10 -15 10 -20 0 -21 85
-1 93 30 12 53 -6 77 -56 22 -48 27 -52 63 -55 25 -2 36 0 31 7 -3 6 -15 11
-25 11 -14 0 -23 12 -31 41 -7 22 -22 47 -33 55 -11 8 -15 14 -8 14 19 0 52
38 52 60 0 12 -11 32 -25 45 -21 22 -33 25 -100 25 -41 0 -75 -4 -75 -9z"/>
<path d="M3310 1971 c0 -5 7 -11 15 -15 12 -4 15 -26 15 -106 0 -80 -3 -102
-15 -106 -39 -15 -6 -24 88 -24 l103 0 2 30 c2 21 -2 30 -13 30 -8 0 -15 -9
-15 -20 0 -18 -7 -20 -61 -20 l-60 0 3 53 c3 51 4 52 36 55 27 3 35 -1 39 -17
9 -37 23 -22 23 24 0 47 -14 60 -25 24 -5 -16 -14 -19 -38 -17 -31 3 -32 5
-35 51 l-3 47 49 0 c41 0 51 -3 55 -20 8 -31 27 -24 27 10 l0 30 -95 0 c-52 0
-95 -4 -95 -9z"/>
</g>
</svg>
