<?xml version="1.0" standalone="no"?>
<!DOCTYPE svg PUBLIC "-//W3C//DTD SVG 20010904//EN"
 "http://www.w3.org/TR/2001/REC-SVG-20010904/DTD/svg10.dtd">
<svg version="1.0" xmlns="http://www.w3.org/2000/svg"
 width="736.000000pt" height="595.000000pt" viewBox="0 0 736.000000 595.000000"
 preserveAspectRatio="xMidYMid meet">
<metadata>
Created by potrace 1.16, written by Peter Selinger 2001-2019
</metadata>
<g transform="translate(0.000000,595.000000) scale(0.100000,-0.100000)"
fill="#000000" stroke="none">
<path d="M4263 4038 c-42 -30 -63 -74 -63 -136 0 -59 23 -93 83 -123 59 -30
77 -48 77 -78 -1 -47 -61 -101 -113 -101 -20 0 -32 8 -47 33 l-20 32 0 -27 c0
-33 47 -75 97 -84 79 -15 173 57 173 131 0 48 -27 73 -95 90 -76 19 -110 53
-102 103 8 44 50 99 92 119 31 15 36 15 60 -1 25 -16 26 -22 21 -64 -6 -43 -5
-46 9 -28 26 34 19 93 -14 127 -38 38 -109 41 -158 7z"/>
<path d="M2580 4040 c-38 -6 -41 -8 -22 -15 20 -7 22 -13 22 -86 0 -129 -34
-245 -88 -301 -30 -32 -58 -35 -88 -10 -42 34 -48 60 -52 230 -4 143 -2 162
12 162 9 0 16 5 16 10 0 7 -22 10 -56 8 l-56 -3 1 -160 c2 -185 10 -226 56
-272 36 -36 75 -42 134 -22 69 24 130 161 137 309 6 119 11 140 29 140 8 0 15
5 15 10 0 6 -3 9 -7 8 -5 0 -28 -4 -53 -8z"/>
<path d="M3835 4040 c-19 -9 -19 -9 3 -16 22 -6 24 -10 18 -58 -4 -28 -7 -124
-7 -213 -1 -131 -4 -163 -15 -163 -8 0 -14 -4 -14 -10 0 -5 23 -10 50 -10 46
0 51 3 61 27 5 15 7 50 3 80 -10 81 8 73 98 -45 27 -34 52 -62 58 -62 16 0 12
7 -33 63 -23 28 -52 66 -65 84 l-22 32 57 30 c134 72 145 205 22 253 -47 18
-179 23 -214 8z m202 -25 c58 -24 73 -43 73 -89 0 -59 -29 -99 -94 -131 -84
-41 -89 -35 -81 87 8 141 10 148 41 148 13 0 41 -7 61 -15z"/>
<path d="M1907 4030 c-46 -9 -60 -20 -24 -20 l27 0 0 -113 c0 -63 -3 -155 -7
-206 -6 -85 -8 -92 -30 -97 -12 -4 -23 -10 -23 -15 0 -9 112 -5 205 7 82 10
134 69 120 134 -8 36 -60 100 -81 100 -8 0 -14 5 -14 10 0 6 6 10 13 10 7 0
28 13 47 28 28 24 34 36 34 67 0 82 -118 124 -267 95z m203 -28 c44 -24 58
-63 35 -98 -17 -27 -86 -63 -120 -64 -18 0 -20 6 -17 67 4 102 8 113 40 113
15 0 43 -8 62 -18z m-4 -211 c41 -25 61 -80 44 -121 -14 -33 -79 -70 -123 -70
l-27 0 0 105 0 105 38 0 c20 0 51 -9 68 -19z"/>
<path d="M2695 4030 c-4 -6 12 -10 41 -10 l47 0 -4 -222 -4 -223 41 -3 42 -3
6 198 c9 259 8 253 56 253 21 0 42 5 45 10 4 6 -41 10 -129 10 -79 0 -137 -4
-141 -10z"/>
<path d="M3245 4030 c-3 -5 3 -10 14 -10 21 0 21 -5 21 -211 0 -190 -2 -213
-17 -225 -16 -12 -9 -13 47 -14 l65 0 3 132 c3 143 5 148 60 148 17 0 32 5 32
10 0 6 -19 9 -42 8 l-43 -3 0 75 0 75 68 3 c37 2 67 7 67 12 0 13 -267 13
-275 0z"/>
<path d="M4515 4030 c-4 -6 12 -10 39 -10 l46 0 0 -225 0 -225 39 0 38 0 7 77
c3 42 6 126 6 187 0 61 3 128 6 149 6 36 8 37 50 37 24 0 44 5 44 10 0 6 -51
10 -134 10 -79 0 -137 -4 -141 -10z"/>
<path d="M3590 4020 c0 -5 9 -10 21 -10 20 0 20 -3 17 -207 -2 -154 -6 -207
-15 -211 -34 -11 -6 -22 57 -22 40 0 70 4 70 10 0 6 -7 10 -16 10 -15 0 -16
18 -10 188 8 205 12 232 31 232 8 0 17 5 20 10 4 6 -27 10 -84 10 -54 0 -91
-4 -91 -10z"/>
<path d="M1442 3695 c-48 -15 -85 -36 -124 -73 l-27 -25 -48 31 c-160 101
-280 79 -352 -65 -27 -54 -51 -154 -51 -215 0 -40 3 -48 19 -48 15 0 20 10 25
60 13 112 71 243 120 269 37 20 116 9 191 -28 36 -18 65 -36 65 -40 0 -4 -13
-32 -29 -62 -100 -184 -158 -454 -167 -769 -7 -220 7 -343 51 -477 68 -206
207 -290 341 -208 85 53 193 206 279 397 22 48 42 88 45 88 3 0 13 -22 23 -50
32 -90 91 -140 167 -140 94 0 171 71 217 201 25 71 31 79 54 79 34 0 87 18
120 41 l27 19 5 -248 c4 -177 10 -268 22 -321 37 -167 83 -241 147 -241 90 0
148 150 148 381 0 178 -46 350 -119 446 l-40 51 68 -34 c81 -41 198 -68 255
-58 23 3 57 15 77 25 l37 18 5 -252 c4 -200 9 -271 25 -343 35 -161 80 -234
145 -234 87 0 147 151 147 368 -1 210 -48 382 -132 478 l-32 36 73 -37 c131
-66 247 -77 333 -34 l36 19 7 -43 c18 -106 74 -196 148 -234 44 -22 133 -21
187 3 61 28 155 110 210 183 25 33 48 60 52 60 4 1 10 -16 14 -36 31 -166 148
-251 306 -223 84 16 145 49 221 120 80 74 146 172 277 410 143 258 194 331
267 380 24 15 61 31 82 35 44 7 116 -9 150 -34 l23 -18 -28 -54 c-35 -68 -39
-147 -8 -199 79 -136 216 -1 160 158 -8 23 -25 55 -38 72 l-23 32 35 29 c19
16 80 52 135 79 126 63 250 92 395 93 115 1 189 -13 263 -50 62 -31 91 -28 95
11 14 123 -328 150 -612 49 -101 -36 -201 -87 -276 -142 l-65 -46 -55 29 c-45
24 -67 30 -120 30 -146 1 -219 -78 -410 -444 -115 -220 -201 -351 -269 -412
-55 -49 -138 -89 -197 -96 -38 -4 -47 -1 -73 25 -16 16 -35 50 -42 74 -12 45
-16 203 -5 237 4 12 29 28 67 41 124 46 171 144 88 186 -43 23 -153 19 -206
-6 -56 -27 -106 -93 -127 -167 -20 -72 -73 -156 -151 -240 -106 -115 -191
-156 -233 -114 -29 29 -52 114 -52 193 0 115 3 120 79 152 114 46 156 116 102
170 -19 19 -32 22 -114 22 -81 0 -96 -3 -128 -25 -49 -33 -95 -103 -112 -170
-21 -80 -65 -113 -156 -118 -94 -6 -206 28 -275 83 -23 18 -23 78 0 225 31
200 79 323 131 336 35 9 53 -17 53 -78 0 -41 3 -48 20 -48 18 0 20 7 20 59 0
196 -204 177 -298 -27 -41 -89 -66 -186 -88 -347 -11 -83 -23 -137 -33 -149
-69 -80 -247 -73 -387 16 -48 31 -47 21 -18 229 18 136 38 211 72 279 49 98
112 92 112 -11 0 -50 7 -63 29 -49 21 12 10 124 -16 158 -66 88 -201 23 -274
-132 -45 -97 -99 -345 -99 -459 0 -28 -8 -42 -39 -70 -41 -37 -107 -65 -121
-51 -5 5 -5 29 0 54 14 71 12 226 -4 264 -36 87 -132 102 -171 26 -14 -28 -17
-29 -64 -23 -27 3 -61 3 -74 -1 -85 -21 -157 -160 -157 -304 0 -122 -233 -537
-339 -605 -29 -17 -33 -18 -55 -4 -85 56 -132 425 -107 836 17 264 76 581 107
574 5 -1 36 -18 69 -37 145 -88 245 -69 245 47 0 85 -50 164 -125 198 -47 22
-65 22 -123 4z m106 -49 c34 -18 65 -51 86 -93 38 -76 3 -124 -75 -103 -50 14
-154 65 -164 80 -9 14 39 95 67 115 28 19 51 19 86 1z m4059 -421 c31 -54 32
-146 3 -175 -70 -70 -132 68 -79 177 26 54 45 53 76 -2z m-3415 -251 c17 -40
20 -62 16 -153 -2 -58 -8 -114 -14 -124 -10 -17 -12 -17 -37 4 -50 39 -72 95
-72 184 0 94 18 135 61 135 20 0 29 -9 46 -46z m-123 -227 c21 -43 73 -99 101
-109 21 -7 -48 -155 -95 -204 -48 -51 -75 -55 -104 -18 -33 41 -45 100 -45
219 -1 157 34 279 88 303 20 9 21 6 27 -68 4 -49 14 -95 28 -123z m499 -87
c61 -81 95 -234 94 -425 0 -121 -3 -150 -23 -210 -19 -55 -28 -70 -44 -70 -25
0 -40 63 -54 233 -13 145 -15 502 -3 502 5 0 18 -13 30 -30z m607 -10 c91
-144 122 -507 55 -657 -18 -41 -41 -55 -56 -32 -28 47 -62 729 -36 729 7 0 23
-18 37 -40z"/>
</g>
</svg>
