<?xml version="1.0" standalone="no"?>
<!DOCTYPE svg PUBLIC "-//W3C//DTD SVG 20010904//EN"
 "http://www.w3.org/TR/2001/REC-SVG-20010904/DTD/svg10.dtd">
<svg version="1.0" xmlns="http://www.w3.org/2000/svg"
 width="300.000000pt" height="440.000000pt" viewBox="0 0 300.000000 440.000000"
 preserveAspectRatio="xMidYMid meet">
<metadata>
Created by potrace 1.10, written by Peter Selinger 2001-2011
</metadata>
<g transform="translate(0.000000,440.000000) scale(0.100000,-0.100000)"
fill="#000000" stroke="none">
<path d="M2937 4333 c-5 -26 -2 -42 7 -32 9 11 15 59 7 59 -5 0 -11 -12 -14
-27z"/>
<path d="M2935 4165 c0 -69 3 -125 8 -125 8 0 9 4 11 143 0 67 -3 107 -9 107
-6 0 -10 -47 -10 -125z"/>
<path d="M1415 4219 c-281 -28 -524 -201 -694 -497 -24 -41 -41 -75 -38 -78
13 -14 156 55 282 137 183 118 283 146 475 136 176 -10 290 -57 400 -167 52
-52 130 -168 130 -193 0 -2 -32 -8 -71 -11 -98 -10 -213 -42 -284 -79 -33 -17
-92 -63 -131 -102 -93 -92 -154 -213 -184 -362 -11 -55 -20 -111 -20 -124 0
-33 -250 -287 -308 -313 -43 -19 -43 -19 -86 2 -83 42 -125 27 -162 -56 -38
-87 -132 -240 -186 -303 -64 -77 -87 -117 -94 -171 -9 -65 9 -110 76 -185 l58
-65 -65 -77 c-36 -42 -74 -94 -83 -115 -17 -37 -23 -40 -91 -58 -139 -35 -137
-33 -191 -193 -60 -182 -135 -430 -143 -478 -5 -32 -2 -41 22 -63 15 -14 55
-42 87 -62 l60 -37 -43 -3 c-58 -4 -91 -27 -91 -62 0 -35 29 -60 87 -75 l47
-12 -52 -17 c-62 -21 -87 -51 -73 -87 19 -52 61 -74 188 -99 233 -46 539 -43
641 7 45 22 55 60 22 93 l-20 20 42 -7 c24 -4 119 -7 211 -7 l169 -1 22 26
c22 25 24 26 212 32 543 19 1027 154 1166 328 l29 36 -36 131 c-19 73 -38 139
-41 147 -4 9 -1 15 8 15 8 0 25 10 37 22 13 12 36 22 50 22 33 1 129 81 138
114 3 13 3 54 1 92 -7 87 -30 123 -91 139 -24 6 -49 16 -55 23 -5 7 -19 60
-30 118 -45 231 -45 259 0 380 46 123 88 311 95 425 7 108 -19 338 -49 440
-66 228 -239 433 -442 525 -43 20 -66 36 -66 47 0 44 -75 265 -113 333 -51 90
-177 221 -262 272 -126 76 -301 113 -460 97z m290 -54 c163 -54 246 -113 348
-247 31 -40 70 -103 87 -139 27 -59 85 -257 77 -265 -2 -2 -17 0 -35 5 -17 5
-60 12 -96 16 -51 6 -67 11 -71 26 -13 39 -107 171 -162 226 -63 63 -155 117
-237 140 -28 7 -103 16 -166 20 -190 9 -297 -24 -533 -165 -130 -78 -191 -112
-201 -112 -8 0 18 40 86 136 136 192 340 334 538 373 30 6 64 13 75 15 52 13
216 -4 290 -29z m430 -671 c340 -67 574 -359 627 -781 13 -111 4 -332 -19
-436 l-18 -78 -70 -30 c-38 -16 -82 -42 -97 -58 -36 -40 -52 -122 -43 -228 6
-68 11 -89 32 -113 21 -26 32 -30 73 -30 l48 0 18 -81 c9 -44 23 -87 30 -94 8
-7 31 -16 53 -20 58 -10 72 -25 87 -94 14 -69 9 -124 -12 -142 -12 -10 -14 1
-14 62 0 96 -19 130 -86 153 -26 9 -50 14 -52 11 -7 -7 -3 -9 43 -26 54 -20
70 -54 70 -150 0 -84 -18 -119 -59 -119 -20 0 -21 5 -22 98 0 119 -16 155 -77
183 -62 28 -80 22 -21 -6 30 -15 56 -35 62 -50 15 -32 16 -209 2 -236 -19 -35
-48 -24 -60 24 -25 91 -72 223 -87 239 -9 10 -22 18 -30 18 -17 0 -17 4 9 53
47 90 25 184 -79 338 -69 102 -86 138 -75 152 23 28 92 209 106 279 17 82 22
268 7 268 -5 0 -11 -53 -13 -117 -4 -86 -11 -136 -27 -183 -32 -93 -93 -222
-101 -213 -10 11 -48 132 -53 168 -3 20 -4 15 -6 -17 -1 -41 -4 -48 -21 -48
-24 0 -46 -33 -55 -81 -12 -67 49 -207 115 -262 33 -28 102 -38 115 -17 12 19
22 9 51 -51 35 -74 36 -129 4 -209 -25 -64 -58 -110 -100 -140 l-30 -21 5 48
5 48 -15 -45 c-8 -24 -21 -49 -27 -56 -12 -10 -154 -54 -177 -54 -16 0 -14 98
3 153 8 26 10 47 6 47 -15 0 -40 -93 -40 -151 0 -62 -7 -69 -76 -69 -54 0 -67
26 -62 127 3 48 8 97 13 108 6 15 5 17 -4 9 -17 -15 -41 -110 -41 -161 0 -49
-7 -53 -40 -18 -20 22 -22 31 -18 87 9 109 64 185 151 209 26 7 78 9 137 6 76
-5 90 -4 70 5 -14 7 -70 12 -125 12 -91 1 -104 -1 -145 -26 -25 -14 -52 -38
-60 -52 -15 -28 -40 -35 -40 -11 0 57 70 135 121 135 59 0 119 22 162 60 41
37 42 39 42 101 0 56 -7 78 -54 179 -84 179 -181 305 -305 397 -57 42 -63 44
-120 42 -45 -2 -74 4 -110 20 -166 73 -343 99 -464 67 -29 -7 -52 -11 -52 -8
0 3 45 51 100 107 54 57 101 113 104 126 2 13 12 65 21 114 32 172 93 294 194
388 98 90 202 134 386 161 43 6 138 -2 230 -20z m-676 -909 c30 -9 81 -30 114
-45 49 -24 70 -29 125 -28 81 2 108 -10 196 -92 81 -76 155 -183 217 -314 52
-111 65 -164 55 -220 -9 -47 -46 -72 -141 -95 -116 -29 -141 -50 -176 -143
-12 -32 -25 -58 -30 -58 -16 0 -58 86 -93 191 -68 205 -81 407 -37 569 23 83
27 116 11 89 -21 -36 -60 -227 -60 -293 0 -252 121 -618 196 -589 18 7 10 -19
-18 -60 -29 -41 -161 -135 -263 -186 l-90 -46 -134 -3 c-74 -2 -138 1 -143 6
-18 18 2 60 32 65 15 3 44 22 64 41 29 27 37 41 34 63 -4 40 -78 66 -163 57
-71 -6 -105 -25 -105 -58 0 -33 43 -82 85 -98 29 -10 35 -17 35 -40 0 -27 -2
-28 -49 -28 -26 0 -76 3 -110 7 -57 5 -67 10 -116 55 -32 29 -65 72 -81 104
-25 52 -26 59 -15 102 7 26 16 72 21 102 12 78 21 110 31 110 5 0 9 -11 9 -25
0 -14 9 -43 20 -64 53 -106 161 -110 199 -8 29 77 -1 226 -62 302 -41 51 -80
46 -121 -15 l-16 -24 0 29 c0 17 -7 55 -15 85 -8 30 -15 59 -15 63 0 16 71 37
125 37 49 0 55 2 55 21 0 20 -4 21 -63 17 -44 -3 -72 -10 -94 -26 l-32 -23
-10 39 c-20 71 -31 144 -31 197 0 55 0 55 85 121 60 47 134 81 237 109 78 21
108 25 188 21 52 -3 119 -12 149 -21z m-590 -36 c17 -6 31 -14 31 -19 0 -4
-18 -20 -40 -35 -22 -15 -40 -32 -40 -36 0 -5 -4 -9 -10 -9 -5 0 -7 8 -4 18 5
14 4 15 -5 2 -31 -45 -21 -194 25 -375 45 -173 33 -282 -46 -441 -43 -86 -106
-159 -114 -133 -2 8 -6 52 -9 100 -5 99 -33 169 -101 253 -67 83 -76 98 -76
139 0 53 19 91 82 170 30 38 89 136 132 217 42 82 82 151 89 154 21 8 53 6 86
-5z m1431 -411 c14 -47 78 -179 116 -240 14 -21 22 -43 19 -48 -4 -6 -24 -10
-45 -10 -52 0 -91 35 -132 118 -51 103 -44 222 12 222 11 0 21 -14 30 -42z
m380 -71 l-39 -113 13 -97 c11 -91 11 -97 -6 -103 -28 -9 -74 5 -94 28 -16 17
-19 37 -19 142 0 153 11 176 105 223 36 18 68 33 72 33 4 0 -10 -51 -32 -113z
m-1682 -110 c32 -34 70 -134 78 -205 7 -63 -1 -78 -24 -42 -26 42 -121 13
-141 -44 -8 -20 -8 -20 -21 4 -18 34 -24 147 -11 198 12 44 64 112 85 112 7 0
22 -10 34 -23z m-393 -240 c3 -18 9 -72 14 -121 7 -69 13 -93 27 -103 10 -7
24 -11 30 -9 7 3 15 -9 18 -29 4 -18 20 -51 36 -74 l30 -41 -25 -16 c-28 -18
-86 -14 -112 7 -35 30 -56 93 -56 167 1 40 -1 71 -3 69 -3 -2 -9 -30 -14 -62
-8 -51 -7 -65 14 -117 l24 -59 -31 6 c-48 10 -72 29 -92 72 -28 58 -31 122 -8
174 22 49 124 179 135 172 4 -2 10 -18 13 -36z m425 -80 c12 -4 11 -6 -3 -6
-10 -1 -15 -5 -12 -11 4 -6 -5 -9 -22 -7 -40 5 -63 17 -63 33 0 7 8 18 18 23
9 6 13 11 9 11 -5 0 -5 5 -2 11 4 6 17 -1 34 -19 14 -16 33 -32 41 -35z m6 49
c22 -17 11 -35 -13 -20 -19 12 -29 34 -16 34 5 0 18 -6 29 -14z m-252 -117
c-24 -47 -21 -101 10 -160 14 -28 26 -52 26 -54 0 -1 -11 0 -24 2 -34 7 -72
51 -85 98 -10 37 -9 41 18 70 16 16 37 46 46 65 10 19 20 30 22 23 2 -6 -3
-26 -13 -44z m1101 4 c-20 -49 -27 -92 -21 -138 l6 -50 -55 3 c-61 4 -67 12
-30 36 29 19 70 88 80 134 4 17 11 32 17 32 6 0 7 -8 3 -17z m-1475 -72 c0
-14 -10 -20 -38 -25 -47 -7 -80 -39 -63 -60 19 -23 125 -66 226 -91 52 -13
201 -36 332 -51 203 -24 277 -28 503 -27 188 0 301 5 390 17 413 55 603 107
693 190 50 46 67 36 101 -59 50 -137 146 -506 137 -524 -63 -115 -399 -244
-786 -302 -252 -37 -670 -41 -1000 -9 -209 21 -492 83 -635 140 -88 35 -185
89 -213 118 l-26 27 20 65 c11 36 40 139 65 230 25 91 57 200 70 243 28 85 41
97 133 122 70 19 91 18 91 -4z m10 -49 c0 -9 9 -34 20 -55 11 -20 17 -37 14
-37 -20 0 -134 64 -131 73 2 7 21 17 43 24 53 16 54 16 54 -5z m790 -20 c14
-16 34 -32 45 -36 17 -7 13 -11 -28 -27 -43 -17 -51 -17 -81 -5 -36 15 -66 51
-65 76 0 10 3 9 9 -5 8 -20 9 -20 9 1 1 29 6 32 49 27 25 -2 45 -12 62 -31z
m58 22 c12 -8 22 -19 22 -25 0 -17 -29 -9 -57 16 -25 22 -26 24 -8 25 11 0 31
-7 43 -16z m626 -104 c25 -11 52 -20 60 -20 29 0 16 -18 -16 -22 -20 -3 -43 2
-64 14 -19 11 -58 20 -100 23 l-69 4 56 -9 c31 -5 72 -15 90 -23 34 -13 32
-14 -81 -30 -113 -16 -230 -27 -230 -21 0 2 28 17 63 34 34 16 76 41 92 55 27
23 36 25 92 21 34 -3 82 -14 107 -26z m-1029 -42 c20 -20 20 -20 -20 -14 -22
3 -50 6 -63 6 -19 0 -21 2 -10 19 15 24 63 18 93 -11z m-537 -661 c195 -71
489 -118 835 -133 86 -4 157 -10 157 -14 0 -11 -50 -30 -94 -36 -22 -3 -124 2
-225 10 -102 9 -186 14 -189 12 -2 -2 17 -13 41 -24 47 -21 67 -53 47 -77 -54
-65 -517 -66 -736 0 -59 17 -97 53 -92 87 4 30 62 59 137 68 63 7 57 12 -50
35 -46 9 -84 23 -94 35 -48 52 52 102 150 74 22 -6 73 -23 113 -37z"/>
<path d="M1795 3156 c-95 -22 -168 -53 -249 -106 -119 -78 -169 -188 -111
-245 28 -29 30 -29 187 -25 106 2 121 0 171 -23 61 -28 101 -66 188 -178 99
-130 158 -169 254 -169 95 0 146 36 188 130 15 34 20 66 20 133 -1 81 -3 94
-38 165 -48 97 -161 215 -250 260 -122 61 -253 82 -360 58z m185 -16 c84 -14
210 -75 277 -134 70 -63 148 -181 162 -246 23 -107 6 -208 -46 -276 -33 -44
-70 -57 -151 -52 -92 5 -119 24 -238 172 -57 70 -115 130 -142 147 -62 39
-137 53 -248 45 -122 -9 -164 6 -164 59 0 78 65 153 185 212 150 75 240 92
365 73z"/>
<path d="M1407 2183 c-12 -3 -16 -10 -13 -20 3 -8 6 -16 6 -17 0 -1 16 0 36 2
50 6 119 -23 154 -66 34 -42 40 -35 10 13 -37 60 -132 103 -193 88z"/>
<path d="M1464 1951 c-63 -38 -100 -173 -74 -266 19 -68 58 -105 110 -105 36
0 48 6 80 38 67 67 78 187 26 277 -45 75 -84 91 -142 56z m85 -7 c58 -41 86
-167 57 -259 -11 -34 -14 -37 -21 -20 -25 63 -95 76 -145 27 -28 -28 -29 -28
-34 -8 -3 12 -6 48 -6 82 0 72 34 149 77 176 35 22 43 22 72 2z m-9 -259 c7
-9 10 -18 7 -22 -8 -7 -37 15 -37 28 0 14 16 11 30 -6z m-24 -34 c20 -9 23
-15 15 -25 -6 -7 -9 -15 -6 -17 2 -3 -5 -5 -15 -5 -11 0 -20 4 -20 8 0 4 -3 7
-7 7 -21 -3 -33 2 -33 16 0 8 -5 15 -12 15 -6 0 -3 6 7 14 11 8 23 12 27 10 5
-3 9 1 9 8 1 7 3 6 6 -3 2 -9 15 -21 29 -28z m54 -11 c0 -5 -5 -10 -11 -10 -5
0 -7 5 -4 10 3 6 8 10 11 10 2 0 4 -4 4 -10z"/>
<path d="M1103 1558 c-24 -5 -43 -13 -43 -18 0 -6 11 -5 26 0 31 12 186 13
237 1 49 -12 58 5 10 18 -46 13 -172 12 -230 -1z"/>
<path d="M1710 1320 c25 -4 63 -10 85 -13 l40 -6 -40 13 c-22 8 -60 14 -85 14
l-45 -1 45 -7z"/>
<path d="M1680 1300 c14 -4 39 -8 55 -8 l30 0 -30 8 c-16 4 -41 8 -55 8 l-25
0 25 -8z"/>
<path d="M320 601 c0 -4 66 -34 148 -66 81 -32 163 -65 182 -73 31 -13 33 -13
21 2 -7 9 -18 16 -23 16 -5 0 -44 14 -86 31 -191 78 -242 97 -242 90z"/>
<path d="M311 566 c6 -6 330 -136 338 -136 15 2 -79 45 -196 90 -114 45 -154
58 -142 46z"/>
<path d="M295 540 c3 -5 15 -10 25 -10 12 0 17 -5 14 -14 -3 -7 3 -16 13 -19
10 -2 27 -8 37 -13 14 -5 17 -4 12 4 -10 16 -9 16 63 -14 35 -14 65 -23 67
-21 5 5 -212 97 -228 97 -5 0 -6 -4 -3 -10z m85 -30 c18 -12 2 -12 -25 0 -13
6 -15 9 -5 9 8 0 22 -4 30 -9z"/>
<path d="M1006 4127 c-78 -43 -207 -183 -255 -275 -26 -49 -3 -29 39 35 53 81
140 170 215 219 30 20 55 38 55 40 0 8 -16 2 -54 -19z"/>
<path d="M848 4043 c-37 -39 -98 -130 -98 -147 0 -5 18 17 41 50 23 32 57 76
77 97 20 20 32 37 26 37 -5 0 -26 -17 -46 -37z"/>
<path d="M2977 4073 c-11 -10 -8 -53 3 -53 6 0 10 14 10 30 0 31 -2 35 -13 23z"/>
<path d="M2940 3995 c0 -14 2 -25 4 -25 2 0 6 11 8 25 3 14 1 25 -3 25 -5 0
-9 -11 -9 -25z"/>
<path d="M2970 3990 c0 -11 5 -20 10 -20 6 0 10 9 10 20 0 11 -4 20 -10 20 -5
0 -10 -9 -10 -20z"/>
<path d="M2939 3948 c-5 -55 -3 -118 4 -118 4 0 7 19 8 43 0 23 2 52 3 65 2
12 -1 22 -6 22 -4 0 -8 -6 -9 -12z"/>
<path d="M2970 3900 c0 -33 4 -60 9 -60 5 0 9 27 9 60 -1 33 -5 60 -9 60 -5 0
-9 -27 -9 -60z"/>
<path d="M1215 3856 c-72 -17 -126 -38 -166 -67 -40 -28 -31 -35 12 -10 70 40
178 65 284 66 55 0 115 -3 133 -7 17 -4 32 -4 32 1 0 24 -212 36 -295 17z"/>
<path d="M2972 3765 c0 -36 4 -65 8 -65 4 0 7 29 7 65 0 36 -4 65 -8 65 -4 0
-7 -29 -7 -65z"/>
<path d="M1270 3809 c-63 -12 -200 -61 -200 -71 0 -12 18 -10 52 8 45 23 157
54 195 54 18 0 33 5 33 10 0 12 -17 11 -80 -1z"/>
<path d="M2937 3813 c-6 -10 1 -105 8 -111 3 -3 5 22 5 56 0 59 -3 72 -13 55z"/>
<path d="M2900 3670 c0 -33 4 -60 9 -60 6 0 10 27 10 60 0 33 -5 60 -10 60 -5
0 -9 -27 -9 -60z"/>
<path d="M2938 3665 c2 -14 7 -25 11 -25 3 0 6 11 6 25 0 14 -5 25 -11 25 -7
0 -9 -10 -6 -25z"/>
<path d="M2971 3600 c0 -49 4 -90 8 -90 5 0 9 41 10 90 1 52 -3 90 -8 90 -6 0
-10 -39 -10 -90z"/>
<path d="M2939 3600 c-7 -35 -4 -48 7 -38 3 4 4 21 2 40 l-3 33 -6 -35z"/>
<path d="M2900 3564 c0 -31 2 -35 15 -24 15 13 19 8 16 -22 -1 -10 3 -18 8
-18 18 0 12 39 -9 60 -12 12 -18 25 -15 30 4 6 1 10 -4 10 -6 0 -11 -16 -11
-36z"/>
<path d="M2896 3505 c4 -8 10 -15 15 -15 5 0 9 7 9 15 0 8 -7 15 -15 15 -9 0
-12 -6 -9 -15z"/>
<path d="M2970 3436 c0 -37 4 -66 10 -66 6 0 10 26 10 59 0 33 -4 63 -10 66
-6 4 -10 -18 -10 -59z"/>
<path d="M2935 3480 c-3 -5 1 -10 9 -10 9 0 16 5 16 10 0 6 -4 10 -9 10 -6 0
-13 -4 -16 -10z"/>
<path d="M2902 3405 c2 -41 0 -77 -5 -79 -4 -3 -2 -3 5 -2 15 3 22 156 7 156
-5 0 -8 -34 -7 -75z"/>
<path d="M2933 3445 c0 -8 4 -15 8 -15 4 0 9 7 13 15 3 9 0 15 -8 15 -7 0 -13
-7 -13 -15z"/>
<path d="M2940 3396 c0 -13 -3 -31 -6 -40 -3 -9 -2 -16 4 -16 5 0 12 18 14 40
2 22 0 40 -4 40 -5 0 -8 -11 -8 -24z"/>
<path d="M2970 3325 c0 -19 5 -35 10 -35 6 0 10 16 10 35 0 19 -4 35 -10 35
-5 0 -10 -16 -10 -35z"/>
<path d="M2935 3265 c0 -67 14 -93 16 -30 3 82 1 95 -8 95 -5 0 -8 -29 -8 -65z"/>
<path d="M2900 3295 c0 -8 5 -15 10 -15 6 0 10 7 10 15 0 8 -4 15 -10 15 -5 0
-10 -7 -10 -15z"/>
<path d="M2970 3265 c0 -8 5 -15 10 -15 6 0 10 7 10 15 0 8 -4 15 -10 15 -5 0
-10 -7 -10 -15z"/>
<path d="M2901 3200 c0 -38 3 -70 8 -70 12 0 13 128 2 135 -5 3 -9 -26 -10
-65z"/>
<path d="M2970 3205 c0 -19 4 -35 8 -35 5 0 9 16 10 35 1 19 -3 35 -8 35 -6 0
-10 -16 -10 -35z"/>
<path d="M2938 3183 c7 -3 16 -2 19 1 4 3 -2 6 -13 5 -11 0 -14 -3 -6 -6z"/>
<path d="M2930 3151 c0 -12 6 -21 14 -21 17 0 15 32 -2 38 -7 2 -12 -6 -12
-17z"/>
<path d="M2975 3150 c4 -6 11 -8 16 -5 14 9 11 15 -7 15 -8 0 -12 -5 -9 -10z"/>
<path d="M2971 3053 c-1 -42 -4 -80 -7 -85 -3 -4 1 -8 9 -8 11 0 14 19 15 85
0 47 -3 85 -8 85 -4 0 -8 -34 -9 -77z"/>
<path d="M2898 3040 c-2 -50 1 -80 7 -80 13 0 17 148 5 155 -5 3 -10 -31 -12
-75z"/>
<path d="M2930 3110 c0 -5 7 -10 16 -10 8 0 12 5 9 10 -3 6 -10 10 -16 10 -5
0 -9 -4 -9 -10z"/>
<path d="M2936 3024 c1 -36 4 -67 7 -70 7 -7 15 47 11 81 -1 17 -3 36 -3 43
-1 6 -4 12 -9 12 -4 0 -7 -30 -6 -66z"/>
<path d="M1758 493 c-10 -2 -18 -13 -18 -24 0 -26 41 -41 104 -37 44 3 51 6
54 25 3 17 -3 26 -23 33 -26 10 -85 12 -117 3z m107 -17 l30 -13 -27 -13 c-31
-15 -109 -3 -115 17 -8 22 69 28 112 9z"/>
<path d="M1391 456 c-60 -21 -68 -66 -16 -86 47 -18 160 -23 213 -11 142 35
71 112 -100 110 -35 0 -78 -6 -97 -13z m216 -17 c40 -13 49 -35 20 -51 -57
-31 -263 -17 -274 19 -14 41 164 64 254 32z"/>
<path d="M2810 344 c0 -8 6 -14 13 -15 6 0 1 -5 -13 -10 -19 -8 -27 -6 -36 5
-16 23 -24 20 -24 -9 0 -18 5 -25 19 -25 11 0 22 4 26 9 3 5 19 12 35 16 36 8
38 16 5 32 -20 9 -25 8 -25 -3z"/>
<path d="M2880 320 c0 -5 5 -10 10 -10 6 0 10 5 10 10 0 6 -4 10 -10 10 -5 0
-10 -4 -10 -10z"/>
<path d="M2826 284 c-8 -21 -8 -24 5 -24 5 0 7 5 4 10 -3 6 -1 10 4 10 6 0 11
5 11 10 0 16 -17 12 -24 -6z"/>
<path d="M2873 283 c1 -10 6 -24 10 -30 10 -15 47 -17 47 -3 0 6 6 10 14 10 8
0 16 7 19 14 6 16 -16 12 -40 -7 -7 -5 -13 -5 -13 -1 0 5 -9 15 -20 22 -17 10
-20 10 -17 -5z"/>
<path d="M2732 268 c-7 -7 -12 -16 -12 -22 0 -5 7 -1 15 10 8 10 14 14 13 8
-2 -7 2 -12 7 -13 13 -1 13 21 0 26 -6 2 -16 -2 -23 -9z"/>
<path d="M2840 245 c-10 -13 -9 -15 9 -15 11 0 21 4 21 9 0 18 -18 21 -30 6z"/>
<path d="M2687 210 c-9 -11 -24 -20 -32 -20 -17 0 -20 -16 -5 -25 6 -3 13 1
16 9 3 8 14 18 24 21 10 3 21 12 24 20 8 21 -7 18 -27 -5z"/>
<path d="M2735 221 c-3 -5 -1 -12 5 -16 5 -3 10 1 10 9 0 18 -6 21 -15 7z"/>
<path d="M2805 220 c3 -5 14 -10 23 -10 15 0 15 2 2 10 -20 13 -33 13 -25 0z"/>
<path d="M2752 196 c-15 -33 6 -50 48 -41 42 9 28 24 -17 18 -33 -5 -35 -4
-21 11 10 10 24 13 35 9 16 -6 16 -5 4 10 -19 24 -36 21 -49 -7z"/>
<path d="M2513 189 c-24 -12 -43 -25 -43 -30 0 -4 16 1 35 12 19 11 56 24 82
29 l48 8 -40 1 c-23 0 -58 -8 -82 -20z"/>
<path d="M2700 180 c-14 -10 -22 -22 -18 -25 3 -4 16 3 28 15 28 28 22 34 -10
10z"/>
<path d="M2835 181 c14 -14 60 -18 62 -6 2 6 -14 11 -35 13 -24 2 -33 -1 -27
-7z"/>
<path d="M2860 150 c0 -5 7 -10 16 -10 8 0 12 5 9 10 -3 6 -10 10 -16 10 -5 0
-9 -4 -9 -10z"/>
<path d="M2580 118 c0 -5 -4 -6 -10 -3 -6 4 -11 -14 -12 -47 l-1 -53 -7 50 -7
50 1 -55 c1 -42 5 -55 16 -55 9 0 14 7 12 19 -2 11 4 26 14 33 16 12 16 13 1
13 -26 0 -20 27 8 32 29 6 35 2 35 -25 0 -18 1 -18 18 2 12 15 21 18 32 11 10
-6 11 -10 3 -10 -21 0 -15 -17 8 -23 16 -4 18 -3 8 9 -6 8 -8 14 -3 14 5 0 1
7 -9 15 -11 7 -26 11 -34 8 -9 -4 -21 1 -27 9 -12 16 -46 20 -46 6z"/>
<path d="M2753 123 c-8 -3 -13 -25 -14 -56 -1 -41 -3 -47 -9 -27 l-8 25 -1
-27 c-1 -19 4 -28 14 -28 10 0 15 10 15 30 0 19 5 30 14 30 7 0 19 7 26 15 10
12 10 18 0 30 -13 16 -17 17 -37 8z m25 -25 c-6 -18 -28 -21 -28 -4 0 9 7 16
16 16 9 0 14 -5 12 -12z"/>
<path d="M2722 100 c0 -14 2 -19 5 -12 2 6 2 18 0 25 -3 6 -5 1 -5 -13z"/>
<path d="M69 79 c-9 -5 19 -9 70 -9 46 0 82 2 80 4 -10 8 -138 13 -150 5z"/>
<path d="M280 78 c0 -11 28 -10 35 1 3 6 -4 9 -15 8 -11 -1 -20 -5 -20 -9z"/>
<path d="M2580 86 c0 -2 9 -6 20 -9 11 -3 18 -1 14 4 -5 9 -34 13 -34 5z"/>
<path d="M2829 83 c-21 -5 -31 -63 -12 -70 28 -11 76 53 52 68 -8 5 -16 8 -19
8 -3 -1 -12 -3 -21 -6z m1 -38 c0 -14 -4 -25 -9 -25 -4 0 -6 11 -3 25 2 14 6
25 8 25 2 0 4 -11 4 -25z"/>
<path d="M238 73 c6 -2 18 -2 25 0 6 3 1 5 -13 5 -14 0 -19 -2 -12 -5z"/>
<path d="M2182 56 c3 -21 53 -32 64 -14 4 6 9 5 15 -3 6 -11 11 -11 20 -2 14
14 8 17 -48 27 -22 4 -33 2 -33 -7 0 -8 -4 -7 -11 3 -8 13 -10 12 -7 -4z"/>
<path d="M2300 54 c0 -7 5 -16 10 -19 14 -9 30 3 24 19 -6 16 -34 17 -34 0z"/>
<path d="M2349 68 c-6 -21 -5 -38 2 -38 5 0 9 9 9 20 0 16 -7 28 -11 18z"/>
<path d="M2387 63 c-10 -3 -16 -10 -15 -15 6 -16 43 -19 74 -8 22 9 25 13 15
23 -10 9 -15 8 -25 -5 -9 -13 -14 -14 -22 -4 -5 7 -17 11 -27 9z"/>
<path d="M2498 63 c-25 -6 -23 -32 2 -30 12 1 20 8 20 19 0 10 -1 17 -2 17 -2
-1 -11 -3 -20 -6z"/>
<path d="M2787 64 c-4 -4 -7 -17 -8 -28 -1 -18 -2 -18 -9 4 -5 15 -8 18 -9 8
-2 -28 10 -48 28 -47 10 0 11 2 4 6 -10 3 -10 10 -2 24 11 21 8 45 -4 33z"/>
<path d="M2890 49 c-6 -11 -5 -16 5 -16 8 0 11 5 8 11 -5 8 -2 7 8 0 20 -16
89 -6 82 12 -7 19 -92 14 -103 -7z"/>
<path d="M2596 36 c25 -18 84 -18 78 -1 -3 6 -11 12 -19 12 -8 0 -12 -4 -9 -9
3 -4 -2 -8 -10 -8 -8 0 -18 4 -21 10 -3 6 -14 10 -23 10 -14 0 -13 -3 4 -14z"/>
<path d="M2680 46 c0 -2 7 -9 15 -16 9 -7 15 -8 15 -2 0 5 -7 12 -15 16 -8 3
-15 4 -15 2z"/>
</g>
</svg>
