<?xml version="1.0" standalone="no"?>
<!DOCTYPE svg PUBLIC "-//W3C//DTD SVG 20010904//EN"
 "http://www.w3.org/TR/2001/REC-SVG-20010904/DTD/svg10.dtd">
<svg version="1.0" xmlns="http://www.w3.org/2000/svg"
 width="300.000000pt" height="232.000000pt" viewBox="0 0 300.000000 232.000000"
 preserveAspectRatio="xMidYMid meet">
<metadata>
Created by potrace 1.10, written by Peter Selinger 2001-2011
</metadata>
<g transform="translate(0.000000,232.000000) scale(0.100000,-0.100000)"
fill="#000000" stroke="none">
<path d="M2800 2276 c0 -36 -35 -56 -120 -70 -136 -22 -169 -46 -132 -96 14
-18 17 -32 11 -47 -9 -25 3 -74 26 -109 8 -12 59 -55 114 -93 77 -55 102 -78
110 -104 28 -83 -48 -158 -178 -175 l-59 -8 -53 80 c-29 45 -93 122 -143 172
-95 96 -128 114 -208 114 -34 0 -37 2 -43 38 -4 26 -1 52 11 81 14 36 15 44 3
52 -28 17 -68 8 -115 -26 -75 -55 -139 -82 -259 -110 -136 -31 -182 -49 -218
-83 -31 -30 -62 -31 -182 -6 -67 14 -101 13 -155 -6 -14 -5 -50 -11 -82 -15
-49 -5 -67 -14 -141 -71 -47 -35 -88 -64 -91 -64 -3 0 -6 20 -6 45 0 53 18 92
71 156 92 110 92 216 0 303 -35 34 -47 31 -30 -7 18 -40 -12 -84 -133 -190
-59 -52 -117 -106 -129 -121 -76 -96 -79 -276 -7 -353 12 -13 27 -23 34 -23
24 0 23 -17 -5 -108 -33 -102 -66 -156 -138 -223 -91 -85 -163 -103 -211 -52
-22 24 -24 33 -19 92 3 46 16 91 40 147 47 105 60 165 47 213 -18 67 -94 121
-173 121 -33 0 -44 22 -28 56 l11 24 -38 -19 c-52 -27 -118 -101 -133 -150
-10 -34 -9 -44 5 -66 17 -26 68 -36 81 -15 4 6 12 6 24 -2 22 -13 84 -3 101
17 17 21 30 19 30 -6 0 -29 -16 -55 -78 -129 -77 -91 -105 -155 -110 -258 -5
-93 9 -142 58 -211 68 -93 249 -136 405 -96 64 17 208 82 256 116 l29 20 0
-36 c0 -39 21 -98 39 -109 6 -4 15 4 22 21 22 58 57 91 113 107 70 21 69 21
52 -11 -19 -38 -116 -327 -116 -347 0 -25 -91 -114 -125 -121 -96 -22 -175
-70 -175 -106 0 -67 123 -179 196 -179 15 0 51 -7 79 -16 51 -16 53 -16 87 7
68 48 280 314 366 462 l63 108 30 -25 c16 -14 45 -30 64 -37 32 -12 34 -16 41
-68 10 -88 31 -183 53 -238 27 -69 78 -150 99 -158 14 -5 10 -9 -18 -21 -47
-20 -67 -40 -81 -81 -15 -48 -5 -78 33 -94 41 -17 216 -17 284 0 29 7 60 14
70 15 11 2 25 16 33 31 19 40 26 154 12 198 -12 34 -10 40 23 94 52 86 54 103
16 158 -31 44 -32 51 -26 109 4 33 16 89 27 124 l21 64 24 -36 c14 -20 43 -83
65 -141 49 -125 70 -159 126 -200 28 -20 40 -35 35 -45 -3 -8 -6 -37 -7 -65
l0 -50 58 2 c105 4 204 63 232 138 29 75 17 158 -39 271 l-47 93 26 137 c30
162 35 382 11 474 -8 30 -14 55 -13 56 1 0 33 6 71 12 81 13 152 46 180 84 24
34 33 123 16 174 -20 63 -46 90 -138 150 -97 63 -112 78 -112 111 0 27 26 41
128 72 91 27 101 43 82 131 -7 33 -17 60 -21 60 -5 0 -9 -6 -9 -14z m-1789
-148 c15 -58 -2 -110 -59 -176 -64 -76 -82 -116 -82 -183 0 -54 -1 -57 -40
-84 -35 -24 -91 -94 -103 -128 -6 -18 -59 24 -80 64 -14 27 -17 51 -15 114 6
119 27 156 162 276 122 109 156 150 156 189 l1 25 24 -28 c13 -15 29 -46 36
-69z m1799 57 c0 -30 -24 -46 -108 -70 l-63 -18 -16 22 c-11 16 -18 20 -26 12
-15 -15 -27 -14 -27 3 0 19 71 46 123 46 23 0 53 7 67 14 37 21 50 19 50 -9z
m-200 -84 c-13 -25 -13 -72 0 -105 5 -15 43 -47 94 -81 47 -31 97 -70 110 -86
49 -57 59 -168 21 -225 -9 -14 -40 -36 -68 -49 -53 -24 -177 -48 -177 -34 0 4
-3 14 -6 23 -5 13 1 16 28 16 89 0 182 51 213 116 14 31 15 43 6 75 -12 39
-29 56 -150 146 -104 78 -129 130 -92 191 22 34 38 45 21 13z m-480 -5 c0 -2
-7 -21 -16 -42 -20 -47 -14 -103 23 -217 21 -63 27 -103 27 -172 0 -84 -2 -96
-36 -166 -32 -68 -47 -86 -140 -167 -146 -128 -198 -207 -198 -304 0 -35 -2
-38 -20 -28 -10 6 -46 35 -78 65 -61 56 -118 150 -143 233 -16 56 -27 53 -27
-7 0 -59 -29 -117 -75 -147 -72 -47 -198 -79 -297 -76 -28 1 -40 -2 -31 -7 17
-11 8 -16 -66 -42 l-57 -19 27 28 c15 15 27 32 27 37 0 17 -129 -118 -141
-147 -6 -15 -15 -28 -20 -28 -11 0 -29 67 -28 105 0 24 3 20 18 -25 l17 -55
27 58 c26 58 118 161 166 186 21 12 23 11 18 -3 -9 -22 10 -20 22 3 12 21 -3
32 -42 30 -12 0 -16 -3 -9 -6 8 -3 -7 -15 -35 -27 -26 -13 -105 -61 -175 -109
-235 -158 -414 -200 -585 -136 -73 28 -101 54 -134 123 -24 50 -29 74 -29 133
0 99 27 167 107 265 73 91 88 121 73 148 -5 10 -10 32 -10 48 0 16 -9 41 -21
56 -25 31 -12 34 47 7 25 -11 50 -33 64 -56 30 -49 23 -118 -23 -222 -90 -200
-74 -291 52 -297 30 -2 49 -10 71 -31 16 -16 30 -24 30 -19 0 6 -11 21 -25 34
l-25 23 30 15 c16 8 55 39 86 68 64 62 88 67 133 28 36 -30 41 -21 9 13 -13
14 -33 23 -51 23 -35 0 -32 18 6 40 35 20 75 5 104 -39 15 -23 23 -28 23 -17
0 32 -55 76 -94 76 l-36 0 16 25 c29 45 112 22 138 -38 8 -18 15 -26 15 -19 3
47 -76 111 -120 97 -16 -5 -20 -3 -17 6 6 19 47 39 79 39 35 0 93 -40 97 -68
2 -12 8 -22 13 -22 6 0 7 10 4 23 -18 58 -91 97 -147 78 -17 -6 -32 -11 -34
-11 -3 0 4 23 28 100 17 55 64 107 147 162 42 28 102 71 133 96 45 35 66 45
100 46 24 2 67 11 97 21 53 17 59 17 170 0 64 -10 118 -20 120 -22 2 -1 -1 -8
-6 -15 -6 -7 -13 -25 -17 -40 -4 -18 -13 -28 -25 -28 -10 0 -26 -9 -36 -20
-22 -24 -17 -25 21 -5 29 15 29 15 34 -18 5 -28 6 -25 17 31 15 80 44 127 96
153 22 12 100 36 173 54 141 36 193 58 263 111 26 20 55 34 72 34 16 0 29 -2
29 -4z m137 -197 c86 -42 284 -299 321 -418 28 -90 22 -379 -11 -536 l-25
-120 38 -65 c91 -154 92 -276 3 -349 -44 -36 -53 -38 -53 -12 0 10 -7 25 -16
32 -15 12 -18 11 -27 -3 -10 -15 -12 -15 -23 0 -10 14 -16 15 -32 5 -10 -6
-24 -8 -31 -4 -7 5 12 15 49 25 76 21 73 32 -4 15 l-55 -12 -46 37 c-51 42
-67 70 -119 206 -20 52 -48 112 -62 133 -14 22 -24 40 -22 41 2 1 20 13 41 25
50 30 123 121 158 196 31 68 49 142 30 131 -6 -4 -11 -17 -11 -28 0 -12 -16
-53 -34 -93 -42 -86 -122 -172 -194 -209 -29 -14 -52 -25 -52 -22 0 2 9 25 21
50 17 40 20 58 14 122 -4 41 -11 74 -16 74 -4 0 -7 -37 -6 -82 2 -89 -7 -114
-81 -233 l-32 -50 0 65 c-2 100 -18 41 -26 -88 -7 -126 18 -277 59 -359 14
-27 28 -66 32 -86 9 -46 -2 -139 -18 -161 -7 -9 -39 -23 -72 -31 -78 -19 -75
-19 -75 9 0 31 -26 54 -42 38 -18 -18 -26 -15 -30 9 -5 35 -33 47 -57 25 -19
-18 -21 -18 -27 -2 -4 10 -16 21 -28 26 -19 7 -18 9 16 24 21 9 56 16 78 16
22 0 40 5 40 10 0 6 -18 10 -39 10 -35 0 -43 5 -75 49 -87 118 -111 217 -132
541 -5 88 -27 171 -40 157 -3 -3 -1 -14 5 -25 6 -12 11 -36 11 -54 l0 -33 -21
32 c-12 18 -25 33 -31 33 -5 0 6 -23 26 -50 32 -44 36 -57 36 -110 0 -33 -2
-60 -5 -60 -27 0 -119 66 -207 148 -72 66 -124 106 -158 120 -65 27 -65 14 0
-16 29 -14 87 -58 137 -106 l87 -83 -58 -103 c-61 -106 -318 -440 -356 -460
-18 -10 -30 -4 -88 41 -37 29 -71 56 -75 60 -5 4 -1 18 8 32 20 31 12 50 -18
41 -18 -5 -20 -4 -9 7 21 23 15 49 -12 49 -14 0 -28 -5 -31 -10 -4 -6 -10 -8
-15 -5 -4 3 -15 -6 -24 -20 -21 -32 -13 -32 28 0 52 40 72 33 36 -12 -25 -32
-26 -47 -1 -33 32 17 42 13 30 -13 l-11 -24 -39 20 c-21 10 -57 21 -79 24 -22
3 -37 10 -34 15 4 5 31 26 62 45 43 28 68 37 117 41 37 3 70 0 83 -7 14 -7 22
-8 22 -2 0 6 -17 15 -38 22 l-39 11 26 27 c14 15 28 25 30 24 3 -2 32 79 66
179 63 188 96 264 124 285 9 7 35 13 57 13 157 1 318 86 339 179 7 31 7 31 41
-39 38 -80 117 -166 182 -199 23 -12 43 -21 44 -21 2 0 4 24 4 53 3 103 54
174 238 331 54 47 76 74 102 130 32 66 34 77 34 171 0 77 -6 121 -24 183 l-24
82 46 0 c26 0 64 -9 89 -21z m-2084 -135 c-4 -11 10 -31 46 -64 58 -53 64 -79
25 -109 -28 -22 -88 -28 -99 -11 -4 6 -15 4 -29 -5 -51 -33 -81 18 -51 86 10
22 38 57 61 79 48 44 57 48 47 24z m788 -690 c-24 -25 -50 -62 -59 -82 l-16
-37 -6 30 c-4 17 -3 38 2 47 7 15 104 88 117 88 2 0 -15 -21 -38 -46z m1119
-248 c0 -7 -7 -33 -15 -56 -8 -23 -15 -74 -15 -112 0 -57 4 -75 25 -106 14
-20 25 -43 25 -50 0 -23 -52 -103 -64 -99 -17 5 -46 131 -53 228 l-6 85 42 55
c22 29 41 57 41 62 0 4 5 7 10 7 6 0 10 -6 10 -14z m380 -432 c0 -31 16 -31
24 1 4 14 10 25 15 25 8 0 25 -50 19 -55 -7 -5 -99 -25 -117 -25 -22 0 -28 29
-15 64 10 26 25 18 18 -9 -9 -36 9 -31 23 6 13 35 33 31 33 -7z m-1708 -24
c28 -11 67 -32 87 -48 20 -16 58 -45 84 -65 45 -34 49 -49 9 -28 -9 5 -36 11
-59 14 -65 9 -108 32 -158 81 -69 69 -58 82 37 46z m960 -197 c3 -10 3 -35 0
-55 -4 -40 -17 -47 -54 -27 -15 8 -18 17 -13 37 8 31 33 62 50 62 7 0 15 -8
17 -17z m88 -49 c0 -40 5 -42 31 -11 16 19 20 20 29 7 23 -35 -4 -50 -91 -50
-37 0 -39 2 -39 32 0 40 37 83 57 67 7 -6 13 -27 13 -45z"/>
<path d="M1092 1809 c-24 -17 -41 -34 -38 -36 3 -3 22 8 43 23 54 39 59 44 47
44 -6 0 -29 -14 -52 -31z"/>
<path d="M1779 1821 c-14 -5 -36 -14 -50 -21 -39 -22 -140 -122 -159 -161 -20
-38 -38 -179 -24 -179 5 0 23 21 39 45 17 25 33 45 38 45 11 0 9 -7 -18 -46
-24 -35 -32 -64 -19 -64 3 0 17 9 31 20 29 23 111 28 131 8 9 -9 12 -9 12 0 0
30 -80 40 -134 17 -19 -8 -19 -8 0 25 10 18 31 42 47 53 36 28 34 38 -5 26
-18 -5 -51 -27 -72 -50 l-39 -41 7 52 c10 74 35 118 103 180 67 62 105 80 166
80 53 0 87 -27 87 -71 0 -18 4 -28 10 -24 18 11 10 44 -17 75 -30 34 -86 46
-134 31z m-119 -245 c0 -2 -8 -10 -17 -17 -16 -13 -17 -12 -4 4 13 16 21 21
21 13z"/>
<path d="M863 1625 c-26 -18 -46 -66 -40 -97 3 -17 5 -15 6 10 1 23 11 43 31
64 34 33 35 46 3 23z"/>
<path d="M1131 1431 c0 -33 -14 -76 -27 -84 -8 -4 -14 -12 -14 -18 0 -5 18 2
39 17 23 15 51 25 68 24 41 -3 50 -1 38 8 -6 4 -15 21 -20 37 -9 26 -16 30
-47 31 -28 2 -37 -2 -37 -15z m64 -2 c11 -17 -1 -21 -15 -4 -8 9 -8 15 -2 15
6 0 14 -5 17 -11z m-30 -19 c-3 -5 -10 -10 -16 -10 -5 0 -9 5 -9 10 0 6 7 10
16 10 8 0 12 -4 9 -10z"/>
<path d="M437 1071 c14 -23 28 -39 31 -36 7 6 -32 68 -46 73 -6 2 0 -15 15
-37z"/>
<path d="M2343 670 c-28 -11 -46 -45 -38 -70 12 -36 95 -38 95 -2 0 12 -3 13
-12 4 -7 -7 -25 -12 -40 -12 -33 0 -38 28 -10 53 29 27 49 21 24 -6 -29 -31
-16 -44 15 -15 27 25 29 43 7 52 -9 3 -16 6 -17 5 -1 0 -12 -4 -24 -9z"/>
<path d="M986 615 c-9 -9 -16 -22 -16 -29 0 -21 35 -46 63 -46 38 0 34 18 -5
22 -20 2 -34 9 -36 18 -2 13 6 15 39 12 36 -4 40 -2 37 14 -4 25 -60 31 -82 9z
m69 -5 c3 -5 -3 -10 -14 -10 -11 0 -23 5 -26 10 -3 6 3 10 14 10 11 0 23 -4
26 -10z"/>
<path d="M1722 434 c-24 -17 -29 -56 -9 -72 19 -16 64 -25 92 -18 41 10 29 27
-14 20 -64 -10 -109 30 -62 56 24 12 81 13 81 1 0 -5 -21 -12 -47 -16 -27 -4
-42 -10 -35 -12 25 -9 102 8 102 22 0 33 -70 46 -108 19z"/>
<path d="M122 1670 c11 -18 11 -23 -4 -34 -19 -14 -24 -36 -9 -36 30 0 41 78
13 88 -11 3 -11 1 0 -18z"/>
<path d="M160 1661 c-12 -30 -7 -51 12 -51 6 0 8 10 5 22 -3 12 -2 30 4 40 6
10 6 18 1 18 -5 0 -15 -13 -22 -29z"/>
</g>
</svg>
